<svg width="202" height="32" viewBox="0 0 202 32" fill="none" xmlns="http://www.w3.org/2000/svg">
<path d="M21.4689 10.582C19.0268 10.582 17.2772 11.3812 15.8556 13.4155C14.9444 11.6355 13.0855 10.582 10.4975 10.582C8.52925 10.582 6.19646 11.5992 5.28522 13.1975V11.1269H0V29.181H5.54036V18.7917C5.54036 17.1571 6.59741 15.6677 8.52924 15.6677C10.4611 15.6677 11.4452 17.0118 11.4452 18.7191V29.181H16.9127V18.7554C16.9127 17.1571 17.9697 15.6677 19.938 15.6677C21.9063 15.6677 22.8176 17.0118 22.8176 18.7191V29.181H28.1757V17.484C28.1757 12.58 24.8952 10.582 21.4689 10.582Z" fill="#EF3B24"/>
<path d="M55.5632 13.5608V11.1269H50.2051V29.181H55.7454V21.2983C55.7454 17.702 57.7502 16.3942 59.9736 16.3942C60.5204 16.3942 61.1036 16.4306 61.7232 16.5759V11.1269C61.3587 11.018 60.812 10.9453 60.2652 10.9453C58.8072 10.9453 56.5109 11.5265 55.5632 13.5608Z" fill="#EF3B24"/>
<path d="M69.1634 11.127H63.623V29.181H69.1634V11.127Z" fill="#EF3B24"/>
<path d="M79.1868 5.85938H74.2296V8.18425C74.2296 9.85525 73.3184 11.1267 71.423 11.1267H70.5117V15.958H73.7193V23.6955C73.7193 27.2918 76.0156 29.5077 79.77 29.5077C81.5196 29.5077 82.4308 29.1081 82.6495 28.9991V24.422C82.3215 24.4947 81.7747 24.6036 81.1915 24.6036C79.9887 24.6036 79.1868 24.2041 79.1868 22.7147V15.958H82.7224V11.1267H79.1868V5.85938Z" fill="#EF3B24"/>
<path d="M66.3504 1C64.4238 1 62.8174 2.60094 62.8174 4.56255C62.8174 6.52416 64.4238 8.12251 66.3504 8.12251C68.277 8.12251 69.9641 6.52157 69.9641 4.56255C69.9641 2.60354 68.3578 1 66.3504 1Z" fill="#EF3B24"/>
<path d="M39.1235 10.4727C34.3668 10.4727 29.9824 14.2194 29.9824 20.0991C29.9824 25.9787 34.4788 29.8345 39.5297 29.8345C43.6823 29.8345 46.4473 27.7198 47.6189 25.0135L43.0366 23.2802C42.4378 24.3907 41.3495 25.0965 39.6052 25.0965C37.4312 25.0965 35.5488 23.6279 35.4395 21.5703H48.1943C48.2307 21.4613 48.3062 20.6154 48.3062 19.8448C48.3062 13.9677 44.8045 10.4753 39.1261 10.4753M35.5514 17.9714C35.6634 16.6118 36.8428 14.8837 39.2016 14.8837C41.8572 14.8837 42.8153 16.5728 42.8882 17.9714H35.5514Z" fill="#EF3B24"/>
<path d="M91.5769 24.3497L99.8562 15.6677V11.127H85.0185V15.8493V15.9583H92.6808L84.7998 24.3133V29.181H99.9994V24.4223V24.3497H91.5769Z" fill="#EF3B24"/>
<path d="M122 29.08V10.52H123.96V29.08H122ZM115.7 17.68H118V10.8H119.88V28.7H118V19.5H115.7V26.08H108.28V11.88H115.7V17.68ZM110.12 24.24H113.84V13.72H110.12V24.24ZM142.625 29.08H140.645V10.52H142.625V29.08ZM131.225 26.44H127.725V18.18H134.645V13.68H127.725V11.88H136.645V19.94H129.725V24.64H131.585C133.705 24.64 136.345 24.42 138.625 24.06L138.865 25.8C136.705 26.2 133.885 26.44 131.225 26.44ZM147.65 22.66L146.75 20.9C151.25 18.92 153.43 16.92 153.49 14.78H147.83V12.96H153.49V10.7H155.49V12.96H161.01V14.78H155.49C155.47 15.48 155.33 16.18 155.03 16.86L162.05 20.94L161.05 22.66L153.99 18.5C152.73 20 150.65 21.4 147.65 22.66ZM145.69 27.66V25.84H163.13V27.66H145.69ZM179.695 17.68H182.395V19.5H179.695V29.08H177.695V10.52H179.695V17.68ZM171.095 12.64H175.455V14.3H164.695V12.64H169.075V10.54H171.095V12.64ZM171.195 22.7V24.86C172.835 24.76 174.595 24.6 176.155 24.42L176.375 26.16C173.595 26.54 170.055 26.76 167.415 26.76H164.475L164.375 24.98H167.575C168.055 24.98 168.595 24.96 169.195 24.94V22.72C167.075 22.46 165.535 21.26 165.535 19.24V18.94C165.535 16.66 167.535 15.42 170.115 15.42C172.635 15.42 174.635 16.66 174.635 18.94V19.24C174.635 21.2 173.175 22.38 171.195 22.7ZM167.495 18.96V19.22C167.495 20.46 168.615 21.18 170.115 21.18C171.555 21.18 172.695 20.46 172.695 19.22V18.96C172.695 17.74 171.555 17.02 170.115 17.02C168.615 17.02 167.495 17.74 167.495 18.96ZM197.859 17.5V10.52H199.799V29.08H197.859V19.32H195.499V28.7H193.599V10.8H195.499V17.5H197.859ZM188.979 13.8V14.78C188.979 16.14 188.859 17.44 188.599 18.68L192.779 25.22L191.159 26.36L187.879 21.22C187.199 23.06 186.219 24.82 184.939 26.56L183.379 25.34C185.819 22.08 187.099 18.92 187.099 14.78V13.8H184.059V11.98H192.139V13.8H188.979Z" fill="#222222"/>
</svg>
