<svg width="24" height="24" viewBox="0 0 24 24" fill="none" xmlns="http://www.w3.org/2000/svg">
<path d="M19.814 18.0392C19.814 18.0392 18.7689 19.0543 18.5128 19.3518C18.0956 19.7921 17.604 20 16.9597 20C16.8977 20 16.8316 20 16.7696 19.9959C15.5428 19.9185 14.4028 19.4456 13.5477 19.042C11.2097 17.9251 9.15679 16.3394 7.45081 14.3297C6.04225 12.6543 5.10045 11.1052 4.47672 9.44204C4.09256 8.42701 3.95212 7.63618 4.01408 6.89019C4.05539 6.41325 4.24127 6.01783 4.58412 5.67949L5.99268 4.28943C6.19508 4.10191 6.40988 4 6.62054 4C6.88078 4 7.09144 4.1549 7.22362 4.28535C7.22776 4.28943 7.23189 4.2935 7.23602 4.29758C7.48799 4.52994 7.72757 4.77045 7.97954 5.02726C8.10759 5.15771 8.23977 5.28815 8.37196 5.42268L9.49963 6.53554C9.93749 6.96764 9.93749 7.36713 9.49963 7.79924C9.37984 7.91745 9.26418 8.03567 9.14439 8.14981C8.79742 8.50038 9.06999 8.23139 8.71062 8.54935C8.70236 8.5575 8.69409 8.56158 8.68996 8.56973C8.33473 8.92031 8.40082 9.26273 8.47517 9.49508C8.4793 9.50731 8.48343 9.51954 8.48756 9.53177C8.78084 10.2329 9.19391 10.8933 9.82177 11.6801L9.8259 11.6841C10.966 13.0701 12.168 14.1504 13.494 14.9779C13.6633 15.0839 13.8368 15.1695 14.002 15.251C14.1507 15.3244 14.2912 15.3937 14.411 15.4671C14.4275 15.4752 14.444 15.4874 14.4605 15.4956C14.601 15.5649 14.7332 15.5975 14.8695 15.5975C15.2123 15.5975 15.4271 15.3855 15.4973 15.3162L16.307 14.5172C16.4475 14.3786 16.6705 14.2115 16.9307 14.2115C17.1868 14.2115 17.3975 14.3704 17.5256 14.509C17.5297 14.5131 17.5297 14.5131 17.5338 14.5172L19.8098 16.7633C20.2353 17.1791 19.814 18.0392 19.814 18.0392Z" stroke="#222222" stroke-width="2" stroke-linecap="round" stroke-linejoin="round"/>
</svg>
