<svg width="302" height="30" viewBox="0 0 302 30" fill="none" xmlns="http://www.w3.org/2000/svg">
<path d="M21.4689 9.58203C19.0268 9.58203 17.2772 10.3812 15.8556 12.4155C14.9444 10.6355 13.0855 9.58203 10.4975 9.58203C8.52925 9.58203 6.19646 10.5992 5.28522 12.1975V10.1269H0V28.181H5.54036V17.7917C5.54036 16.1571 6.59741 14.6677 8.52924 14.6677C10.4611 14.6677 11.4452 16.0118 11.4452 17.7191V28.181H16.9127V17.7554C16.9127 16.1571 17.9697 14.6677 19.938 14.6677C21.9063 14.6677 22.8176 16.0118 22.8176 17.7191V28.181H28.1757V16.484C28.1757 11.58 24.8952 9.58203 21.4689 9.58203Z" fill="#EF3B24"/>
<path d="M55.5636 12.5608V10.1269H50.2055V28.181H55.7459V20.2983C55.7459 16.702 57.7506 15.3942 59.974 15.3942C60.5208 15.3942 61.104 15.4306 61.7236 15.5759V10.1269C61.3591 10.018 60.8124 9.94531 60.2656 9.94531C58.8077 9.94531 56.5113 10.5265 55.5636 12.5608Z" fill="#EF3B24"/>
<path d="M69.1634 10.127H63.623V28.181H69.1634V10.127Z" fill="#EF3B24"/>
<path d="M79.1869 4.86035H74.2298V7.18522C74.2298 8.85622 73.3185 10.1276 71.4231 10.1276H70.5119V14.959H73.7195V22.6965C73.7195 26.2928 76.0158 28.5086 79.7702 28.5086C81.5197 28.5086 82.431 28.1091 82.6497 28.0001V23.423C82.3216 23.4956 81.7749 23.6046 81.1917 23.6046C79.9888 23.6046 79.1869 23.205 79.1869 21.7157V14.959H82.7226V10.1276H79.1869V4.86035Z" fill="#EF3B24"/>
<path d="M66.3504 0C64.4238 0 62.8174 1.60094 62.8174 3.56255C62.8174 5.52416 64.4238 7.12251 66.3504 7.12251C68.277 7.12251 69.9641 5.52157 69.9641 3.56255C69.9641 1.60354 68.3578 0 66.3504 0Z" fill="#EF3B24"/>
<path d="M39.1236 9.47363C34.3669 9.47363 29.9825 13.2204 29.9825 19.1001C29.9825 24.9797 34.4788 28.8354 39.5297 28.8354C43.6824 28.8354 46.4474 26.7208 47.619 24.0145L43.0367 22.2812C42.4379 23.3917 41.3496 24.0975 39.6052 24.0975C37.4312 24.0975 35.5489 22.6289 35.4395 20.5713H48.1943C48.2308 20.4623 48.3063 19.6164 48.3063 18.8458C48.3063 12.9687 44.8045 9.47623 39.1262 9.47623M35.5515 16.9724C35.6634 15.6127 36.8428 13.8847 39.2017 13.8847C41.8573 13.8847 42.8154 15.5738 42.8883 16.9724H35.5515Z" fill="#EF3B24"/>
<path d="M91.5773 23.3497L99.8566 14.6677V10.127H85.0189V14.8493V14.9583H92.6812L84.8002 23.3133V28.181H99.9998V23.4223V23.3497H91.5773Z" fill="#EF3B24"/>
<path d="M122 27.08V8.52H123.96V27.08H122ZM115.7 15.68H118V8.8H119.88V26.7H118V17.5H115.7V24.08H108.28V9.88H115.7V15.68ZM110.12 22.24H113.84V11.72H110.12V22.24ZM142.625 27.08H140.645V8.52H142.625V27.08ZM131.225 24.44H127.725V16.18H134.645V11.68H127.725V9.88H136.645V17.94H129.725V22.64H131.585C133.705 22.64 136.345 22.42 138.625 22.06L138.865 23.8C136.705 24.2 133.885 24.44 131.225 24.44ZM147.649 20.66L146.749 18.9C151.249 16.92 153.429 14.92 153.489 12.78H147.829V10.96H153.489V8.7H155.489V10.96H161.009V12.78H155.489C155.469 13.48 155.329 14.18 155.029 14.86L162.049 18.94L161.049 20.66L153.989 16.5C152.729 18 150.649 19.4 147.649 20.66ZM145.689 25.66V23.84H163.129V25.66H145.689ZM179.694 15.68H182.394V17.5H179.694V27.08H177.694V8.52H179.694V15.68ZM171.094 10.64H175.454V12.3H164.694V10.64H169.074V8.54H171.094V10.64ZM171.194 20.7V22.86C172.834 22.76 174.594 22.6 176.154 22.42L176.374 24.16C173.594 24.54 170.054 24.76 167.414 24.76H164.474L164.374 22.98H167.574C168.054 22.98 168.594 22.96 169.194 22.94V20.72C167.074 20.46 165.534 19.26 165.534 17.24V16.94C165.534 14.66 167.534 13.42 170.114 13.42C172.634 13.42 174.634 14.66 174.634 16.94V17.24C174.634 19.2 173.174 20.38 171.194 20.7ZM167.494 16.96V17.22C167.494 18.46 168.614 19.18 170.114 19.18C171.554 19.18 172.694 18.46 172.694 17.22V16.96C172.694 15.74 171.554 15.02 170.114 15.02C168.614 15.02 167.494 15.74 167.494 16.96ZM197.859 15.5V8.52H199.799V27.08H197.859V17.32H195.499V26.7H193.599V8.8H195.499V15.5H197.859ZM188.979 11.8V12.78C188.979 14.14 188.859 15.44 188.599 16.68L192.779 23.22L191.159 24.36L187.879 19.22C187.199 21.06 186.219 22.82 184.939 24.56L183.379 23.34C185.819 20.08 187.099 16.92 187.099 12.78V11.8H184.059V9.98H192.139V11.8H188.979Z" fill="#222222"/>
<line x1="212.5" y1="13" x2="212.5" y2="24" stroke="#999999"/>
<path d="M229.88 26.3C226.16 26.3 223.06 23.76 223.06 19.36V16.44C223.06 12.04 226.14 9.5 229.88 9.5C233.18 9.5 235.5 11.44 236.28 14.6L234.38 15.14C233.74 12.68 232.28 11.36 229.88 11.36C227.22 11.36 225.06 13.14 225.06 16.58V19.22C225.06 22.68 227.22 24.44 229.88 24.44C232.28 24.44 233.74 23.12 234.38 20.66L236.28 21.2C235.5 24.38 233.18 26.3 229.88 26.3ZM243.259 13.94C245.979 13.94 247.959 15.62 247.959 18.5V26H246.119L246.019 24.46C245.379 25.58 244.159 26.3 242.579 26.3H241.799C239.619 26.3 237.999 24.76 237.999 22.58C237.999 20.48 239.579 18.98 242.459 18.98H245.979V18.6C245.979 16.92 245.019 15.78 243.119 15.78C241.779 15.78 240.799 16.4 240.259 17.44L238.459 16.64C239.299 15.08 241.079 13.94 243.259 13.94ZM242.179 24.46H242.939C244.419 24.46 245.799 23.58 245.979 22.12V20.74H242.539C240.799 20.74 239.979 21.48 239.979 22.6C239.979 23.74 240.859 24.46 242.179 24.46ZM255.687 13.94C256.247 13.94 256.827 14.04 257.247 14.2L256.767 16C256.307 15.86 255.787 15.78 255.347 15.78C253.927 15.78 252.787 17.08 252.787 18.96V26H250.787V14.24H252.647L252.747 16C253.307 14.76 254.307 13.94 255.687 13.94ZM268.66 19.56V20.84H260C260.04 23.26 261.58 24.52 263.38 24.52C264.8 24.52 266.1 23.82 266.64 22.46L268.48 23.06C267.74 25.2 265.66 26.3 263.38 26.3C260.54 26.3 258.04 24.42 258.04 20.78V19.44C258.04 15.82 260.5 13.94 263.34 13.94C266.24 13.94 268.66 15.84 268.66 19.56ZM260.02 19.14H266.66C266.66 17.06 265.24 15.74 263.34 15.74C261.6 15.74 260.14 16.9 260.02 19.14ZM281.375 19.56V20.84H272.715C272.755 23.26 274.295 24.52 276.095 24.52C277.515 24.52 278.815 23.82 279.355 22.46L281.195 23.06C280.455 25.2 278.375 26.3 276.095 26.3C273.255 26.3 270.755 24.42 270.755 20.78V19.44C270.755 15.82 273.215 13.94 276.055 13.94C278.955 13.94 281.375 15.84 281.375 19.56ZM272.735 19.14H279.375C279.375 17.06 277.955 15.74 276.055 15.74C274.315 15.74 272.855 16.9 272.735 19.14ZM288.87 13.94C289.43 13.94 290.01 14.04 290.43 14.2L289.95 16C289.49 15.86 288.97 15.78 288.53 15.78C287.11 15.78 285.97 17.08 285.97 18.96V26H283.97V14.24H285.83L285.93 16C286.49 14.76 287.49 13.94 288.87 13.94ZM290.829 23.4L292.389 22.38C293.249 23.92 294.649 24.58 296.089 24.58C297.529 24.58 298.689 24.06 298.689 22.98C298.689 21.9 297.809 21.48 296.589 21.14L295.089 20.72C293.249 20.24 291.629 19.32 291.629 17.24C291.629 15.12 293.429 13.94 295.809 13.94C298.069 13.94 299.609 15 300.589 16.56L299.089 17.62C298.309 16.42 297.149 15.66 295.769 15.66C294.409 15.66 293.569 16.28 293.569 17.24C293.569 18.18 294.249 18.66 295.469 19L296.949 19.42C298.789 19.92 300.649 20.76 300.649 22.98C300.649 25.22 298.469 26.3 296.069 26.3C293.709 26.3 291.829 25.32 290.829 23.4Z" fill="#222222"/>
</svg>
