<svg width="80" height="80" viewBox="0 0 80 80" fill="none" xmlns="http://www.w3.org/2000/svg">
<path d="M68.5911 46.4483C68.7967 44.4214 68.4148 42.8351 67.9154 41.7041C68.1945 39.8681 67.9448 38.1203 67.181 36.6074C66.197 34.6686 64.405 33.2292 62.1431 32.5682C61.5115 32.3773 60.3952 32.1276 57.6486 31.8191C59.9839 26.7958 59.4405 23.4176 58.3536 21.3025C57.1639 18.9818 54.9607 17.5131 52.4784 17.3809C52.2728 17.3809 52.0671 17.3809 51.8615 17.3809C48.3511 17.4837 46.5885 20.0394 45.3107 21.9194C44.635 22.9035 44.0034 23.8142 43.1369 24.5486C40.8015 26.5021 38.7452 28.8815 37.2617 30.6147C36.7476 31.2022 36.2629 31.7751 35.8516 32.2157C35.1172 31.2904 34.001 30.6588 32.7231 30.6L19.0192 29.8362C16.6545 29.7041 14.6275 31.5254 14.51 33.8754L13.1147 59.0065C12.9825 61.3713 14.8038 63.3982 17.1539 63.5157L30.8577 64.2795C32.2531 64.3529 33.5162 63.7654 34.3535 62.7813C35.2347 63.0898 36.1454 63.3689 36.9679 63.5451C41.1099 64.4264 45.7513 64.823 48.9092 64.9992C52.0671 65.1755 54.8725 65.1902 56.0035 65.1167H56.2238C58.2948 64.9698 62.1431 64.7201 64.2435 61.4154C65.2569 59.8144 65.6976 58.0371 65.5213 56.2893C66.1382 55.3933 66.6817 54.2623 66.902 52.8963C67.0342 52.0885 67.0489 51.3247 66.9901 50.6344C67.8714 49.4447 68.4295 48.0199 68.5764 46.463L68.5911 46.4483ZM52.0378 20.9353C52.1259 20.9353 52.214 20.9353 52.3021 20.9353C52.3021 20.9353 52.3315 20.9353 52.3462 20.9353C52.2434 20.9353 52.1406 20.9353 52.0378 20.9353Z" fill="#DADADA"/>
<path d="M68.5326 45.5959C68.8263 43.5249 68.5032 41.8799 68.0479 40.6901C68.4151 38.8101 68.2388 37.0182 67.5191 35.4319C66.5937 33.3902 64.8165 31.848 62.5252 31.0695C61.8789 30.8492 60.7479 30.5408 57.9425 30.1148C60.557 25.0475 60.1457 21.5517 59.1176 19.3485C57.9866 16.9103 55.7981 15.3094 53.2571 15.0597C53.0368 15.045 52.8311 15.0303 52.6255 15.0303C49.0123 14.9715 47.1028 17.5419 45.6928 19.4073C44.9584 20.3767 44.2681 21.302 43.3427 22.0071C40.8604 23.9165 38.6573 26.2666 37.0416 27.9851C36.4981 28.5726 35.9694 29.1307 35.5287 29.5714C34.809 28.5873 33.6927 27.8969 32.3855 27.7647L18.3291 26.3988C15.9056 26.1638 13.7465 27.941 13.5115 30.3645L11.0145 56.0978C10.7795 58.5213 12.5568 60.6805 14.9803 60.9155L29.0366 62.2814C30.4614 62.4136 31.798 61.8555 32.6939 60.8861C33.5899 61.2386 34.5006 61.5617 35.3378 61.7821C39.5532 62.869 44.2974 63.4712 47.5435 63.7943C50.7895 64.1174 53.6537 64.2496 54.814 64.2203H55.0343C57.1641 64.1615 61.1298 64.0734 63.4358 60.7686C64.5521 59.1676 65.0662 57.361 64.9634 55.569C65.639 54.6731 66.2412 53.5274 66.5203 52.1321C66.6819 51.3095 66.7259 50.5311 66.7113 49.8114C67.666 48.6216 68.2976 47.1822 68.5179 45.5959H68.5326ZM52.6108 18.6729C52.6989 18.6729 52.7871 18.6729 52.8899 18.6729C52.8899 18.6729 52.9193 18.6729 52.9339 18.6729C52.8311 18.6729 52.7136 18.6435 52.6108 18.6435V18.6729Z" fill="white"/>
<path d="M37.6878 33.5656C39.5238 32.0087 42.4761 28.1898 46.0159 25.4872C49.306 22.9609 50.1285 19.3771 52.5961 19.4064C54.388 19.4358 55.3868 21.169 55.4749 22.77C55.5631 24.371 55.049 25.8691 54.4174 27.2645C53.9327 28.322 53.3452 29.3208 52.6989 30.2902C52.1701 31.0834 50.5985 32.3906 51.9351 33.1837C52.3611 33.4334 52.8898 33.4628 53.3892 33.5069C55.4456 33.6391 57.4872 34.0063 59.4701 34.5791C60.601 34.9022 61.732 35.3135 62.628 36.0626C63.5239 36.8117 64.1555 37.9867 63.9793 39.147C63.8911 39.7052 63.6414 40.2193 63.5827 40.7774C63.4358 42.0699 64.3465 43.3037 64.2143 44.5963C64.0821 45.8154 63.0833 46.7407 62.672 47.9011C62.4664 48.518 62.4223 49.1642 62.3783 49.8105C62.3048 50.9562 62.1873 52.1312 61.6732 53.1594C61.4236 53.6734 61.071 54.1435 60.8801 54.6869C60.6598 55.3332 60.7038 56.0382 60.5129 56.6992C60.0282 58.4323 58.1922 59.4164 56.4443 59.8424C51.2889 61.1055 45.9571 59.2842 40.6842 58.7261C39.0244 58.5498 37.2765 58.4617 35.8665 57.5951C35.0293 57.081 34.3683 56.3173 33.4871 55.8766C32.5176 55.3919 31.3132 55.3185 30.6082 54.496C29.9326 53.7175 29.9913 52.5571 30.1235 51.5437C30.6963 47.2107 32.0329 42.9365 31.7979 38.5742C31.7539 37.8251 31.6804 37.0467 31.9301 36.3416C32.3561 35.2107 33.443 35.2107 34.4418 34.9904C35.6021 34.7407 36.7478 34.3588 37.6584 33.5803L37.6878 33.5656Z" fill="#FFCFBE"/>
<path d="M31.953 32.141L17.9043 30.7734L15.3968 56.5319L29.4455 57.8994L31.953 32.141Z" fill="#FFBC43"/>
<path d="M15.1689 56.5045L15.1693 56.4998L17.681 30.7371L17.6811 30.7371L17.6818 30.7269C17.6844 30.6935 17.7056 30.6345 17.7704 30.5718C17.8123 30.5422 17.8721 30.5215 17.9505 30.526L31.9992 31.8912L31.9992 31.8913L32.0092 31.8921C32.0426 31.8947 32.1016 31.9158 32.1642 31.9806C32.1939 32.0225 32.2146 32.0824 32.2101 32.1607L29.6997 57.9102C29.683 58.0428 29.5843 58.1251 29.4624 58.1251H29.4624H29.4624H29.4624H29.4624H29.4624H29.4623H29.4623H29.4623H29.4623H29.4623H29.4623H29.4622H29.4622H29.4622H29.4622H29.4621H29.4621H29.4621H29.4621H29.462H29.462H29.462H29.4619H29.4619H29.4619H29.4619H29.4618H29.4618H29.4617H29.4617H29.4617H29.4616H29.4616H29.4616H29.4615H29.4615H29.4614H29.4614H29.4613H29.4613H29.4612H29.4612H29.4611H29.4611H29.461H29.461H29.4609H29.4609H29.4608H29.4608H29.4607H29.4607H29.4606H29.4606H29.4605H29.4604H29.4604H29.4603H29.4603H29.4602H29.4601H29.4601H29.46H29.4599H29.4599H29.4598H29.4597H29.4597H29.4596H29.4595H29.4594H29.4594H29.4593H29.4592H29.4592H29.4591H29.459H29.4589H29.4588H29.4588H29.4587H29.4586H29.4585H29.4584H29.4584H29.4583H29.4582H29.4581H29.458H29.4579H29.4578H29.4578H29.4577H29.4576H29.4575H29.4574H29.4573H29.4572H29.4571H29.457H29.4569H29.4568H29.4567H29.4566H29.4565H29.4564H29.4563H29.4562H29.4561H29.456H29.4559H29.4558H29.4557H29.4556H29.4555H29.4554H29.4553H29.4552H29.4551H29.455H29.4549H29.4548H29.4547H29.4546H29.4544H29.4543H29.4542H29.4541H29.454H29.4539H29.4538H29.4537H29.4535H29.4534H29.4533H29.4532H29.4531H29.4529H29.4528H29.4527H29.4526H29.4525H29.4523H29.4522H29.4521H29.452H29.4518H29.4517H29.4516H29.4515H29.4513H29.4512H29.4511H29.4509H29.4508H29.4507H29.4506H29.4504H29.4503H29.4502H29.45H29.4499H29.4498H29.4496H29.4495H29.4494H29.4492H29.4491H29.4489H29.4488H29.4487H29.4485H29.4484H29.4482H29.4481H29.448H29.4478H29.4477H29.4475H29.4474H29.4472H29.4471H29.447H29.4468H29.4467H29.4465H29.4464H29.4462H29.4461H29.4459H29.4458H29.4456H29.4455H29.4453H29.4452H29.445H29.4449H29.4447H29.4446H29.4444H29.4443H29.4441H29.444H29.4438H29.4436H29.4435H29.4433H29.4432H29.443H29.4429H29.4427H29.4425H29.4424H29.4422H29.4421H29.4419H29.4417H29.4416H29.4414H29.4413H29.4411H29.4409H29.4408H29.4406H29.4404H29.4403H29.4401H29.44H29.4398H29.4396H29.4395H29.4393H29.4391H29.439H29.4388H29.4386H29.4385H29.4383H29.4381H29.4379H29.4378H29.4376H29.4374H29.4373H29.4371H29.4369H29.4367H29.4366H29.4364H29.4362H29.4361H29.4359H29.4357H29.4355H29.4354H29.4352H29.435H29.4348H29.4347H29.4345H29.4343H29.4341H29.434H29.4338H29.4336H29.4334H29.4332H29.4331H29.4329H29.4327H29.4325H29.4323H29.4322H29.432H29.4318H29.4316H29.4314H29.4313H29.4311H29.4309H29.4307H29.4305H29.4304H29.4302H29.43H29.4298H29.4296H29.4294H29.4293H29.4291H29.4289H29.4287H29.4285H29.4283H29.4281H29.428H29.4278H29.4276H29.4274H29.4272H29.427H29.4268H29.4267H29.4265H29.4263H29.4261H29.4259H29.4257H29.4255H29.4253H29.4252H29.425H29.4248H29.4246H29.4244H29.4242H29.424H29.4238H29.4236H29.4235H29.4233H29.4231H29.4229H29.4227H29.4225H29.4223H29.4221H29.4219H29.4217H29.4216H29.4214H29.4212H29.421H29.4208H29.4206H29.4204H29.4202H29.42H29.4198H29.4196H29.4194H29.4193H29.4191H29.4189H29.4187H29.4185H29.4183H29.4181H29.4179H29.4177H29.4175H29.4173H29.4171H29.4169H29.4167H29.4166H29.4164H29.4162H29.416H29.4158H29.4156H29.4154H29.4152H29.415H29.4148H29.4146H29.4144H29.4142H29.414H29.4138H29.4137H29.4135H29.4133H29.4131L15.3853 56.7618C15.2457 56.745 15.1561 56.6234 15.1689 56.5045ZM15.7163 55.8153L15.6678 56.3132L16.1657 56.3614L28.7533 57.5805L29.2507 57.6287L29.2991 57.1313L31.6639 32.8374L31.7124 32.3395L31.2145 32.2913L18.6269 31.0722L18.1294 31.024L18.081 31.5214L15.7163 55.8153Z" fill="#222222" stroke="#222222"/>
<path d="M15.1689 56.5045L15.1693 56.4998L17.681 30.7371L17.6811 30.7371L17.6818 30.7269C17.6844 30.6935 17.7056 30.6345 17.7704 30.5718C17.8123 30.5422 17.8721 30.5215 17.9505 30.526L31.9992 31.8912L31.9992 31.8913L32.0092 31.8921C32.0426 31.8947 32.1016 31.9158 32.1642 31.9806C32.1939 32.0225 32.2146 32.0824 32.2101 32.1607L29.6997 57.9102C29.683 58.0428 29.5843 58.1251 29.4624 58.1251H29.4624H29.4624H29.4624H29.4624H29.4624H29.4623H29.4623H29.4623H29.4623H29.4623H29.4623H29.4622H29.4622H29.4622H29.4622H29.4621H29.4621H29.4621H29.4621H29.462H29.462H29.462H29.4619H29.4619H29.4619H29.4619H29.4618H29.4618H29.4617H29.4617H29.4617H29.4616H29.4616H29.4616H29.4615H29.4615H29.4614H29.4614H29.4613H29.4613H29.4612H29.4612H29.4611H29.4611H29.461H29.461H29.4609H29.4609H29.4608H29.4608H29.4607H29.4607H29.4606H29.4606H29.4605H29.4604H29.4604H29.4603H29.4603H29.4602H29.4601H29.4601H29.46H29.4599H29.4599H29.4598H29.4597H29.4597H29.4596H29.4595H29.4594H29.4594H29.4593H29.4592H29.4592H29.4591H29.459H29.4589H29.4588H29.4588H29.4587H29.4586H29.4585H29.4584H29.4584H29.4583H29.4582H29.4581H29.458H29.4579H29.4578H29.4578H29.4577H29.4576H29.4575H29.4574H29.4573H29.4572H29.4571H29.457H29.4569H29.4568H29.4567H29.4566H29.4565H29.4564H29.4563H29.4562H29.4561H29.456H29.4559H29.4558H29.4557H29.4556H29.4555H29.4554H29.4553H29.4552H29.4551H29.455H29.4549H29.4548H29.4547H29.4546H29.4544H29.4543H29.4542H29.4541H29.454H29.4539H29.4538H29.4537H29.4535H29.4534H29.4533H29.4532H29.4531H29.4529H29.4528H29.4527H29.4526H29.4525H29.4523H29.4522H29.4521H29.452H29.4518H29.4517H29.4516H29.4515H29.4513H29.4512H29.4511H29.4509H29.4508H29.4507H29.4506H29.4504H29.4503H29.4502H29.45H29.4499H29.4498H29.4496H29.4495H29.4494H29.4492H29.4491H29.4489H29.4488H29.4487H29.4485H29.4484H29.4482H29.4481H29.448H29.4478H29.4477H29.4475H29.4474H29.4472H29.4471H29.447H29.4468H29.4467H29.4465H29.4464H29.4462H29.4461H29.4459H29.4458H29.4456H29.4455H29.4453H29.4452H29.445H29.4449H29.4447H29.4446H29.4444H29.4443H29.4441H29.444H29.4438H29.4436H29.4435H29.4433H29.4432H29.443H29.4429H29.4427H29.4425H29.4424H29.4422H29.4421H29.4419H29.4417H29.4416H29.4414H29.4413H29.4411H29.4409H29.4408H29.4406H29.4404H29.4403H29.4401H29.44H29.4398H29.4396H29.4395H29.4393H29.4391H29.439H29.4388H29.4386H29.4385H29.4383H29.4381H29.4379H29.4378H29.4376H29.4374H29.4373H29.4371H29.4369H29.4367H29.4366H29.4364H29.4362H29.4361H29.4359H29.4357H29.4355H29.4354H29.4352H29.435H29.4348H29.4347H29.4345H29.4343H29.4341H29.434H29.4338H29.4336H29.4334H29.4332H29.4331H29.4329H29.4327H29.4325H29.4323H29.4322H29.432H29.4318H29.4316H29.4314H29.4313H29.4311H29.4309H29.4307H29.4305H29.4304H29.4302H29.43H29.4298H29.4296H29.4294H29.4293H29.4291H29.4289H29.4287H29.4285H29.4283H29.4281H29.428H29.4278H29.4276H29.4274H29.4272H29.427H29.4268H29.4267H29.4265H29.4263H29.4261H29.4259H29.4257H29.4255H29.4253H29.4252H29.425H29.4248H29.4246H29.4244H29.4242H29.424H29.4238H29.4236H29.4235H29.4233H29.4231H29.4229H29.4227H29.4225H29.4223H29.4221H29.4219H29.4217H29.4216H29.4214H29.4212H29.421H29.4208H29.4206H29.4204H29.4202H29.42H29.4198H29.4196H29.4194H29.4193H29.4191H29.4189H29.4187H29.4185H29.4183H29.4181H29.4179H29.4177H29.4175H29.4173H29.4171H29.4169H29.4167H29.4166H29.4164H29.4162H29.416H29.4158H29.4156H29.4154H29.4152H29.415H29.4148H29.4146H29.4144H29.4142H29.414H29.4138H29.4137H29.4135H29.4133H29.4131L15.3853 56.7618C15.2457 56.745 15.1561 56.6234 15.1689 56.5045ZM15.7163 55.8153L15.6678 56.3132L16.1657 56.3614L28.7533 57.5805L29.2507 57.6287L29.2991 57.1313L31.6639 32.8374L31.7124 32.3395L31.2145 32.2913L18.6269 31.0722L18.1294 31.024L18.081 31.5214L15.7163 55.8153Z" fill="#222222" stroke="#222222"/>
<path d="M32.5024 35.4292C33.0287 35.4192 33.8707 35.3667 34.7933 35.1638C35.8516 34.931 36.9797 34.508 37.8637 33.758L37.8656 33.7564C38.5714 33.1635 39.4296 32.2495 40.4506 31.1544L40.4517 31.1532L40.488 31.1146C42.049 29.4514 44.0307 27.34 46.1819 25.6932L46.1821 25.6931C47.6186 24.5946 48.5955 23.296 49.4191 22.1929C49.9764 21.445 50.4629 20.8369 50.9451 20.4112C51.4391 19.9751 51.9619 19.7004 52.5877 19.6715L52.6056 19.6707L52.6236 19.6711C53.3735 19.6904 54.3733 20.1438 54.914 21.295L54.9166 21.3007L54.9166 21.3007C55.5486 22.691 56.0107 26.2768 50.1929 33.3242C50.1205 33.4151 50.1254 33.5591 50.2281 33.6519C50.3273 33.7273 50.4772 33.706 50.5477 33.619L50.5505 33.6156C56.5629 26.3221 56.005 22.5498 55.3295 21.0859C54.6826 19.6888 53.4873 19.1875 52.6254 19.1875H52.5814C51.8557 19.1875 51.2769 19.4614 50.7245 19.9368C50.155 20.4269 49.6414 21.1055 49.0452 21.8954C48.2401 22.9786 47.2921 24.2518 45.8927 25.3131C43.7554 26.9442 41.8314 28.9913 40.2343 30.6905C40.1924 30.7351 40.1507 30.7794 40.1093 30.8235C40.109 30.8238 40.1087 30.8241 40.1084 30.8244L39.7441 30.4819C38.76 31.5395 37.9081 32.4354 37.2325 33.0083L32.5024 35.4292ZM32.5024 35.4292L32.4897 35.4165H32.2826H32.2814H32.2802H32.279H32.2778H32.2766H32.2754H32.2742H32.273H32.2718H32.2706H32.2695H32.2683H32.2671H32.2659H32.2647H32.2636H32.2624H32.2612H32.26H32.2589H32.2577H32.2565H32.2553H32.2542H32.253H32.2519H32.2507H32.2495H32.2484H32.2472H32.2461H32.2449H32.2438H32.2426H32.2415H32.2403H32.2392H32.2381H32.2369H32.2358H32.2346H32.2335H32.2324H32.2312H32.2301H32.229H32.2279H32.2267H32.2256H32.2245H32.2234H32.2223H32.2211H32.22H32.2189H32.2178H32.2167H32.2156H32.2145H32.2134H32.2123H32.2112H32.2101H32.209H32.2079H32.2068H32.2057H32.2046H32.2035H32.2025H32.2014H32.2003H32.1992H32.1981H32.1971H32.196H32.1949H32.1938H32.1928H32.1917H32.1906H32.1896H32.1885H32.1875H32.1864H32.1853H32.1843H32.1832H32.1822H32.1811H32.1801H32.179H32.178H32.177H32.1759H32.1749H32.1738H32.1728H32.1718H32.1707H32.1697H32.1687H32.1677H32.1666H32.1656H32.1646H32.1636H32.1626H32.1615H32.1605H32.1595H32.1585H32.1575H32.1565H32.1555H32.1545H32.1535H32.1525H32.1515H32.1505H32.1495H32.1485H32.1475H32.1465H32.1456H32.1446H32.1436H32.1426H32.1416H32.1407H32.1397H32.1387H32.1377H32.1368H32.1358H32.1348H32.1339H32.1329H32.132H32.131H32.13H32.1291H32.1281H32.1272H32.1262H32.1253H32.1244H32.1234H32.1225H32.1215H32.1206H32.1197H32.1187H32.1178H32.1169H32.1159H32.115H32.1141H32.1132H32.1122H32.1113H32.1104H32.1095H32.1086H32.1077H32.1068H32.1059H32.105H32.104H32.1031H32.1022H32.1014H32.1005H32.0996H32.0987H32.0978H32.0969H32.096H32.0951H32.0942H32.0934H32.0925H32.0916H32.0907H32.0899H32.089H32.0881H32.0873H32.0864H32.0855H32.0847H32.0838H32.083H32.0821H32.0812H32.0804H32.0795H32.0787H32.0779H32.077H32.0762H32.0753H32.0745H32.0737H32.0728H32.072H32.0712H32.0703H32.0695H32.0687H32.0679H32.067H32.0662H32.0654H32.0646H32.0638H32.063H32.0622H32.0614H32.0605H32.0597H32.0589H32.0581H32.0574H32.0566H32.0558H32.055H32.0542H32.0534H32.0526H32.0518H32.0511H32.0503H32.0495H32.0487H32.0479H32.0472H32.0464H32.0456H32.0449H32.0441H32.0434H32.0426H32.0418H32.0411H32.0403H32.0396H32.0388H32.0381H32.0373H32.0366H32.0359H32.0351H32.0344H32.0336H32.0329H32.0322H32.0315H32.0307H32.03H32.0293H32.0286H32.0278H32.0271H32.0264H32.0257H32.025H32.0243H32.0236H32.0229H32.0222H32.0215H32.0208H32.0201H32.0194H32.0187H32.018H32.0173H32.0166H32.0159H32.0153H32.0146H32.0139H32.0132H32.0126H32.0119H32.0112H32.0105H32.0099H32.0092H32.0086H32.0079H32.0072H32.0066H32.0059H32.0053H32.0046H32.004H32.0033H32.0027H32.0021H32.0014H32.0008H32.0002H31.9995H31.9989H31.9983H31.9976H31.997H31.9964H31.9958H31.9952H31.9945H31.9939H31.9933H31.9927H31.9921H31.9915H31.9909H31.9903H31.9897H31.9891H31.9885H31.9879H31.9873H31.9867H31.9861H31.9856H31.985H31.9844H31.9838H31.9832H31.9827H31.9821H31.9815H31.981H31.9804H31.9798H31.9793H31.9787H31.9782H31.9776H31.9771H31.9765H31.976H31.9754H31.9749H31.9743H31.9738H31.9732H31.9727H31.9722H31.9716H31.9711H31.9706H31.9701H31.9695H31.969H31.9685H31.968H31.9675H31.967H31.9665H31.966H31.9654H31.9649H31.9644H31.9639H31.9634H31.963H31.9625H31.962H31.9615H31.961H31.9605H31.96H31.9596H31.9591H31.9586H31.9581H31.9577H31.9572H31.9567H31.9563H31.9558H31.9553H31.9549H31.9544H31.954H31.9535H31.9531H31.9526H31.9522H31.9517H31.9513H31.9509H31.9504H31.95H31.9496H31.9491H31.9487H31.9483H31.9479H31.9475H31.947H31.9466H31.9462H31.9458H31.9454H31.945H31.9446H31.9442H31.9438H31.9434H31.943H31.9426H31.9422H31.9418H31.9414H31.941H31.9407H31.9403H31.9399H31.9395H31.9391H31.9388H31.9384H31.938H31.9377H31.9373H31.937H31.9366H31.9362H31.9359H31.9355H31.9352H31.9348H31.9345H31.9342H31.9338H31.9335H31.9332H31.9328H31.9325H31.9322H31.9318H31.9315H31.9312H31.9309H31.9306H31.9302H31.9299H31.9296H31.9293H31.929H31.9287H31.9284H31.9281H31.9278H31.9275H31.9272H31.9269H31.9269L32.5024 35.4292Z" fill="#222222" stroke="#222222"/>
<path d="M57.7574 59.7588C56.833 59.9856 55.836 60.0123 54.9401 60.0345H54.7113H54.7113H54.7113H54.7112H54.7112H54.7112H54.7112H54.7111H54.7111H54.7111H54.711H54.711H54.7109H54.7109H54.7108H54.7108H54.7107H54.7106H54.7106H54.7105H54.7104H54.7104H54.7103H54.7102H54.7101H54.71H54.7099H54.7098H54.7097H54.7096H54.7095H54.7094H54.7093H54.7092H54.7091H54.709H54.7088H54.7087H54.7086H54.7085H54.7083H54.7082H54.708H54.7079H54.7077H54.7076H54.7074H54.7073H54.7071H54.707H54.7068H54.7066H54.7065H54.7063H54.7061H54.7059H54.7058H54.7056H54.7054H54.7052H54.705H54.7048H54.7046H54.7044H54.7042H54.704H54.7038H54.7036H54.7034H54.7032H54.7029H54.7027H54.7025H54.7023H54.702H54.7018H54.7016H54.7013H54.7011H54.7008H54.7006H54.7003H54.7001H54.6998H54.6996H54.6993H54.6991H54.6988H54.6985H54.6983H54.698H54.6977H54.6974H54.6972H54.6969H54.6966H54.6963H54.696H54.6957H54.6954H54.6951H54.6948H54.6945H54.6942H54.6939H54.6936H54.6933H54.693H54.6927H54.6924H54.692H54.6917H54.6914H54.6911H54.6907H54.6904H54.6901H54.6897H54.6894H54.6891H54.6887H54.6884H54.688H54.6877H54.6873H54.687H54.6866H54.6863H54.6859H54.6855H54.6852H54.6848H54.6844H54.6841H54.6837H54.6833H54.6829H54.6826H54.6822H54.6818H54.6814H54.681H54.6806H54.6802H54.6798H54.6795H54.6791H54.6787H54.6783H54.6778H54.6774H54.677H54.6766H54.6762H54.6758H54.6754H54.675H54.6745H54.6741H54.6737H54.6733H54.6728H54.6724H54.672H54.6716H54.6711H54.6707H54.6703H54.6698H54.6694H54.6689H54.6685H54.668H54.6676H54.6671H54.6667H54.6662H54.6658H54.6653H54.6649H54.6644H54.6639H54.6635H54.663H54.6625H54.6621H54.6616H54.6611H54.6607H54.6602H54.6597H54.6592H54.6587H54.6583H54.6578H54.6573H54.6568H54.6563H54.6558H54.6553H54.6549H54.6544H54.6539H54.6534H54.6529H54.6524H54.6519H54.6514H54.6509H54.6504H54.6498H54.6493H54.6488H54.6483H54.6478H54.6473H54.6468H54.6463H54.6457H54.6452H54.6447H54.6442H54.6437H54.6431H54.6426H54.6421H54.6416H54.641H54.6405H54.64H54.6394H54.6389H54.6384H54.6378H54.6373H54.6367H54.6362H54.6357H54.6351H54.6346H54.634H54.6335H54.6329H54.6324H54.6318H54.6313H54.6307H54.6302H54.6296H54.6291H54.6285H54.628H54.6274H54.6268H54.6263H54.6257H54.6252H54.6246H54.624H54.6235H54.6229H54.6223H54.6218H54.6212H54.6206H54.6201H54.6195H54.6189H54.6183H54.6178H54.6172H54.6166H54.616H54.6155H54.6149H54.6143H54.6137H54.6132H54.6126H54.612H54.6114H54.6108H54.6102H54.6097H54.6091H54.6085H54.6079H54.6073H54.6067H54.6061H54.6055H54.6049H54.6044H54.6038H54.6032H54.6026H54.602H54.6014H54.6008H54.6002H54.5996H54.599H54.5984H54.5978H54.5972H54.5966H54.596H54.5954H54.5948H54.5942H54.5936H54.593H54.5924H54.5918H54.5912H54.5906H54.59H54.5894H54.5888H54.5882H54.5876H54.587H54.5863H54.5857H54.5851H54.5845H54.5839H54.5833H54.5827H54.5821H54.5815H54.5809H54.5803H54.5797H54.579H54.5784H54.5778H54.5772H54.5766H54.576H54.5754H54.5748H54.5741H54.5735H54.5729H54.5723H54.5717H54.5711H54.5705H54.5699H54.5692H54.5686H54.568H54.5674H54.5668H54.5662H54.5656H54.5649H54.5643H54.5637H54.5631H54.5625H54.5619H54.5612H54.5606H54.56H54.5594H54.5588H54.5582H54.5576H54.5569H54.5563H54.5557H54.5551H54.5545H54.5539H54.5533H54.5526H54.552H54.5514H54.5508H54.5502H54.5496H54.549H54.5484H54.5477H54.5471H54.5465H54.5459H54.5453H54.5447H54.5441H54.5435H54.5429H54.5422H54.5416H54.541H54.5404H54.5398H54.5392H54.5386H54.538H54.5374H54.5368H54.5362H54.5355H54.5349H54.5343H54.5337H54.5331H54.5325H54.5319H54.5313H54.5307H54.5301H54.5295H54.5289H54.5283H54.5277H54.5271H54.5265H54.5259H54.5253H54.5247H54.5241H54.5235H54.5229H54.5223H54.5217H54.5211H54.5205H54.5199H54.5193H54.5188H54.5182H54.5176H54.517H54.5164H54.5158H54.5152H54.5146H54.514H54.5135H54.5129H54.5123H54.5117H54.5111H54.5105H54.5099H54.5094H54.5088H54.5082H54.5076H54.5071H54.5065H54.5059H54.5053H54.5047H54.5042H54.5036H54.503H54.5025H54.5019H54.5013H54.5008H54.5002H54.4996H54.4991H54.4985H54.4979H54.4974H54.4968H54.4962H54.4957H54.4951H54.4946H54.494H54.4935H54.4929H54.4923H54.4918H54.4912H54.4907H54.4901H54.4896H54.4891H54.4885H54.488H54.4874H54.4869H54.4863H54.4858H54.4853H54.4847H54.4842H54.4837H54.4831H54.4826H54.4821H54.4815H54.481H54.4805H54.4799H54.4794H54.4789H54.4784H54.4778H54.4773H54.4768H54.4763H53.6849C50.577 59.9386 42.6163 59.3545 36.3734 57.7443L36.3731 57.7442C33.8712 57.1009 30.1476 55.1336 29.9812 55.0429L29.9799 55.0422C29.8599 54.9772 29.8157 54.8315 29.8769 54.7137C29.9367 54.5989 30.0718 54.5508 30.2014 54.6182L30.2365 54.6364L30.242 54.6383L30.2558 54.6453L30.3848 54.7111C30.4967 54.7683 30.6572 54.8501 30.8562 54.9498C31.2539 55.1491 31.8057 55.4204 32.432 55.7113C33.6757 56.289 35.245 56.9592 36.4882 57.2872L36.4909 57.2879C43.5999 59.1206 52.8869 59.624 54.6881 59.5804H54.9169H54.9241L54.9312 59.5802L54.9939 59.5784C55.7414 59.5571 56.6311 59.5319 57.4384 59.3643C58.263 59.1932 59.1026 58.8543 59.6153 58.1189C60.2987 57.1438 60.389 56.2188 60.2862 55.5209C60.1926 54.8861 59.9412 54.4464 59.8555 54.3212C59.8204 54.2674 59.8102 54.205 59.8252 54.1401C59.8374 54.0871 59.8837 54.0193 59.9415 53.9813L59.942 53.981L59.9592 53.9703C59.9734 53.9613 59.9928 53.9489 60.0167 53.9329C60.0646 53.901 60.131 53.855 60.2106 53.7953C60.3693 53.6761 60.5831 53.5003 60.8081 53.2702C61.2538 52.8145 61.7693 52.1194 61.9573 51.2068C62.1216 50.4181 62.0586 49.6769 61.9595 49.1395C61.9096 48.8691 61.8496 48.6456 61.8017 48.4874C61.7806 48.4179 61.7619 48.361 61.7474 48.3187V48.3059L61.7117 48.2165C61.6668 48.1042 61.7203 47.9602 61.8454 47.9052L61.8566 47.9002L61.8676 47.8947C61.8626 47.8972 61.9085 47.8754 61.9623 47.8466C62.0184 47.8166 62.0927 47.7743 62.1794 47.7186C62.3526 47.6075 62.5774 47.4415 62.8091 47.2099C63.2753 46.7437 63.7661 46.0132 63.9162 44.9478C64.2517 42.5996 63.2577 41.5389 63.1285 41.4097L63.1225 41.4036L63.1161 41.3977C63.0483 41.3344 63.0238 41.2197 63.0596 41.1348L63.0596 41.1348L63.0619 41.1291C63.6322 39.7266 63.7499 38.3979 63.275 37.3426L63.2748 37.3423C62.866 36.4358 62.0762 35.8145 60.9985 35.4445L60.9967 35.4439C60.2884 35.2039 58.9716 34.9533 57.4369 34.7127C55.8872 34.4698 54.0719 34.2308 52.3389 34.0202C50.6052 33.8096 48.9506 33.6271 47.7212 33.4973C47.1064 33.4323 46.5976 33.3805 46.238 33.3449C46.0583 33.3271 45.9154 33.3133 45.815 33.3039C45.765 33.2993 45.7247 33.2956 45.6953 33.2931L45.6913 33.2928C45.6826 33.292 45.6673 33.2906 45.6505 33.2895C45.5153 33.2696 45.429 33.1508 45.4409 33.0342C45.4526 32.9337 45.5583 32.8191 45.7189 32.8183C45.7827 32.8253 45.9154 32.8388 46.1074 32.8585C47.1164 32.9618 49.7608 33.2326 52.6146 33.5808C54.3497 33.7926 56.1518 34.0318 57.6921 34.2771C59.2462 34.5247 60.4935 34.7725 61.1444 34.9952L61.1465 34.9959C62.3893 35.4147 63.2516 36.1673 63.6846 37.1351L63.686 37.1383C64.1466 38.149 64.1538 39.4488 63.64 40.9068L63.5541 41.1506L63.7034 41.3617C64.0642 41.8718 64.6544 43.0381 64.3802 44.9988C64.1417 46.679 63.1556 47.5981 62.5211 48.0343L62.2286 48.2354L62.322 48.5779C62.4851 49.1758 62.6462 50.1932 62.4178 51.2812L62.4175 51.2831C62.1422 52.6199 61.2576 53.5415 60.6674 54.0218L60.3832 54.2532L60.5183 54.5939C60.8171 55.3476 61.1215 56.7721 60.0011 58.367C59.4704 59.1225 58.6759 59.5334 57.7574 59.7588Z" fill="#222222" stroke="#222222"/>
<path d="M63.2891 41.4531H63.2891H63.2891H63.2891H63.2891H63.2891H63.289H63.289H63.289H63.289H63.289H63.289H63.289H63.289H63.2889H63.2889H63.2889H63.2889H63.2889H63.2889H63.2888H63.2888H63.2888H63.2888H63.2887H63.2887H63.2887H63.2887H63.2886H63.2886H63.2886H63.2885H63.2885H63.2885H63.2884H63.2884H63.2884H63.2883H63.2883H63.2883H63.2882H63.2882H63.2881H63.2881H63.2881H63.288H63.288H63.2879H63.2879H63.2878H63.2878H63.2877H63.2877H63.2876H63.2876H63.2875H63.2875H63.2874H63.2874H63.2873H63.2872H63.2872H63.2871H63.2871H63.287H63.2869H63.2869H63.2868H63.2868H63.2867H63.2866H63.2866H63.2865H63.2864H63.2864H63.2863H63.2862H63.2861H63.2861H63.286H63.2859H63.2859H63.2858H63.2857H63.2856H63.2855H63.2855H63.2854H63.2853H63.2852H63.2851H63.2851H63.285H63.2849H63.2848H63.2847H63.2846H63.2846H63.2845H63.2844H63.2843H63.2842H63.2841H63.284H63.2839H63.2838H63.2837H63.2837H63.2836H63.2835H63.2834H63.2833H63.2832H63.2831H63.283H63.2829H63.2828H63.2827H63.2826H63.2825H63.2824H63.2823H63.2822H63.2821H63.2819H63.2818H63.2817H63.2816H63.2815H63.2814H63.2813H63.2812H63.2811H63.281H63.2809H63.2807H63.2806H63.2805H63.2804H63.2803H63.2802H63.28H63.2799H63.2798H63.2797H63.2796H63.2795H63.2793H63.2792H63.2791H63.279H63.2788H63.2787H63.2786H63.2785H63.2783H63.2782H63.2781H63.278H63.2778H63.2777H63.2776H63.2774H63.2773H63.2772H63.2771H63.2769H63.2768H63.2767H63.2765H63.2764H63.2763H63.2761H63.276H63.2758H63.2757H63.2756H63.2754H63.2753H63.2752H63.275H63.2749H63.2747H63.2746H63.2744H63.2743H63.2742H63.274H63.2739H63.2737H63.2736H63.2734H63.2733H63.2731H63.273H63.2729H63.2727H63.2726H63.2724H63.2723H63.2721H63.272H63.2718H63.2717H63.2715H63.2714H63.2712H63.271H63.2709H63.2707H63.2706H63.2704H63.2703H63.2701H63.27H63.2698H63.2696H63.2695H63.2693H63.2692H63.269H63.2689H63.2687H63.2685H63.2684H63.2682H63.2681H63.2679H63.2677H63.2676H63.2674H63.2672H63.2671H63.2669H63.2667H63.2666H63.2664H63.2662H63.2661H63.2659H63.2657H63.2656H63.2654H63.2652H63.2651H63.2649H63.2647H63.2646H63.2644H63.2642H63.2641H63.2639H63.2637H63.2635H63.2634H63.2632H63.263H63.2629H63.2627H63.2625H63.2623H63.2622H63.262H63.2618H63.2616H63.2615H63.2613H63.2611H63.2609H63.2608H63.2606H63.2604H63.2602H63.26H63.2599H63.2597H63.2595H63.2593H63.2592H63.259H63.2588H63.2586H63.2584H63.2583H63.2581H63.2579H63.2577H63.2575H63.2573H63.2572H63.257H63.2568H63.2566H63.2564H63.2562H63.2561H63.2559H63.2557H63.2555H63.2553H63.2551H63.255H63.2548H63.2546H63.2544H63.2542H63.254H63.2538H63.2537H63.2535H63.2533H63.2531H63.2529H63.2527H63.2525H63.2523H63.2522H63.252H63.2518H63.2516H63.2514H63.2512H63.251H63.2508H63.2507H63.2505H63.2503H63.2501H63.2499H63.2497H63.2495H63.2493H63.2491H63.2489H63.2488H63.2486H63.2484H63.2482H63.248H63.2478H63.2476H63.2474H63.2472H63.247H63.2468H63.2466H63.2465H63.2463H63.2461H63.2459H63.2457H63.2455H63.2453H63.2451H63.2449H63.2447H63.2445H63.2443H63.2441H63.244H63.2438H63.2436H63.2434H63.2432H63.243H63.2428H63.2426H63.2424H63.2422H63.242H63.2418H63.2416H63.2414H63.2412H63.2411H63.2409H63.2407H63.2405H63.2403H63.2401H63.2399H63.2397H63.2396L60.3586 41.1767C60.2139 41.1601 60.13 41.0464 60.1436 40.9195C60.1501 40.8592 60.1807 40.8047 60.2337 40.7628C60.2882 40.7197 60.3546 40.7 60.4126 40.7035L63.3114 40.9817C63.4553 40.9981 63.539 41.1108 63.5265 41.2369C63.5102 41.3703 63.4113 41.4531 63.2891 41.4531Z" fill="#222222" stroke="#222222"/>
<path d="M61.9521 48.3423H61.9521H61.9521H61.9521H61.9521H61.9521H61.9521H61.9521H61.9521H61.9521H61.9521H61.952H61.952H61.952H61.952H61.952H61.952H61.952H61.9519H61.9519H61.9519H61.9519H61.9518H61.9518H61.9518H61.9518H61.9517H61.9517H61.9517H61.9517H61.9516H61.9516H61.9516H61.9515H61.9515H61.9515H61.9514H61.9514H61.9514H61.9513H61.9513H61.9512H61.9512H61.9511H61.9511H61.9511H61.951H61.951H61.9509H61.9509H61.9508H61.9508H61.9507H61.9507H61.9506H61.9506H61.9505H61.9505H61.9504H61.9504H61.9503H61.9502H61.9502H61.9501H61.9501H61.95H61.9499H61.9499H61.9498H61.9497H61.9497H61.9496H61.9495H61.9495H61.9494H61.9493H61.9493H61.9492H61.9491H61.9491H61.949H61.9489H61.9488H61.9488H61.9487H61.9486H61.9485H61.9484H61.9484H61.9483H61.9482H61.9481H61.948H61.948H61.9479H61.9478H61.9477H61.9476H61.9475H61.9474H61.9473H61.9473H61.9472H61.9471H61.947H61.9469H61.9468H61.9467H61.9466H61.9465H61.9464H61.9463H61.9462H61.9461H61.946H61.9459H61.9458H61.9457H61.9456H61.9455H61.9454H61.9453H61.9452H61.9451H61.945H61.9449H61.9448H61.9447H61.9446H61.9445H61.9444H61.9442H61.9441H61.944H61.9439H61.9438H61.9437H61.9436H61.9434H61.9433H61.9432H61.9431H61.943H61.9429H61.9427H61.9426H61.9425H61.9424H61.9423H61.9421H61.942H61.9419H61.9418H61.9416H61.9415H61.9414H61.9413H61.9411H61.941H61.9409H61.9408H61.9406H61.9405H61.9404H61.9402H61.9401H61.94H61.9398H61.9397H61.9396H61.9394H61.9393H61.9392H61.939H61.9389H61.9388H61.9386H61.9385H61.9383H61.9382H61.9381H61.9379H61.9378H61.9376H61.9375H61.9374H61.9372H61.9371H61.9369H61.9368H61.9366H61.9365H61.9363H61.9362H61.9361H61.9359H61.9358H61.9356H61.9355H61.9353H61.9352H61.935H61.9349H61.9347H61.9346H61.9344H61.9343H61.9341H61.9339H61.9338H61.9336H61.9335H61.9333H61.9332H61.933H61.9329H61.9327H61.9325H61.9324H61.9322H61.9321H61.9319H61.9317H61.9316H61.9314H61.9313H61.9311H61.9309H61.9308H61.9306H61.9305H61.9303H61.9301H61.93H61.9298H61.9296H61.9295H61.9293H61.9291H61.929H61.9288H61.9286H61.9285H61.9283H61.9281H61.928H61.9278H61.9276H61.9275H61.9273H61.9271H61.9269H61.9268H61.9266H61.9264H61.9263H61.9261H61.9259H61.9257H61.9256H61.9254H61.9252H61.925H61.9249H61.9247H61.9245H61.9243H61.9242H61.924H61.9238H61.9236H61.9235H61.9233H61.9231H61.9229H61.9227H61.9226H61.9224H61.9222H61.922H61.9218H61.9217H61.9215H61.9213H61.9211H61.9209H61.9208H61.9206H61.9204H61.9202H61.92H61.9199H61.9197H61.9195H61.9193H61.9191H61.9189H61.9188H61.9186H61.9184H61.9182H61.918H61.9178H61.9176H61.9175H61.9173H61.9171H61.9169H61.9167H61.9165H61.9163H61.9162H61.916H61.9158H61.9156H61.9154H61.9152H61.915H61.9148H61.9146H61.9145H61.9143H61.9141H61.9139H61.9137H61.9135H61.9133H61.9131H61.9129H61.9128H61.9126H61.9124H61.9122H61.912H61.9118H61.9116H61.9114H61.9112H61.911H61.9109H61.9107H61.9105H61.9103H61.9101H61.9099H61.9097H61.9095H61.9093H61.9091H61.9089H61.9087H61.9085H61.9084H61.9082H61.908H61.9078H61.9076H61.9074H61.9072H61.907H61.9068H61.9066H61.9064H61.9062H61.906H61.9058H61.9057H61.9055H61.9053H61.9051H61.9049H61.9047H61.9045H61.9043H61.9041H61.9039H61.9037H61.9035H61.9033H61.9032H61.9031L58.7883 48.0366C58.6486 48.0198 58.5589 47.8982 58.5717 47.7793C58.5831 47.6727 58.6817 47.5633 58.8517 47.5644L61.9727 47.8707C62.1117 47.8874 62.2012 48.0078 62.1896 48.1262C62.1732 48.2595 62.0744 48.3423 61.9521 48.3423Z" fill="#222222" stroke="#222222"/>
<path d="M60.0722 54.4077H60.0722H60.0722H60.0722H60.0722H60.0722H60.0722H60.0721H60.0721H60.0721H60.0721H60.0721H60.0721H60.0721H60.0721H60.072H60.072H60.072H60.072H60.072H60.0719H60.0719H60.0719H60.0719H60.0719H60.0718H60.0718H60.0718H60.0717H60.0717H60.0717H60.0717H60.0716H60.0716H60.0716H60.0715H60.0715H60.0714H60.0714H60.0714H60.0713H60.0713H60.0712H60.0712H60.0712H60.0711H60.0711H60.071H60.071H60.0709H60.0709H60.0708H60.0708H60.0707H60.0707H60.0706H60.0706H60.0705H60.0705H60.0704H60.0704H60.0703H60.0702H60.0702H60.0701H60.0701H60.07H60.0699H60.0699H60.0698H60.0697H60.0697H60.0696H60.0695H60.0695H60.0694H60.0693H60.0693H60.0692H60.0691H60.069H60.069H60.0689H60.0688H60.0687H60.0687H60.0686H60.0685H60.0684H60.0683H60.0683H60.0682H60.0681H60.068H60.0679H60.0678H60.0678H60.0677H60.0676H60.0675H60.0674H60.0673H60.0672H60.0671H60.067H60.067H60.0669H60.0668H60.0667H60.0666H60.0665H60.0664H60.0663H60.0662H60.0661H60.066H60.0659H60.0658H60.0657H60.0656H60.0655H60.0654H60.0653H60.0652H60.0651H60.065H60.0648H60.0647H60.0646H60.0645H60.0644H60.0643H60.0642H60.0641H60.064H60.0638H60.0637H60.0636H60.0635H60.0634H60.0633H60.0632H60.063H60.0629H60.0628H60.0627H60.0626H60.0624H60.0623H60.0622H60.0621H60.062H60.0618H60.0617H60.0616H60.0615H60.0613H60.0612H60.0611H60.0609H60.0608H60.0607H60.0606H60.0604H60.0603H60.0602H60.06H60.0599H60.0598H60.0596H60.0595H60.0594H60.0592H60.0591H60.059H60.0588H60.0587H60.0585H60.0584H60.0583H60.0581H60.058H60.0578H60.0577H60.0576H60.0574H60.0573H60.0571H60.057H60.0568H60.0567H60.0566H60.0564H60.0563H60.0561H60.056H60.0558H60.0557H60.0555H60.0554H60.0552H60.0551H60.0549H60.0548H60.0546H60.0545H60.0543H60.0542H60.054H60.0538H60.0537H60.0535H60.0534H60.0532H60.0531H60.0529H60.0528H60.0526H60.0524H60.0523H60.0521H60.052H60.0518H60.0516H60.0515H60.0513H60.0512H60.051H60.0508H60.0507H60.0505H60.0503H60.0502H60.05H60.0499H60.0497H60.0495H60.0494H60.0492H60.049H60.0489H60.0487H60.0485H60.0484H60.0482H60.048H60.0478H60.0477H60.0475H60.0473H60.0472H60.047H60.0468H60.0467H60.0465H60.0463H60.0461H60.046H60.0458H60.0456H60.0454H60.0453H60.0451H60.0449H60.0447H60.0446H60.0444H60.0442H60.044H60.0439H60.0437H60.0435H60.0433H60.0432H60.043H60.0428H60.0426H60.0424H60.0423H60.0421H60.0419H60.0417H60.0415H60.0414H60.0412H60.041H60.0408H60.0406H60.0405H60.0403H60.0401H60.0399H60.0397H60.0395H60.0394H60.0392H60.039H60.0388H60.0386H60.0384H60.0383H60.0381H60.0379H60.0377H60.0375H60.0373H60.0371H60.037H60.0368H60.0366H60.0364H60.0362H60.036H60.0358H60.0356H60.0355H60.0353H60.0351H60.0349H60.0347H60.0345H60.0343H60.0341H60.034H60.0338H60.0336H60.0334H60.0332H60.033H60.0328H60.0326H60.0324H60.0322H60.0321H60.0319H60.0317H60.0315H60.0313H60.0311H60.0309H60.0307H60.0305H60.0303H60.0301H60.03H60.0298H60.0296H60.0294H60.0292H60.029H60.0288H60.0286H60.0284H60.0282H60.028H60.0278H60.0276H60.0275H60.0273H60.0271H60.0269H60.0267H60.0265H60.0263H60.0261H60.0259H60.0257H60.0255H60.0253H60.0251H60.0249H60.0247H60.0246H60.0244H60.0242H60.024H60.0238H60.0236H60.0234H60.0232H60.023H60.0228H60.0227L56.9949 54.1165C56.8502 54.1 56.7662 53.9863 56.7798 53.8593C56.7853 53.808 56.8123 53.7567 56.8701 53.7124C56.9286 53.6674 57.0008 53.6447 57.0605 53.6445L60.0944 53.9363C60.2384 53.9527 60.3222 54.0653 60.3096 54.1915C60.2933 54.3249 60.1945 54.4077 60.0722 54.4077Z" fill="#222222" stroke="#222222"/>
</svg>
