<svg width="24" height="24" viewBox="0 0 24 24" fill="none" xmlns="http://www.w3.org/2000/svg">
<g id="Icon/24">
<path id="Icon" d="M14.6838 14.9487C15.2077 15.1233 15.774 14.8402 15.9487 14.3162C16.1233 13.7923 15.8402 13.226 15.3162 13.0513L14.6838 14.9487ZM12 13H11C11 13.4304 11.2754 13.8126 11.6838 13.9487L12 13ZM13 8.81855C13 8.26627 12.5523 7.81855 12 7.81855C11.4477 7.81855 11 8.26627 11 8.81855H13ZM15.3162 13.0513L12.3162 12.0513L11.6838 13.9487L14.6838 14.9487L15.3162 13.0513ZM13 13V8.81855H11V13H13ZM19 12C19 15.866 15.866 19 12 19V21C16.9706 21 21 16.9706 21 12H19ZM12 19C8.13401 19 5 15.866 5 12H3C3 16.9706 7.02944 21 12 21V19ZM5 12C5 8.13401 8.13401 5 12 5V3C7.02944 3 3 7.02944 3 12H5ZM12 5C15.866 5 19 8.13401 19 12H21C21 7.02944 16.9706 3 12 3V5Z" fill="#222222"/>
</g>
</svg>
