<svg width="80" height="80" viewBox="0 0 80 80" fill="none" xmlns="http://www.w3.org/2000/svg">
<path d="M66.1154 53.6007L56.639 43.5465C56.0777 42.9522 55.4338 42.4734 54.7239 42.1267C55.6649 39.6999 56.1932 37.1244 56.2758 34.4829C56.4574 28.3249 54.2451 22.4806 50.0683 18.0396C45.8584 13.5986 40.1627 11.0396 34.0377 10.858C27.9127 10.6764 22.0684 12.8887 17.6274 17.082C13.1699 21.2919 10.6109 26.9877 10.4293 33.1126C10.2477 39.2376 12.46 45.0819 16.6533 49.5229C20.8467 53.9639 26.5424 56.5064 32.7004 56.688C35.3419 56.7705 37.9504 56.3908 40.4268 55.5984C40.7405 56.3248 41.1697 57.0017 41.731 57.596L51.2074 67.6502C53.0895 69.6478 55.6154 70.787 58.356 70.8695C61.0965 70.9521 63.6885 69.9615 65.6861 68.0794C67.6838 66.1974 68.8229 63.6714 68.9054 60.9309C68.988 58.1903 67.9974 55.5984 66.1154 53.6007ZM32.8325 52.5772C32.7169 52.5772 32.6179 52.5606 32.5023 52.5441C32.6839 52.5441 32.8655 52.5441 33.0636 52.5606C32.9811 52.5606 32.915 52.5606 32.8325 52.5606V52.5772ZM51.6862 45.5607C51.6862 45.5607 51.7357 45.5607 51.7687 45.5607C51.9503 45.5607 52.1319 45.5937 52.3135 45.6267C52.1154 45.5772 51.9008 45.5607 51.7027 45.5607H51.6862Z" fill="#DADADA"/>
<path d="M66.2474 51.7687L56.4904 42.0116C55.9125 41.4338 55.2521 40.9716 54.5422 40.6414C55.4172 38.198 55.863 35.5895 55.863 32.9645C55.863 26.8065 53.4856 21.0283 49.1602 16.7193C44.8347 12.3773 39.073 10 32.9315 10C26.79 10 21.0448 12.3773 16.7193 16.7028C12.3773 21.0448 10 26.8065 10 32.9315C10 39.073 12.3939 44.8347 16.7193 49.1602C21.0448 53.4856 26.8065 55.863 32.981 55.863C35.6225 55.863 38.2145 55.4172 40.6744 54.5422C41.0046 55.2521 41.4668 55.929 42.0282 56.4904L51.7852 66.2474C53.7168 68.179 56.2922 69.2521 59.0328 69.2521C61.7733 69.2521 64.3323 68.179 66.2804 66.2474C68.2285 64.3158 69.2851 61.7403 69.2851 58.9998C69.2851 56.2592 68.212 53.7003 66.2804 51.7522L66.2474 51.7687ZM32.9645 51.7357C32.849 51.7357 32.7499 51.7357 32.6343 51.7357C32.8159 51.7357 33.014 51.7357 33.1956 51.7357C33.1131 51.7357 33.0471 51.7357 32.9645 51.7357ZM51.6036 44.1579C51.6036 44.1579 51.6531 44.1579 51.6861 44.1579C51.8677 44.1579 52.0493 44.1744 52.2309 44.2074C52.0328 44.1579 51.8182 44.1579 51.6201 44.1579H51.6036Z" fill="white"/>
<path d="M32.9314 47.1459C40.7818 47.1459 47.1459 40.7818 47.1459 32.9314C47.1459 25.0809 40.7818 18.7168 32.9314 18.7168C25.0809 18.7168 18.7168 25.0809 18.7168 32.9314C18.7168 40.7818 25.0809 47.1459 32.9314 47.1459Z" fill="#E4FFFF"/>
<path d="M45.66 20.2201C38.627 13.1871 27.2356 13.1871 20.2191 20.2201C13.1861 27.253 13.1861 38.6445 20.2191 45.661C26.3275 51.7694 35.7544 52.5619 42.7378 48.0383L46.6175 51.918L51.917 46.6185L48.0373 42.7388C52.5774 35.7719 51.785 26.345 45.66 20.2201ZM41.3676 41.3685C36.7119 46.0242 29.1671 46.0242 24.5115 41.3685C19.8559 36.7129 19.8559 29.1681 24.5115 24.5125C29.1671 19.8568 36.7119 19.8568 41.3676 24.5125C46.0232 29.1681 46.0232 36.7129 41.3676 41.3685ZM45.66 20.2201C38.627 13.1871 27.2356 13.1871 20.2191 20.2201C13.1861 27.253 13.1861 38.6445 20.2191 45.661C26.3275 51.7694 35.7544 52.5619 42.7378 48.0383L46.6175 51.918L51.917 46.6185L48.0373 42.7388C52.5774 35.7719 51.785 26.345 45.66 20.2201ZM41.3676 41.3685C36.7119 46.0242 29.1671 46.0242 24.5115 41.3685C19.8559 36.7129 19.8559 29.1681 24.5115 24.5125C29.1671 19.8568 36.7119 19.8568 41.3676 24.5125C46.0232 29.1681 46.0232 36.7129 41.3676 41.3685Z" fill="#51DADA"/>
<path d="M46.4118 52.1602L46.403 52.1504L46.3937 52.1411L42.9762 48.7237L42.7004 48.4479L42.3657 48.6483C35.2314 52.9225 25.9243 51.8132 19.9952 45.8841C16.4282 42.3171 14.644 37.6254 14.644 32.9311C14.644 28.2368 16.4282 23.5452 19.9952 19.9781C27.1301 12.8432 38.7663 12.8432 45.9012 19.9781C49.4183 23.4953 51.236 28.2034 51.2524 32.9647C51.2523 36.2118 50.4003 39.4571 48.6656 42.3483L48.4648 42.6831L48.7408 42.9591L52.1582 46.3766C52.2306 46.449 52.2594 46.5369 52.2594 46.6009C52.2594 46.6333 52.2521 46.6766 52.2346 46.7194C52.2173 46.7619 52.1955 46.7907 52.1773 46.807L52.1675 46.8158L52.1582 46.8251L46.8587 52.1246C46.7863 52.197 46.6985 52.2258 46.6345 52.2258H46.5148C46.4717 52.2111 46.4365 52.1877 46.4118 52.1602ZM42.9279 47.7773L42.9367 47.7871L42.946 47.7964L46.2479 51.0983L46.6014 51.4518L46.955 51.0983L51.0823 46.9709L51.4359 46.6174L51.0823 46.2638L47.7805 42.9619C47.7042 42.8857 47.6793 42.8128 47.6793 42.7377C47.6793 42.6902 47.6982 42.6179 47.7335 42.56C49.6359 39.6362 50.5519 36.29 50.5519 32.9806C50.5519 28.4123 48.7859 23.8595 45.404 20.4606L45.4035 20.4601C38.5213 13.5609 27.3082 13.5787 20.4273 20.4597C16.9779 23.909 15.262 28.4295 15.262 32.9476C15.262 37.4648 16.9773 42.0024 20.4277 45.436C26.2887 51.2966 35.5772 52.283 42.5274 47.766C42.5854 47.7306 42.6578 47.7117 42.7052 47.7117H42.8248C42.868 47.7264 42.9032 47.7499 42.9279 47.7773ZM41.1285 24.737L41.1272 24.7356C36.6065 20.2149 29.2569 20.2149 24.7362 24.7356C22.5459 26.9259 21.3374 29.8431 21.3374 32.9311C21.3374 36.0191 22.5459 38.9363 24.7362 41.1266C26.9265 43.3169 29.8437 44.5254 32.9317 44.5254C36.0197 44.5254 38.9369 43.3169 41.1272 41.1266C43.3207 38.9331 44.5095 35.8989 44.5095 32.9311C44.5095 29.9639 43.3707 26.9964 41.1285 24.737ZM32.9317 45.1763C29.7898 45.1763 26.6663 43.9869 24.2711 41.5917C21.874 39.1946 20.6865 36.2023 20.6865 32.9311C20.6865 29.6624 21.9548 26.5868 24.2711 24.2706C29.0452 19.4965 36.8182 19.4965 41.5922 24.2706C43.9713 26.6496 45.1769 29.7897 45.1769 32.9311C45.1769 36.073 43.9875 39.1965 41.5922 41.5917C39.197 43.9869 36.0736 45.1763 32.9317 45.1763Z" fill="#222222" stroke="#222222"/>
<path d="M45.5077 50.3664L50.3523 45.5217C51.0761 44.7979 52.2552 44.7862 52.9906 45.5217L62.75 55.2811C64.8163 57.3473 64.8163 60.6861 62.75 62.7523C60.6837 64.8186 57.345 64.8186 55.2787 62.7523L45.5193 52.993C44.7956 52.2692 44.7839 51.0901 45.5193 50.3547L45.5077 50.3664Z" fill="#A48A7B"/>
<path d="M46.8655 55.1696C46.6509 55.1696 46.4363 55.0871 46.2877 54.922C45.9575 54.5918 45.9575 54.08 46.2877 53.7498L53.7664 46.2711C54.0966 45.9409 54.6084 45.9409 54.9386 46.2711C55.2688 46.6013 55.2688 47.1131 54.9386 47.4432L47.4598 54.922C47.2948 55.0871 47.0801 55.1696 46.882 55.1696H46.8655Z" fill="white"/>
<path d="M45.7211 52.7348L45.7285 52.7428L45.7362 52.7505L55.4932 62.5075C57.3724 64.3867 60.6276 64.3867 62.5069 62.5075C64.3825 60.6319 64.4392 57.4262 62.5069 55.4938L52.7498 45.7368L52.3963 46.0904L52.7498 45.7368C52.4518 45.4388 52.0577 45.2932 51.6699 45.2932C51.282 45.2932 50.8879 45.4388 50.5899 45.7368L45.7362 50.5906C45.4381 50.8886 45.2925 51.2827 45.2925 51.6705C45.2925 52.0763 45.4669 52.4574 45.7211 52.7348ZM59.0165 64.6257C57.5166 64.6257 56.1072 64.0358 55.0435 62.9879C55.043 62.9875 55.0425 62.987 55.0421 62.9866L45.2876 53.2321C44.8673 52.8118 44.6416 52.2777 44.6416 51.687C44.6416 51.0964 44.8673 50.5623 45.2876 50.142L50.1414 45.2883C50.9882 44.4414 52.3721 44.4289 53.2314 45.2883L62.9884 55.0453C65.1696 57.2264 65.1716 60.7899 62.988 62.9895C61.9275 64.0498 60.52 64.6257 59.0165 64.6257Z" fill="#222222" stroke="#222222"/>
<path d="M38.7679 27.1317L38.7591 27.1219L38.7498 27.1127C38.3108 26.6737 37.8042 26.2719 37.2804 25.9398C37.1114 25.828 37.0819 25.6201 37.1641 25.4941L37.1642 25.4941L37.1693 25.4859C37.2635 25.3352 37.4643 25.2875 37.6229 25.3829C38.2001 25.742 38.7306 26.1633 39.2148 26.6476C39.3498 26.7825 39.3498 26.9777 39.2148 27.1127C39.1424 27.185 39.0546 27.2138 38.9906 27.2138H38.9741C38.883 27.2138 38.8101 27.1787 38.7679 27.1317Z" fill="#222222" stroke="#222222"/>
<mask id="path-10-inside-1_602_1988" fill="white">
<path d="M28.3914 26.5267C28.1107 26.5267 27.8466 26.3947 27.698 26.147C27.4503 25.7673 27.5659 25.2555 27.9621 25.0079C29.6626 23.9348 31.7098 23.456 33.7239 23.6046C34.1862 23.6376 34.5163 24.0338 34.4833 24.4961C34.4503 24.9583 34.0211 25.2885 33.5918 25.2555C31.9079 25.1234 30.2404 25.5362 28.8371 26.4112C28.7051 26.4937 28.5565 26.5432 28.3914 26.5432V26.5267Z"/>
</mask>
<path d="M28.3914 26.5267C28.1107 26.5267 27.8466 26.3947 27.698 26.147C27.4503 25.7673 27.5659 25.2555 27.9621 25.0079C29.6626 23.9348 31.7098 23.456 33.7239 23.6046C34.1862 23.6376 34.5163 24.0338 34.4833 24.4961C34.4503 24.9583 34.0211 25.2885 33.5918 25.2555C31.9079 25.1234 30.2404 25.5362 28.8371 26.4112C28.7051 26.4937 28.5565 26.5432 28.3914 26.5432V26.5267Z" fill="#222222"/>
<path d="M28.3914 26.5267H29.3914V25.5267H28.3914V26.5267ZM27.698 26.147L28.5555 25.6325L28.5458 25.6164L28.5356 25.6007L27.698 26.147ZM27.9621 25.0079L28.4921 25.8559L28.4958 25.8536L27.9621 25.0079ZM33.7239 23.6046L33.6503 24.6019L33.6526 24.602L33.7239 23.6046ZM33.5918 25.2555L33.5136 26.2524L33.5151 26.2526L33.5918 25.2555ZM28.8371 26.4112L28.308 25.5626L28.3071 25.5632L28.8371 26.4112ZM28.3914 26.5432H27.3914V27.5432H28.3914V26.5432ZM28.3914 25.5267C28.4072 25.5267 28.4341 25.5305 28.4665 25.5478C28.501 25.5662 28.5336 25.596 28.5555 25.6325L26.8405 26.6615C27.1886 27.2416 27.7975 27.5267 28.3914 27.5267V25.5267ZM28.5356 25.6007C28.603 25.7041 28.5562 25.8158 28.4921 25.8559L27.4321 24.1599C26.5756 24.6952 26.2977 25.8305 26.8604 26.6933L28.5356 25.6007ZM28.4958 25.8536C30.0057 24.9007 31.8381 24.4682 33.6503 24.6019L33.7975 22.6073C31.5815 22.4438 29.3195 22.9688 27.4284 24.1622L28.4958 25.8536ZM33.6526 24.602C33.6087 24.5989 33.5595 24.575 33.526 24.5353C33.4937 24.4972 33.4838 24.4545 33.4859 24.4248L35.4808 24.5673C35.5516 23.5766 34.8304 22.6811 33.7951 22.6071L33.6526 24.602ZM33.4859 24.4248C33.4908 24.3556 33.526 24.3098 33.5498 24.2902C33.5688 24.2745 33.6059 24.2536 33.6685 24.2585L33.5151 26.2526C34.4561 26.3249 35.4054 25.6228 35.4808 24.5673L33.4859 24.4248ZM33.67 24.2586C31.7731 24.1098 29.8928 24.5744 28.308 25.5626L29.3662 27.2597C30.588 26.4979 32.0426 26.1371 33.5136 26.2524L33.67 24.2586ZM28.3071 25.5632C28.308 25.5626 28.3172 25.5571 28.3344 25.5518C28.3524 25.5463 28.3723 25.5432 28.3914 25.5432V27.5432C28.7671 27.5432 29.097 27.428 29.3671 27.2592L28.3071 25.5632ZM29.3914 26.5432V26.5267H27.3914V26.5432H29.3914Z" fill="#222222" mask="url(#path-10-inside-1_602_1988)"/>
<path d="M32.9314 47.1459C40.7818 47.1459 47.1459 40.7818 47.1459 32.9314C47.1459 25.0809 40.7818 18.7168 32.9314 18.7168C25.0809 18.7168 18.7168 25.0809 18.7168 32.9314C18.7168 40.7818 25.0809 47.1459 32.9314 47.1459Z" fill="#E4FFFF"/>
<path d="M45.66 20.2201C38.627 13.1871 27.2356 13.1871 20.2191 20.2201C13.1861 27.253 13.1861 38.6445 20.2191 45.661C26.3275 51.7694 35.7544 52.5619 42.7378 48.0383L46.6175 51.918L51.917 46.6185L48.0373 42.7388C52.5774 35.7719 51.785 26.345 45.66 20.2201ZM41.3676 41.3685C36.7119 46.0242 29.1671 46.0242 24.5115 41.3685C19.8559 36.7129 19.8559 29.1681 24.5115 24.5125C29.1671 19.8568 36.7119 19.8568 41.3676 24.5125C46.0232 29.1681 46.0232 36.7129 41.3676 41.3685ZM45.66 20.2201C38.627 13.1871 27.2356 13.1871 20.2191 20.2201C13.1861 27.253 13.1861 38.6445 20.2191 45.661C26.3275 51.7694 35.7544 52.5619 42.7378 48.0383L46.6175 51.918L51.917 46.6185L48.0373 42.7388C52.5774 35.7719 51.785 26.345 45.66 20.2201ZM41.3676 41.3685C36.7119 46.0242 29.1671 46.0242 24.5115 41.3685C19.8559 36.7129 19.8559 29.1681 24.5115 24.5125C29.1671 19.8568 36.7119 19.8568 41.3676 24.5125C46.0232 29.1681 46.0232 36.7129 41.3676 41.3685Z" fill="#51DADA"/>
<path d="M46.4118 52.1602L46.403 52.1504L46.3937 52.1411L42.9762 48.7237L42.7004 48.4479L42.3657 48.6483C35.2314 52.9225 25.9243 51.8132 19.9952 45.8841C16.4282 42.3171 14.644 37.6254 14.644 32.9311C14.644 28.2368 16.4282 23.5452 19.9952 19.9781C27.1301 12.8432 38.7663 12.8432 45.9012 19.9781C49.4183 23.4953 51.236 28.2034 51.2524 32.9647C51.2523 36.2118 50.4003 39.4571 48.6656 42.3483L48.4648 42.6831L48.7408 42.9591L52.1582 46.3766C52.2306 46.449 52.2594 46.5369 52.2594 46.6009C52.2594 46.6333 52.2521 46.6766 52.2346 46.7194C52.2173 46.7619 52.1955 46.7907 52.1773 46.807L52.1675 46.8158L52.1582 46.8251L46.8587 52.1246C46.7863 52.197 46.6985 52.2258 46.6345 52.2258H46.5148C46.4717 52.2111 46.4365 52.1877 46.4118 52.1602ZM42.9279 47.7773L42.9367 47.7871L42.946 47.7964L46.2479 51.0983L46.6014 51.4518L46.955 51.0983L51.0823 46.9709L51.4359 46.6174L51.0823 46.2638L47.7805 42.9619C47.7042 42.8857 47.6793 42.8128 47.6793 42.7377C47.6793 42.6902 47.6982 42.6179 47.7335 42.56C49.6359 39.6362 50.5519 36.29 50.5519 32.9806C50.5519 28.4123 48.7859 23.8595 45.404 20.4606L45.4035 20.4601C38.5213 13.5609 27.3082 13.5787 20.4273 20.4597C16.9779 23.909 15.262 28.4295 15.262 32.9476C15.262 37.4648 16.9773 42.0024 20.4277 45.436C26.2887 51.2966 35.5772 52.283 42.5274 47.766C42.5854 47.7306 42.6578 47.7117 42.7052 47.7117H42.8248C42.868 47.7264 42.9032 47.7499 42.9279 47.7773ZM41.1285 24.737L41.1272 24.7356C36.6065 20.2149 29.2569 20.2149 24.7362 24.7356C22.5459 26.9259 21.3374 29.8431 21.3374 32.9311C21.3374 36.0191 22.5459 38.9363 24.7362 41.1266C26.9265 43.3169 29.8437 44.5254 32.9317 44.5254C36.0197 44.5254 38.9369 43.3169 41.1272 41.1266C43.3207 38.9331 44.5095 35.8989 44.5095 32.9311C44.5095 29.9639 43.3707 26.9964 41.1285 24.737ZM32.9317 45.1763C29.7898 45.1763 26.6663 43.9869 24.2711 41.5917C21.874 39.1946 20.6865 36.2023 20.6865 32.9311C20.6865 29.6624 21.9548 26.5868 24.2711 24.2706C29.0452 19.4965 36.8182 19.4965 41.5922 24.2706C43.9713 26.6496 45.1769 29.7897 45.1769 32.9311C45.1769 36.073 43.9875 39.1965 41.5922 41.5917C39.197 43.9869 36.0736 45.1763 32.9317 45.1763Z" fill="#222222" stroke="#222222"/>
<path d="M45.5077 50.3664L50.3523 45.5217C51.0761 44.7979 52.2552 44.7862 52.9906 45.5217L62.75 55.2811C64.8163 57.3473 64.8163 60.6861 62.75 62.7523C60.6837 64.8186 57.345 64.8186 55.2787 62.7523L45.5193 52.993C44.7956 52.2692 44.7839 51.0901 45.5193 50.3547L45.5077 50.3664Z" fill="#A48A7B"/>
<path d="M46.8655 55.1696C46.6509 55.1696 46.4363 55.0871 46.2877 54.922C45.9575 54.5918 45.9575 54.08 46.2877 53.7498L53.7664 46.2711C54.0966 45.9409 54.6084 45.9409 54.9386 46.2711C55.2688 46.6013 55.2688 47.1131 54.9386 47.4432L47.4598 54.922C47.2948 55.0871 47.0801 55.1696 46.882 55.1696H46.8655Z" fill="white"/>
<path d="M45.7211 52.7348L45.7285 52.7428L45.7362 52.7505L55.4932 62.5075C57.3724 64.3867 60.6276 64.3867 62.5069 62.5075C64.3825 60.6319 64.4392 57.4262 62.5069 55.4938L52.7498 45.7368L52.3963 46.0904L52.7498 45.7368C52.4518 45.4388 52.0577 45.2932 51.6699 45.2932C51.282 45.2932 50.8879 45.4388 50.5899 45.7368L45.7362 50.5906C45.4381 50.8886 45.2925 51.2827 45.2925 51.6705C45.2925 52.0763 45.4669 52.4574 45.7211 52.7348ZM59.0165 64.6257C57.5166 64.6257 56.1072 64.0358 55.0435 62.9879C55.043 62.9875 55.0425 62.987 55.0421 62.9866L45.2876 53.2321C44.8673 52.8118 44.6416 52.2777 44.6416 51.687C44.6416 51.0964 44.8673 50.5623 45.2876 50.142L50.1414 45.2883C50.9882 44.4414 52.3721 44.4289 53.2314 45.2883L62.9884 55.0453C65.1696 57.2264 65.1716 60.7899 62.988 62.9895C61.9275 64.0498 60.52 64.6257 59.0165 64.6257Z" fill="#222222" stroke="#222222"/>
<path d="M38.7679 27.1317L38.7591 27.1219L38.7498 27.1127C38.3108 26.6737 37.8042 26.2719 37.2804 25.9398C37.1114 25.828 37.0819 25.6201 37.1641 25.4941L37.1642 25.4941L37.1693 25.4859C37.2635 25.3352 37.4643 25.2875 37.6229 25.3829C38.2001 25.742 38.7306 26.1633 39.2148 26.6476C39.3498 26.7825 39.3498 26.9777 39.2148 27.1127C39.1424 27.185 39.0546 27.2138 38.9906 27.2138H38.9741C38.883 27.2138 38.8101 27.1787 38.7679 27.1317Z" fill="#222222" stroke="#222222"/>
<mask id="path-19-inside-2_602_1988" fill="white">
<path d="M28.3914 26.5267C28.1107 26.5267 27.8466 26.3947 27.698 26.147C27.4503 25.7673 27.5659 25.2555 27.9621 25.0079C29.6626 23.9348 31.7098 23.456 33.7239 23.6046C34.1862 23.6376 34.5163 24.0338 34.4833 24.4961C34.4503 24.9583 34.0211 25.2885 33.5918 25.2555C31.9079 25.1234 30.2404 25.5362 28.8371 26.4112C28.7051 26.4937 28.5565 26.5432 28.3914 26.5432V26.5267Z"/>
</mask>
<path d="M28.3914 26.5267C28.1107 26.5267 27.8466 26.3947 27.698 26.147C27.4503 25.7673 27.5659 25.2555 27.9621 25.0079C29.6626 23.9348 31.7098 23.456 33.7239 23.6046C34.1862 23.6376 34.5163 24.0338 34.4833 24.4961C34.4503 24.9583 34.0211 25.2885 33.5918 25.2555C31.9079 25.1234 30.2404 25.5362 28.8371 26.4112C28.7051 26.4937 28.5565 26.5432 28.3914 26.5432V26.5267Z" fill="#222222"/>
<path d="M28.3914 26.5267H29.3914V25.5267H28.3914V26.5267ZM27.698 26.147L28.5555 25.6325L28.5458 25.6164L28.5356 25.6007L27.698 26.147ZM27.9621 25.0079L28.4921 25.8559L28.4958 25.8536L27.9621 25.0079ZM33.7239 23.6046L33.6503 24.6019L33.6526 24.602L33.7239 23.6046ZM33.5918 25.2555L33.5136 26.2524L33.5151 26.2526L33.5918 25.2555ZM28.8371 26.4112L28.308 25.5626L28.3071 25.5632L28.8371 26.4112ZM28.3914 26.5432H27.3914V27.5432H28.3914V26.5432ZM28.3914 25.5267C28.4072 25.5267 28.4341 25.5305 28.4665 25.5478C28.501 25.5662 28.5336 25.596 28.5555 25.6325L26.8405 26.6615C27.1886 27.2416 27.7975 27.5267 28.3914 27.5267V25.5267ZM28.5356 25.6007C28.603 25.7041 28.5562 25.8158 28.4921 25.8559L27.4321 24.1599C26.5756 24.6952 26.2977 25.8305 26.8604 26.6933L28.5356 25.6007ZM28.4958 25.8536C30.0057 24.9007 31.8381 24.4682 33.6503 24.6019L33.7975 22.6073C31.5815 22.4438 29.3195 22.9688 27.4284 24.1622L28.4958 25.8536ZM33.6526 24.602C33.6087 24.5989 33.5595 24.575 33.526 24.5353C33.4937 24.4972 33.4838 24.4545 33.4859 24.4248L35.4808 24.5673C35.5516 23.5766 34.8304 22.6811 33.7951 22.6071L33.6526 24.602ZM33.4859 24.4248C33.4908 24.3556 33.526 24.3098 33.5498 24.2902C33.5688 24.2745 33.6059 24.2536 33.6685 24.2585L33.5151 26.2526C34.4561 26.3249 35.4054 25.6228 35.4808 24.5673L33.4859 24.4248ZM33.67 24.2586C31.7731 24.1098 29.8928 24.5744 28.308 25.5626L29.3662 27.2597C30.588 26.4979 32.0426 26.1371 33.5136 26.2524L33.67 24.2586ZM28.3071 25.5632C28.308 25.5626 28.3172 25.5571 28.3344 25.5518C28.3524 25.5463 28.3723 25.5432 28.3914 25.5432V27.5432C28.7671 27.5432 29.097 27.428 29.3671 27.2592L28.3071 25.5632ZM29.3914 26.5432V26.5267H27.3914V26.5432H29.3914Z" fill="#222222" mask="url(#path-19-inside-2_602_1988)"/>
</svg>
