<svg width="80" height="80" viewBox="0 0 80 80" fill="none" xmlns="http://www.w3.org/2000/svg">
<path d="M66.1542 54.6322C69.0388 52.638 70.6703 49.1327 70.1364 45.4981C69.4179 40.4917 64.8832 36.9601 59.9209 37.3959L57.5135 20.7774C56.928 16.7821 53.2169 14.0005 49.2216 14.586L24.8413 18.1117C20.8461 18.6972 18.0645 22.4084 18.65 26.4036L21.0574 43.0222C16.1676 44.0215 12.8247 48.6833 13.5577 53.6882C14.0771 57.3243 16.6422 60.2088 19.9622 61.3176C18.7805 62.2148 18.1003 63.7193 18.3218 65.307C18.661 67.6146 20.8026 69.2249 23.1247 68.8843L28.9525 68.0376L59.4343 63.6225L65.2621 62.7758C67.5697 62.4366 69.18 60.295 68.8394 57.9729C68.6049 56.4011 67.5395 55.1489 66.1383 54.6192L66.1542 54.6322Z" fill="#DADADA"/>
<path d="M64.7145 53.727C67.7659 51.789 69.5987 48.2483 69.2123 44.4815C68.6803 39.2949 64.1723 35.4531 59.0284 35.688L57.2614 18.4621C56.8364 14.3186 53.1145 11.2892 48.9855 11.7127L23.6899 14.3075C19.5464 14.7325 16.5315 18.453 16.9565 22.5965L18.725 39.8369C13.6406 40.6512 10.0064 45.3282 10.5385 50.5148C10.9249 54.2816 13.4383 57.3764 16.8196 58.6546C15.5625 59.5302 14.7969 61.0581 14.9648 62.6953C15.21 65.0857 17.3665 66.8409 19.757 66.5957L63.4665 62.1121C65.857 61.8669 67.6122 59.7104 67.367 57.3199C67.199 55.6828 66.1407 54.3567 64.7305 53.74L64.7145 53.727Z" fill="white"/>
<path d="M23.5116 43.8242L25.3365 61.6151L56.9488 58.3724L52.9006 18.9078C52.7207 17.1548 51.1568 15.8951 49.4183 16.0734L24.1372 18.6667C22.3842 18.8465 21.1245 20.4105 21.3028 22.149L23.5261 43.8227" fill="#CBBBA0"/>
<path d="M56.9892 58.5961L56.9849 58.5839L26.5945 61.7013L26.5479 61.2473L56.1995 58.2057L56.6969 58.1547L56.6459 57.6573L52.6735 18.9316C52.5073 17.3114 51.0494 16.1214 49.4399 16.2865L24.1589 18.8797C22.533 19.0465 21.3637 20.508 21.5297 22.1262L25.4511 60.3546L24.9826 60.4026L21.0612 22.1743C20.8692 20.3024 22.2307 18.6188 24.0978 18.4272L49.3789 15.8339C51.246 15.6424 52.9209 17.0146 53.113 18.8865L57.1612 58.3511C57.1735 58.4711 57.1021 58.5701 56.9892 58.5961ZM25.1079 61.6244L25.0082 60.652L25.6694 61.1902L25.6854 61.2032L26.3306 61.7284L25.3582 61.8281C25.2273 61.8416 25.1214 61.7554 25.1079 61.6244Z" fill="#222222" stroke="#222222"/>
<path d="M48.5011 59.2251L47.3286 47.7943L32.6235 49.3027L33.7827 60.6032" fill="#5981FF"/>
<path d="M56.9892 58.5961L56.9849 58.5839L26.5945 61.7013L26.5479 61.2473L56.1995 58.2057L56.6969 58.1547L56.6459 57.6573L52.6735 18.9316C52.5073 17.3114 51.0494 16.1214 49.4399 16.2865L24.1589 18.8797C22.533 19.0465 21.3637 20.508 21.5297 22.1262L25.4511 60.3546L24.9826 60.4026L21.0612 22.1743C20.8692 20.3024 22.2307 18.6188 24.0978 18.4272L49.3789 15.8339C51.246 15.6424 52.9209 17.0146 53.113 18.8865L57.1612 58.3511C57.1735 58.4711 57.1021 58.5701 56.9892 58.5961ZM25.1079 61.6244L25.0082 60.652L25.6694 61.1902L25.6854 61.2032L26.3306 61.7284L25.3582 61.8281C25.2273 61.8416 25.1214 61.7554 25.1079 61.6244Z" fill="#222222" stroke="#222222"/>
<path d="M47.1758 48.5417L47.1247 48.0443L46.6273 48.0953L33.3711 49.4551L32.8737 49.5061L32.9247 50.0035L34.0081 60.5651C34.0215 60.696 33.9353 60.8019 33.8044 60.8154C33.6734 60.8288 33.5675 60.7426 33.5541 60.6117L32.3964 49.3257C32.383 49.1948 32.4692 49.0889 32.6001 49.0754L47.3052 47.567C47.4361 47.5536 47.542 47.6398 47.5554 47.7707L48.728 59.2015C48.7414 59.3325 48.6552 59.4384 48.5243 59.4518C48.3933 59.4653 48.2874 59.3791 48.274 59.2481L47.1758 48.5417Z" fill="#222222" stroke="#222222"/>
<path d="M31.4765 25.1325L27.2461 25.5664L27.9624 32.5495L32.1928 32.1155L31.4765 25.1325Z" fill="#73D8FF"/>
<path d="M28.1164 31.8171L28.1674 32.3145L28.6648 32.2635L31.4465 31.9782L31.9439 31.9272L31.8929 31.4298L31.3252 25.8954L31.2741 25.3981L30.7767 25.4491L27.9951 25.7344L27.4977 25.7854L27.5487 26.2828L28.1164 31.8171ZM32.2174 32.3579L27.987 32.7918C27.8561 32.8052 27.7502 32.7191 27.7367 32.5881L27.0204 25.605C27.007 25.4741 27.0932 25.3682 27.2241 25.3547L31.4546 24.9208C31.5855 24.9073 31.6914 24.9935 31.7048 25.1245L32.4212 32.1076C32.4346 32.2385 32.3484 32.3444 32.2174 32.3579Z" fill="#222222" stroke="#222222"/>
<path d="M39.6186 24.2965L35.3882 24.7305L36.1045 31.7136L40.3349 31.2796L39.6186 24.2965Z" fill="#73D8FF"/>
<path d="M36.2587 30.9807L36.3097 31.4781L36.8071 31.4271L39.5887 31.1418L40.0861 31.0907L40.0351 30.5934L39.4674 25.059L39.4164 24.5616L38.919 24.6127L36.1373 24.898L35.64 24.949L35.691 25.4464L36.2587 30.9807ZM40.3742 31.52L36.1438 31.9539C36.0128 31.9674 35.9069 31.8812 35.8935 31.7502L35.1772 24.7671C35.1637 24.6362 35.2499 24.5303 35.3809 24.5168L39.6113 24.0829C39.7423 24.0695 39.8481 24.1556 39.8616 24.2866L40.5779 31.2697C40.5913 31.4006 40.5051 31.5065 40.3742 31.52Z" fill="#222222" stroke="#222222"/>
<path d="M47.7749 23.4606L43.5444 23.8945L44.2607 30.8776L48.4912 30.4437L47.7749 23.4606Z" fill="#73D8FF"/>
<path d="M44.4153 30.1453L44.4663 30.6427L44.9637 30.5916L47.7453 30.3063L48.2427 30.2553L48.1917 29.7579L47.624 24.2236L47.573 23.7262L47.0756 23.7772L44.2939 24.0625L43.7965 24.1136L43.8476 24.6109L44.4153 30.1453ZM48.5163 30.686L44.2858 31.1199C44.1549 31.1334 44.049 31.0472 44.0356 30.9162L43.3193 23.9331C43.3058 23.8022 43.392 23.6963 43.523 23.6828L47.7534 23.2489C47.8843 23.2355 47.9902 23.3217 48.0037 23.4526L48.72 30.4357C48.7334 30.5667 48.6472 30.6726 48.5163 30.686Z" fill="#222222" stroke="#222222"/>
<path d="M32.6176 36.2594L28.3872 36.6934L29.1035 43.6764L33.3339 43.2425L32.6176 36.2594Z" fill="#73D8FF"/>
<path d="M29.2561 42.9285L29.3071 43.4259L29.8045 43.3748L32.5861 43.0895L33.0835 43.0385L33.0325 42.5411L32.4648 37.0068L32.4138 36.5094L31.9164 36.5604L29.1347 36.8457L28.6374 36.8968L28.6884 37.3942L29.2561 42.9285ZM33.3571 43.4692L29.1267 43.9031C28.9957 43.9166 28.8898 43.8304 28.8764 43.6994L28.1601 36.7163C28.1466 36.5854 28.2328 36.4795 28.3638 36.4661L32.5942 36.0321C32.7252 36.0187 32.8311 36.1049 32.8445 36.2358L33.5608 43.2189C33.5742 43.3499 33.488 43.4558 33.3571 43.4692Z" fill="#222222" stroke="#222222"/>
<path d="M40.7597 35.4235L36.5293 35.8574L37.2456 42.8405L41.476 42.4066L40.7597 35.4235Z" fill="#73D8FF"/>
<path d="M37.3983 42.094L37.4493 42.5914L37.9467 42.5404L40.7284 42.255L41.2258 42.204L41.1748 41.7066L40.6071 36.1723L40.556 35.6749L40.0586 35.726L37.277 36.0113L36.7796 36.0623L36.8306 36.5597L37.3983 42.094ZM41.5138 42.6332L37.2834 43.0672C37.1525 43.0806 37.0466 42.9944 37.0331 42.8635L36.3168 35.8804C36.3034 35.7494 36.3896 35.6435 36.5205 35.6301L40.7509 35.1962C40.8819 35.1827 40.9878 35.2689 41.0012 35.3999L41.7175 42.383C41.731 42.5139 41.6448 42.6198 41.5138 42.6332Z" fill="#222222" stroke="#222222"/>
<path d="M48.9165 34.5875L44.686 35.0215L45.4023 42.0046L49.6328 41.5706L48.9165 34.5875Z" fill="#73D8FF"/>
<path d="M45.5549 41.2566L45.6059 41.754L46.1033 41.703L48.885 41.4176L49.3823 41.3666L49.3313 40.8692L48.7636 35.3349L48.7126 34.8375L48.2152 34.8885L45.4336 35.1739L44.9362 35.2249L44.9872 35.7223L45.5549 41.2566ZM49.6559 41.7973L45.4255 42.2313C45.2945 42.2447 45.1886 42.1585 45.1752 42.0275L44.4589 35.0445C44.4455 34.9135 44.5317 34.8076 44.6626 34.7942L48.893 34.3602C49.024 34.3468 49.1299 34.433 49.1433 34.5639L49.8596 41.547C49.8731 41.678 49.7869 41.7839 49.6559 41.7973Z" fill="#222222" stroke="#222222"/>
<path d="M21.577 62.2163C21.4461 62.2297 21.3402 62.1435 21.3268 62.0126L20.5986 54.9136C20.5851 54.7826 20.6713 54.6768 20.8023 54.6633C20.9332 54.6499 21.0391 54.7361 21.0525 54.867L21.7807 61.966C21.7942 62.097 21.708 62.2029 21.577 62.2163Z" fill="#222222" stroke="#222222"/>
<path d="M20.827 54.9039C23.8115 54.5978 25.9828 51.9302 25.6766 48.9457C25.3705 45.9612 22.7029 43.7899 19.7184 44.0961C16.7339 44.4022 14.5626 47.0698 14.8688 50.0543C15.1749 53.0388 17.8425 55.2101 20.827 54.9039Z" fill="#00B99E"/>
<path d="M20.8502 55.1326C17.7492 55.4506 14.9597 53.1802 14.6416 50.0792C14.3236 46.9783 16.594 44.1888 19.695 43.8707C22.7959 43.5526 25.5854 45.8231 25.9035 48.924C26.2216 52.025 23.9511 54.8145 20.8502 55.1326ZM19.7415 44.3247C16.888 44.6174 14.8029 47.1792 15.0956 50.0327C15.3883 52.8862 17.9501 54.9713 20.8036 54.6786C23.6571 54.3859 25.7422 51.8241 25.4495 48.9706C25.1568 46.1171 22.595 44.032 19.7415 44.3247Z" fill="#222222" stroke="#222222"/>
<path d="M60.7665 58.1968C60.6355 58.2102 60.5296 58.124 60.5162 57.9931L59.788 50.8941C59.7746 50.7631 59.8608 50.6572 59.9917 50.6438C60.1227 50.6304 60.2286 50.7165 60.242 50.8475L60.9702 57.9465C60.9836 58.0774 60.8974 58.1833 60.7665 58.1968Z" fill="#222222" stroke="#222222"/>
<path d="M60.0165 50.8844C63.001 50.5782 65.1722 47.9106 64.8661 44.9261C64.5599 41.9416 61.8923 39.7704 58.9078 40.0765C55.9233 40.3827 53.7521 43.0503 54.0582 46.0348C54.3644 49.0193 57.032 51.1905 60.0165 50.8844Z" fill="#00B99E"/>
<path d="M60.0396 51.1111C56.9387 51.4292 54.1492 49.1587 53.8311 46.0578C53.513 42.9568 55.7835 40.1673 58.8844 39.8492C61.9854 39.5311 64.7749 41.8016 65.0929 44.9025C65.411 48.0035 63.1406 50.793 60.0396 51.1111ZM58.931 40.3032C56.0775 40.5959 53.9924 43.1577 54.2851 46.0112C54.5778 48.8647 57.1395 50.9498 59.9931 50.6571C62.8466 50.3644 64.9317 47.8026 64.6389 44.9491C64.3462 42.0956 61.7845 40.0105 58.931 40.3032Z" fill="#222222" stroke="#222222"/>
<path d="M25.3585 61.8277L19.3171 62.4474C19.1861 62.4608 19.0802 62.3746 19.0668 62.2437C19.0534 62.1127 19.1396 62.0068 19.2705 61.9934L25.3119 61.3737C25.4429 61.3602 25.5488 61.4464 25.5622 61.5774C25.5756 61.7083 25.4894 61.8142 25.3585 61.8277Z" fill="#222222" stroke="#222222"/>
<path d="M63.0264 57.9644L56.9851 58.5841C56.8541 58.5975 56.7482 58.5113 56.7348 58.3804C56.7213 58.2494 56.8075 58.1435 56.9385 58.1301L62.9799 57.5104C63.1108 57.497 63.2167 57.5832 63.2302 57.7141C63.2436 57.8451 63.1574 57.951 63.0264 57.9644Z" fill="#222222" stroke="#222222"/>
<path d="M41.1645 60.2063C41.0335 60.2198 40.9276 60.1336 40.9142 60.0026L39.7416 48.5718C39.7282 48.4408 39.8144 48.335 39.9453 48.3215C40.0763 48.3081 40.1822 48.3943 40.1956 48.5252L41.3682 59.9561C41.3816 60.087 41.2954 60.1929 41.1645 60.2063Z" fill="#222222" stroke="#222222"/>
</svg>
