<svg width="32" height="32" viewBox="0 0 32 32" fill="none" xmlns="http://www.w3.org/2000/svg">
<path d="M14.7999 25.6003H8.79989C7.47441 25.6003 6.39989 24.5258 6.3999 23.2003L6.4 8.80038C6.4 7.4749 7.47452 6.40039 8.79999 6.40039H19.6003C20.9257 6.40039 22.0003 7.47491 22.0003 8.80039V13.6004M21.3999 21.3494V21.2862M10.6003 11.2004H17.8003M10.6003 14.8004H17.8003M10.6003 18.4004H14.2003M25.5999 21.4004C25.5999 21.4004 24.6037 24.3401 21.3999 24.2887C18.1961 24.2374 17.1999 21.4004 17.1999 21.4004C17.1999 21.4004 18.1557 18.4094 21.3999 18.4094C24.6441 18.4094 25.5999 21.4004 25.5999 21.4004Z" stroke="#A4A4A4" stroke-width="2" stroke-linecap="round" stroke-linejoin="round"/>
</svg>
