<svg width="80" height="80" viewBox="0 0 80 80" fill="none" xmlns="http://www.w3.org/2000/svg">
<path d="M60.7632 15.9298L21.154 13.8104C16.1286 13.5375 11.8257 17.4229 11.5528 22.4483L10.1078 49.5823C9.83484 54.6077 13.7203 58.9106 18.7457 59.1836L23.1128 59.4083C22.9202 59.9703 22.8078 60.5804 22.7757 61.2066C22.583 64.9475 25.4569 68.1586 29.214 68.3513L47.0036 69.2986C50.7445 69.4913 53.9556 66.6173 54.1483 62.8603C54.1804 62.2341 54.1322 61.624 54.0038 61.0299L58.3709 61.2547C63.3963 61.5277 67.6992 57.6422 67.9722 52.6168L69.4172 25.4828C69.6901 20.4574 65.8047 16.1545 60.7793 15.8816L60.7632 15.9298Z" fill="#DADADA"/>
<path d="M61.5658 14.2279L21.2341 11.0328C16.1284 10.6315 11.6329 14.4527 11.2154 19.5744L9.03187 47.2061C8.63048 52.3279 12.4517 56.8074 17.5734 57.2248L22.0208 57.578C21.8121 58.156 21.6676 58.7661 21.6195 59.4084C21.3144 63.2135 24.1723 66.5692 27.9775 66.8742L46.0882 68.3192C49.8934 68.6243 53.249 65.7664 53.5541 61.9612C53.6022 61.319 53.5541 60.6928 53.4577 60.0988L57.9051 60.452C63.0269 60.8534 67.5224 57.0321 67.9238 51.9104L70.1234 24.2787C70.5248 19.157 66.7036 14.6775 61.5819 14.26L61.5658 14.2279Z" fill="white"/>
<path d="M33.8056 50.2734L30.9316 59.7784L44.0812 60.822L42.8128 51.0762L33.8056 50.2734Z" fill="#685EFF"/>
<path d="M31.8631 57.9604H31.7661C31.6038 57.905 31.5176 57.7471 31.5593 57.5785L32.6153 53.8346C32.6688 53.6685 32.8368 53.5747 32.9978 53.612C33.1638 53.6655 33.2526 53.8252 33.2104 53.9959L32.1525 57.7467L32.1525 57.7467L32.1513 57.7509C32.1183 57.872 32.0063 57.9604 31.8631 57.9604Z" fill="#222222" stroke="#222222"/>
<path d="M43.7284 59.0201H43.7283C43.5741 59.0201 43.4396 58.8985 43.422 58.7547C43.422 58.7545 43.4219 58.7543 43.4219 58.7541L42.9568 54.7606C42.9568 54.7602 42.9567 54.7599 42.9567 54.7596C42.9396 54.6009 43.0628 54.4473 43.2215 54.4297C43.3889 54.4111 43.5345 54.5272 43.5522 54.6924L43.5522 54.6924L43.5527 54.697L44.018 58.6922C44.0181 58.6926 44.0181 58.6929 44.0181 58.6932C44.0345 58.845 43.9225 58.9921 43.7738 59.0201H43.7737H43.7735H43.7734H43.7732H43.773H43.7728H43.7726H43.7724H43.7722H43.772H43.7718H43.7717H43.7715H43.7713H43.7711H43.7709H43.7707H43.7705H43.7703H43.7702H43.77H43.7698H43.7696H43.7694H43.7692H43.769H43.7688H43.7686H43.7685H43.7683H43.7681H43.7679H43.7677H43.7675H43.7673H43.7671H43.767H43.7668H43.7666H43.7664H43.7662H43.766H43.7658H43.7656H43.7654H43.7653H43.7651H43.7649H43.7647H43.7645H43.7643H43.7641H43.7639H43.7638H43.7636H43.7634H43.7632H43.763H43.7628H43.7626H43.7624H43.7622H43.7621H43.7619H43.7617H43.7615H43.7613H43.7611H43.7609H43.7607H43.7606H43.7604H43.7602H43.76H43.7598H43.7596H43.7594H43.7592H43.7591H43.7589H43.7587H43.7585H43.7583H43.7581H43.7579H43.7577H43.7575H43.7574H43.7572H43.757H43.7568H43.7566H43.7564H43.7562H43.756H43.7559H43.7557H43.7555H43.7553H43.7551H43.7549H43.7547H43.7545H43.7543H43.7542H43.754H43.7538H43.7536H43.7534H43.7532H43.753H43.7528H43.7527H43.7525H43.7523H43.7521H43.7519H43.7517H43.7515H43.7513H43.7511H43.751H43.7508H43.7506H43.7504H43.7502H43.75H43.7498H43.7496H43.7495H43.7493H43.7491H43.7489H43.7487H43.7485H43.7483H43.7481H43.748H43.7478H43.7476H43.7474H43.7472H43.747H43.7468H43.7466H43.7464H43.7463H43.7461H43.7459H43.7457H43.7455H43.7453H43.7451H43.7449H43.7448H43.7446H43.7444H43.7442H43.744H43.7438H43.7436H43.7434H43.7432H43.7431H43.7429H43.7427H43.7425H43.7423H43.7421H43.7419H43.7417H43.7416H43.7414H43.7412H43.741H43.7408H43.7406H43.7404H43.7402H43.74H43.7399H43.7397H43.7395H43.7393H43.7391H43.7389H43.7387H43.7385H43.7384H43.7382H43.738H43.7378H43.7376H43.7374H43.7372H43.737H43.7368H43.7367H43.7365H43.7363H43.7361H43.7359H43.7357H43.7355H43.7353H43.7352H43.735H43.7348H43.7346H43.7344H43.7342H43.734H43.7338H43.7337H43.7335H43.7333H43.7331H43.7329H43.7327H43.7325H43.7323H43.7321H43.732H43.7318H43.7316H43.7314H43.7312H43.731H43.7308H43.7306H43.7305H43.7303H43.7301H43.7299H43.7297H43.7295H43.7293H43.7291H43.7289H43.7288H43.7286H43.7284Z" fill="#222222" stroke="#222222"/>
<path d="M61.1751 19.0299L20.8579 15.8285C18.3829 15.632 16.2171 17.4791 16.0206 19.9541L13.8271 47.5791C13.6305 50.0542 15.4776 52.2199 17.9527 52.4164L58.2698 55.6178C60.7449 55.8143 62.9106 53.9672 63.1072 51.4922L65.3007 23.8672C65.4972 21.3921 63.6501 19.2264 61.1751 19.0299Z" fill="#8BCFFF"/>
<path d="M16.835 43.8833C16.835 43.8833 13.8487 43.803 13.8326 45.6976C13.8165 47.5921 14.1216 51.2849 17.5736 51.9111C21.0255 52.5373 50.4073 54.7369 50.4073 54.7369C50.4073 54.7369 59.4947 56.3425 61.1324 55.0741C62.7701 53.8057 63.1072 51.4776 63.1072 51.4776C63.1072 51.4776 63.8618 47.5279 61.1003 47.1747C58.3387 46.8215 16.8189 43.8833 16.8189 43.8833H16.835Z" fill="#8B7BFF"/>
<path d="M58.2735 55.9252L58.2813 55.9261C58.3943 55.9387 58.4961 55.9391 58.6435 55.9391H58.6596C61.1275 55.9391 63.2233 54.021 63.4274 51.5185L58.2735 55.9252ZM58.2735 55.9252L58.2656 55.9246L17.9339 52.7295L17.933 52.7295C15.3038 52.5261 13.3247 50.2153 13.5281 47.5672C13.5281 47.567 13.5281 47.5668 13.5281 47.5666L15.7276 19.9362L15.7277 19.9351C15.9312 17.3047 18.2745 15.3122 20.8874 15.53L20.8895 15.5301L61.221 18.7252C61.221 18.7252 61.2211 18.7252 61.2211 18.7252C62.5014 18.8271 63.6631 19.4225 64.4923 20.3972C65.3228 21.3734 65.7288 22.6078 65.627 23.8869L63.4275 51.5176L58.2735 55.9252ZM61.1563 19.334L61.1556 19.3339L20.8239 16.1388L20.8239 16.1388L20.8203 16.1386C18.5447 15.9747 16.503 17.6833 16.3203 19.9853C16.3203 19.9854 16.3203 19.9854 16.3203 19.9854L14.1207 47.617L14.1207 47.6171C13.9382 49.9164 15.67 51.9385 17.9673 52.1209L17.9673 52.1209L58.2989 55.3159C58.299 55.3159 58.299 55.3159 58.299 55.3159C60.5982 55.4984 62.6203 53.7667 62.8026 51.4694C62.8026 51.4694 62.8027 51.4694 62.8027 51.4693L65.0022 23.8389L64.5038 23.7981L65.0023 23.8377L65.0022 23.838C65.0928 22.7299 64.7479 21.6338 64.0161 20.7909C63.2871 19.9354 62.2817 19.4247 61.1563 19.334Z" fill="#222222" stroke="#222222"/>
<path d="M46.8151 59.2724L28.6972 57.8338C27.5304 57.7411 26.5094 58.6119 26.4167 59.7787C26.3241 60.9455 27.1948 61.9665 28.3616 62.0591L46.4796 63.4978C47.6464 63.5904 48.6674 62.7197 48.76 61.5529C48.8527 60.386 47.9819 59.3651 46.8151 59.2724Z" fill="#8B7BFF"/>
<path d="M48.2036 63.236C47.7666 63.6061 47.2084 63.8061 46.6344 63.8061H46.6342H46.6339H46.6335H46.6332H46.6329H46.6326H46.6323H46.6319H46.6316H46.6313H46.6309H46.6306H46.6303H46.6299H46.6296H46.6292H46.6289H46.6285H46.6282H46.6278H46.6274H46.6271H46.6267H46.6263H46.626H46.6256H46.6252H46.6249H46.6245H46.6241H46.6237H46.6233H46.6229H46.6225H46.6222H46.6218H46.6214H46.621H46.6206H46.6202H46.6198H46.6193H46.6189H46.6185H46.6181H46.6177H46.6173H46.6169H46.6164H46.616H46.6156H46.6152H46.6147H46.6143H46.6139H46.6134H46.613H46.6125H46.6121H46.6116H46.6112H46.6108H46.6103H46.6098H46.6094H46.6089H46.6085H46.608H46.6076H46.6071H46.6066H46.6062H46.6057H46.6052H46.6047H46.6043H46.6038H46.6033H46.6028H46.6023H46.6019H46.6014H46.6009H46.6004H46.5999H46.5994H46.5989H46.5984H46.5979H46.5974H46.5969H46.5964H46.5959H46.5954H46.5949H46.5944H46.5939H46.5934H46.5928H46.5923H46.5918H46.5913H46.5908H46.5903H46.5897H46.5892H46.5887H46.5882H46.5876H46.5871H46.5866H46.586H46.5855H46.585H46.5844H46.5839H46.5833H46.5828H46.5823H46.5817H46.5812H46.5806H46.5801H46.5795H46.579H46.5784H46.5779H46.5773H46.5767H46.5762H46.5756H46.5751H46.5745H46.5739H46.5734H46.5728H46.5723H46.5717H46.5711H46.5705H46.57H46.5694H46.5688H46.5683H46.5677H46.5671H46.5665H46.566H46.5654H46.5648H46.5642H46.5636H46.5631H46.5625H46.5619H46.5613H46.5607H46.5601H46.5595H46.5589H46.5584H46.5578H46.5572H46.5566H46.556H46.5554H46.5548H46.5542H46.5536H46.553H46.5524H46.5518H46.5512H46.5506H46.55H46.5494H46.5488H46.5482H46.5476H46.547H46.5464H46.5458H46.5452H46.5446H46.5439H46.5433H46.5427H46.5421H46.5415H46.5409H46.5403H46.5397H46.5391H46.5384H46.5378H46.5372H46.5366H46.536H46.5354H46.5348H46.5341H46.5335H46.5329H46.5323H46.5317H46.531H46.5304H46.5298H46.5292H46.5286H46.5279H46.5273H46.5267H46.5261H46.5254H46.5248H46.5242H46.5236H46.523H46.5223H46.5217H46.5211H46.5205H46.5198H46.5192H46.5186H46.518H46.5173H46.5167H46.5161H46.5155H46.5148H46.5142H46.5136H46.5129H46.5123H46.5117H46.5111H46.5104H46.5098H46.5092H46.5086H46.5079H46.5073H46.5067H46.506H46.5054H46.5048H46.5042H46.5035H46.5029H46.5023H46.5017H46.501H46.5004H46.4998H46.4992H46.4985H46.4979H46.4973H46.4967H46.496H46.4954H46.4948H46.4942H46.4935H46.4929H46.4923H46.4917H46.491H46.4904H46.4898H46.4892H46.4885H46.4879H46.4873H46.4867H46.4861H46.4854H46.4848H46.4842H46.4836H46.483H46.4823H46.4817H46.4811H46.4805H46.4799H46.4792H46.4786H46.478H46.4774H46.4768H46.4762H46.4756H46.475H46.4743H46.4737H46.4731H46.4725H46.4719H46.4713H46.4707H46.4701H46.4695H46.4689H46.4683H46.4676H46.467H46.4664H46.4658H46.4652H46.4646H46.464H46.4634H46.4628H46.4622H46.4616H46.461H46.4604H46.4599H46.4593H46.4587H46.4581H46.4575H46.4569H46.4563H46.4557H46.4551H46.4545H46.4539H46.4534H46.4528H46.4522H46.4516H46.451H46.4504H46.4499H46.4493H46.4487H46.4481H46.4476H46.447H46.4464H46.4458H46.4453H46.4447H46.4441H46.4436H46.443H46.4424H46.4419H46.4413H46.4407H46.4402H46.4396H46.4391H46.4385H46.438H46.4374H46.4368H46.4363H46.4357H46.4352H46.4346H46.4341H46.4336H46.433H46.4325H46.4319H46.4314H46.4308H46.4303H46.4298H46.4292L28.3404 62.3629C28.3401 62.3628 28.3399 62.3628 28.3396 62.3628C27.6981 62.3091 27.1133 62.0164 26.6862 61.5226C26.2611 61.0311 26.0627 60.4096 26.1159 59.7718L26.1159 59.771C26.1698 59.111 26.4636 58.5303 26.9502 58.1227C27.4427 57.71 28.0689 57.5085 28.7131 57.5478L46.8176 58.9923C46.8179 58.9923 46.8182 58.9923 46.8184 58.9924C47.46 59.046 48.0448 59.3387 48.4719 59.8326C48.8969 60.324 49.0953 60.9455 49.0422 61.5833C48.9888 62.2244 48.6966 62.8089 48.2036 63.236ZM46.4983 63.1829L46.4983 63.183L46.5055 63.1835C47.5033 63.2485 48.3789 62.5281 48.4494 61.5196C48.4924 61.0294 48.3337 60.5657 48.0318 60.1992C47.7166 59.8164 47.2695 59.5969 46.792 59.5535L46.792 59.5534L46.7865 59.553L28.6758 58.108L28.6678 58.1073L28.6598 58.107C27.7565 58.064 26.7969 58.7408 26.7247 59.7713C26.6817 60.2615 26.8404 60.7252 27.1423 61.0918C27.4575 61.4745 27.9046 61.6941 28.3821 61.7375L28.3821 61.7375L28.3876 61.7379L46.4983 63.1829Z" fill="#222222" stroke="#222222"/>
<path d="M14.1289 43.9785L14.1289 43.9785L14.1262 43.9783C13.9705 43.9667 13.8368 43.8231 13.8495 43.6455C13.8607 43.4879 14.0067 43.3576 14.1798 43.3699C14.1801 43.3699 14.1805 43.37 14.1808 43.37L63.4528 47.2874L63.4555 47.2876C63.6108 47.2991 63.7442 47.442 63.7323 47.6189C63.7199 47.7707 63.5885 47.8945 63.4282 47.8945H63.4281H63.4281H63.4281H63.428H63.428H63.428H63.4279H63.4279H63.4278H63.4278H63.4277H63.4277H63.4277H63.4276H63.4276H63.4276H63.4275H63.4275H63.4274H63.4274H63.4274H63.4273H63.4273H63.4272H63.4272H63.4272H63.4271H63.4271H63.427H63.427H63.4269H63.4269H63.4268H63.4268H63.4267H63.4267H63.4266H63.4265H63.4265H63.4264H63.4264H63.4263H63.4263H63.4262H63.4261H63.4261H63.426H63.4259H63.4259H63.4258H63.4257H63.4257H63.4256H63.4255H63.4255H63.4254H63.4253H63.4253H63.4252H63.4251H63.425H63.4249H63.4249H63.4248H63.4247H63.4246H63.4246H63.4245H63.4244H63.4243H63.4242H63.4241H63.4241H63.424H63.4239H63.4238H63.4237H63.4236H63.4235H63.4234H63.4234H63.4233H63.4232H63.4231H63.423H63.4229H63.4228H63.4227H63.4226H63.4225H63.4224H63.4223H63.4222H63.4221H63.422H63.4219H63.4218H63.4217H63.4216H63.4215H63.4214H63.4213H63.4212H63.4211H63.4209H63.4208H63.4207H63.4206H63.4205H63.4204H63.4203H63.4202H63.4201H63.4199H63.4198H63.4197H63.4196H63.4195H63.4194H63.4192H63.4191H63.419H63.4189H63.4188H63.4187H63.4185H63.4184H63.4183H63.4182H63.418H63.4179H63.4178H63.4177H63.4175H63.4174H63.4173H63.4172H63.417H63.4169H63.4168H63.4166H63.4165H63.4164H63.4162H63.4161H63.416H63.4159H63.4157H63.4156H63.4155H63.4153H63.4152H63.415H63.4149H63.4148H63.4146H63.4145H63.4144H63.4142H63.4141H63.4139H63.4138H63.4137H63.4135H63.4134H63.4132H63.4131H63.413H63.4128H63.4127H63.4125H63.4124H63.4122H63.4121H63.4119H63.4118H63.4116H63.4115H63.4114H63.4112H63.4111H63.4109H63.4108H63.4106H63.4105H63.4103H63.4102H63.41H63.4099H63.4097H63.4096H63.4094H63.4093H63.4091H63.4089H63.4088H63.4086H63.4085H63.4083H63.4082H63.408H63.4079H63.4077H63.4076H63.4074H63.4072H63.4071H63.4069H63.4068H63.4066H63.4064H63.4063H63.4061H63.406H63.4058H63.4057H63.4055H63.4053H63.4052H63.405H63.4049H63.4047H63.4045H63.4044H63.4042H63.404H63.4039H63.4037H63.4036H63.4034H63.4032H63.4031H63.4029H63.4027H63.4026H63.4024H63.4022H63.4021H63.4019H63.4018H63.4016H63.4014H63.4013H63.4011H63.4009H63.4008H63.4006H63.4004H63.4003H63.4001H63.3999H63.3998H63.3996H63.3994H63.3993H63.3991H63.3989H63.3988H63.3986H63.3984H63.3983H63.3981H63.3979H63.3978H63.3976H63.3974H63.3972H63.3971H63.3969H63.3967H63.3966H63.3964H63.3962H63.3961H63.3959H63.3957H63.3956H63.3954H63.3952H63.3951H63.3949H63.3947H63.3945H63.3944H63.3942H63.394H63.3939H63.3937H63.3935H63.3934H63.3932H63.393H63.3928H63.3927H63.3925H63.3923H63.3922H63.392H63.3918H63.3917H63.3915H63.3913H63.3912H63.391H63.3908H63.3907H63.3905H63.3903H63.3901H63.39H63.3898H63.3896H63.3895H63.3893H63.3891H63.389H63.3888H63.3886H63.3885H63.3883H63.3881H63.388H63.3878H63.3876H63.3875H63.3873H63.3871H63.387H63.3868H63.3866H63.3865H63.3863H63.3861H63.386H63.3858H63.3856H63.3855H63.3853H63.3851H63.385H63.3848H63.3846H63.3845H63.3843H63.3841H63.384H63.3838H63.3837H63.3835H63.3833H63.3832L14.1289 43.9785Z" fill="#222222" stroke="#222222"/>
<path d="M38.4459 51.7815C39.4745 51.7815 40.3084 50.9477 40.3084 49.9191C40.3084 48.8905 39.4745 48.0566 38.4459 48.0566C37.4173 48.0566 36.5835 48.8905 36.5835 49.9191C36.5835 50.9477 37.4173 51.7815 38.4459 51.7815Z" fill="white"/>
</svg>
