<svg width="28" height="32" viewBox="0 0 28 32" fill="none" xmlns="http://www.w3.org/2000/svg">
<g clip-path="url(#clip0_2002_5171)">
<g filter="url(#filter0_d_2002_5171)">
<path d="M13.9999 1.65527C8.44183 1.65527 3.91996 6.19284 3.91996 11.7702C3.91633 13.105 4.17787 14.4272 4.6893 15.6594C5.20073 16.8916 5.95179 18.0092 6.89859 18.9468L13.9999 25.9311L21.0982 18.9498C22.0458 18.012 22.7975 16.894 23.3094 15.6613C23.8214 14.4285 24.0833 13.1057 24.0799 11.7702C24.0799 6.19284 19.558 1.65527 13.9999 1.65527Z" fill="#222222"/>
<path d="M4.91996 11.7729V11.7702C4.91996 6.74185 8.99738 2.65527 13.9999 2.65527C19.0025 2.65527 23.0799 6.74185 23.0799 11.7702L23.0799 11.7728C23.083 12.9759 22.847 14.1674 22.3859 15.2777C21.925 16.3875 21.2485 17.3937 20.3961 18.2378C20.3957 18.2382 20.3952 18.2386 20.3948 18.2391L13.9999 24.5285L7.60223 18.2362C7.60188 18.2359 7.60152 18.2355 7.60116 18.2352C6.7493 17.3913 6.07333 16.3854 5.6129 15.2761C5.15228 14.1663 4.91668 12.9753 4.91996 11.7729Z" stroke="#EF3B24" stroke-width="2"/>
</g>
<path d="M14 16.5521C16.7835 16.5521 19.04 14.329 19.04 11.5866C19.04 8.84423 16.7835 6.62109 14 6.62109C11.2164 6.62109 8.95996 8.84423 8.95996 11.5866C8.95996 14.329 11.2164 16.5521 14 16.5521Z" fill="#EF3B24"/>
</g>
<defs>
<filter id="filter0_d_2002_5171" x="-0.0800781" y="1.65527" width="28.1602" height="32.2754" filterUnits="userSpaceOnUse" color-interpolation-filters="sRGB">
<feFlood flood-opacity="0" result="BackgroundImageFix"/>
<feColorMatrix in="SourceAlpha" type="matrix" values="0 0 0 0 0 0 0 0 0 0 0 0 0 0 0 0 0 0 127 0" result="hardAlpha"/>
<feOffset dy="4"/>
<feGaussianBlur stdDeviation="2"/>
<feComposite in2="hardAlpha" operator="out"/>
<feColorMatrix type="matrix" values="0 0 0 0 0 0 0 0 0 0 0 0 0 0 0 0 0 0 0.12 0"/>
<feBlend mode="normal" in2="BackgroundImageFix" result="effect1_dropShadow_2002_5171"/>
<feBlend mode="normal" in="SourceGraphic" in2="effect1_dropShadow_2002_5171" result="shape"/>
</filter>
<clipPath id="clip0_2002_5171">
<rect width="28" height="32" fill="white"/>
</clipPath>
</defs>
</svg>
