<svg width="16" height="16" viewBox="0 0 16 16" fill="none" xmlns="http://www.w3.org/2000/svg">
<g id="Icon/24">
<path id="Icon" d="M9.61238 2.64433C9.23149 2.2444 8.59851 2.22896 8.19858 2.60985C7.79865 2.99073 7.78321 3.62371 8.1641 4.02364L9.61238 2.64433ZM13.3327 8.00065L14.0568 8.69031C14.4246 8.3041 14.4246 7.6972 14.0568 7.311L13.3327 8.00065ZM8.1641 11.9777C7.78321 12.3776 7.79865 13.0106 8.19858 13.3915C8.59851 13.7723 9.23149 13.7569 9.61238 13.357L8.1641 11.9777ZM2.66602 7.00065C2.11373 7.00065 1.66602 7.44837 1.66602 8.00065C1.66602 8.55294 2.11373 9.00065 2.66602 9.00065L2.66602 7.00065ZM8.1641 4.02364L12.6085 8.69031L14.0568 7.311L9.61238 2.64433L8.1641 4.02364ZM12.6085 7.311L8.1641 11.9777L9.61238 13.357L14.0568 8.69031L12.6085 7.311ZM13.3327 7.00065L2.66602 7.00065L2.66602 9.00065L13.3327 9.00065V7.00065Z" fill="#222222"/>
</g>
</svg>
