<svg width="16" height="16" viewBox="0 0 16 16" fill="none" xmlns="http://www.w3.org/2000/svg">
<g id="Icon/24">
<path id="Icon" d="M6.38632 13.357C6.76721 13.7569 7.40019 13.7723 7.80012 13.3915C8.20005 13.0106 8.21548 12.3776 7.8346 11.9777L6.38632 13.357ZM2.66602 8.00065L1.94188 7.311C1.57406 7.6972 1.57406 8.3041 1.94188 8.69031L2.66602 8.00065ZM7.8346 4.02364C8.21548 3.62371 8.20005 2.99073 7.80012 2.60985C7.40019 2.22896 6.76721 2.2444 6.38632 2.64433L7.8346 4.02364ZM13.3327 9.00065C13.885 9.00065 14.3327 8.55294 14.3327 8.00065C14.3327 7.44837 13.885 7.00065 13.3327 7.00065V9.00065ZM7.8346 11.9777L3.39015 7.311L1.94188 8.69031L6.38632 13.357L7.8346 11.9777ZM3.39015 8.69031L7.8346 4.02364L6.38632 2.64433L1.94188 7.311L3.39015 8.69031ZM2.66602 9.00065L13.3327 9.00065V7.00065L2.66602 7.00065L2.66602 9.00065Z" fill="#222222"/>
</g>
</svg>
