<svg width="24" height="24" viewBox="0 0 24 24" fill="none" xmlns="http://www.w3.org/2000/svg">
<g id="Icon/24">
<g id="Icon">
<path d="M7.625 19C6.17525 19 5 17.8248 5 16.375V7.62498C5 6.17525 6.17525 5 7.625 5H16.375C17.8247 5 19 6.17525 19 7.62498L19 16.375C19 17.8248 17.8247 19 16.375 19H7.625Z" fill="white"/>
<path d="M9.375 12H14.625M19 7.62498L19 16.375C19 17.8248 17.8247 19 16.375 19H7.625C6.17525 19 5 17.8248 5 16.375V7.62498C5 6.17525 6.17525 5 7.625 5H16.375C17.8247 5 19 6.17525 19 7.62498Z" stroke="#222222" stroke-width="1.4" stroke-linecap="round" stroke-linejoin="round"/>
</g>
</g>
</svg>
