<svg width="80" height="80" viewBox="0 0 80 80" fill="none" xmlns="http://www.w3.org/2000/svg">
<path d="M62.4485 58.5728C66.5859 54.4884 70.6172 47.2568 67.4876 40.3611C65.8433 36.7365 62.8728 34.2788 59.1244 33.3417L58.7531 30.5127C58.5056 28.5678 57.4977 26.835 55.9418 25.6504C54.8809 24.837 53.6609 24.342 52.3702 24.1828C51.8044 21.4069 50.8496 17.8706 49.276 14.7057C46.9951 10.0909 42.8223 7.26189 38.1191 7.12044C37.3058 7.10276 36.4925 7.1558 35.6968 7.31493C30.7814 8.25204 27.3336 12.3187 26.8915 17.6938C26.5733 21.513 27.7049 24.6779 29.0663 27.0295L26.4318 27.3831C24.4869 27.6307 22.7541 28.6385 21.5695 30.1944C20.3672 31.7504 19.8544 33.6776 20.1196 35.6226L22.4536 53.3745C22.1353 53.7812 21.4104 54.5238 19.8544 55.3371C16.2474 57.229 14.0903 60.5001 14.108 64.0894C14.108 67.3604 15.9469 70.3485 18.8819 71.8868C20.3318 72.6471 22.0823 73.0361 24.2217 73.1068C24.6991 73.1068 25.1588 73.1068 25.6362 73.1068C26.8739 75.2285 29.1547 76.643 31.7539 76.7314C32.1606 76.7314 32.5672 76.7314 32.9562 76.6607L56.9673 73.5135C60.981 72.983 63.8099 69.2876 63.2972 65.274L62.4308 58.6435L62.4485 58.5728ZM22.542 66.8653C22.542 66.8653 22.3828 66.8299 22.2944 66.8123C22.3652 66.8299 22.4536 66.8476 22.542 66.8653ZM23.0724 66.9891C23.1785 66.9891 23.2669 67.0244 23.373 67.0244C23.2669 67.0244 23.1785 67.0068 23.0724 66.9891ZM23.9211 67.0775C24.0272 67.0775 24.1333 67.0775 24.2217 67.0952C24.1156 67.0952 24.0095 67.0952 23.9211 67.0775ZM26.3965 67.0244C26.1843 67.0421 25.9544 67.0598 25.7423 67.0775C25.9721 67.0775 26.1843 67.0421 26.3965 67.0244ZM27.422 66.9184C27.2098 66.9537 26.9976 66.9714 26.7678 66.9891C26.9976 66.9714 27.2098 66.936 27.422 66.9184ZM37.8539 13.0436C37.5003 13.0436 37.1467 13.0436 36.8284 13.1144C37.1643 13.0436 37.5003 13.026 37.8539 13.0436ZM40.2055 11.7352C40.5415 11.8413 40.8774 11.9828 41.1957 12.1419C40.8597 11.9828 40.5415 11.859 40.2055 11.7352ZM41.567 12.3541C41.8145 12.4955 42.062 12.637 42.2919 12.7961C42.0444 12.637 41.8145 12.4778 41.567 12.3541ZM39.3922 13.2735C39.7812 13.3796 40.1878 13.521 40.5768 13.7332C40.1878 13.5387 39.7812 13.3973 39.3922 13.2735ZM38.1545 13.0613C38.4551 13.079 38.7556 13.1321 39.0562 13.1851C38.7556 13.1144 38.4551 13.079 38.1545 13.0613ZM62.7668 40.644C62.7668 40.644 62.8198 40.7325 62.8552 40.7678C62.8198 40.7325 62.8021 40.6794 62.7668 40.644ZM60.592 40.7148C60.4859 40.6087 60.3621 40.5203 60.2383 40.4142C60.3621 40.5203 60.4859 40.591 60.592 40.7148ZM58.4349 39.3533C58.5763 39.4064 58.7001 39.4594 58.8415 39.5124C58.7001 39.4417 58.5763 39.4064 58.4349 39.3533ZM61.1224 41.3159C61.2108 41.422 61.3169 41.5281 61.3876 41.6342C61.2992 41.5104 61.2108 41.422 61.1224 41.3159ZM56.0125 38.8582C56.1186 38.8582 56.207 38.8582 56.3131 38.8759C56.207 38.8759 56.1009 38.8759 56.0125 38.8582ZM56.7198 38.9113C56.8435 38.9113 56.9496 38.9466 57.0734 38.9643C56.9496 38.9466 56.8259 38.929 56.7198 38.9113ZM57.5508 39.0704C57.6746 39.1058 57.816 39.1411 57.9398 39.1765C57.7983 39.1411 57.6746 39.1058 57.5508 39.0704ZM61.9357 39.6362C61.9357 39.6362 61.8473 39.5478 61.7943 39.4948C61.8473 39.5478 61.8827 39.5832 61.9357 39.6362ZM60.7334 38.6461C60.7334 38.6461 60.8395 38.7168 60.8925 38.7522C60.8395 38.7168 60.7865 38.6814 60.7334 38.6461ZM59.7963 38.0979C59.7963 38.0979 59.7079 38.0626 59.6549 38.0272C59.7079 38.0449 59.7433 38.0626 59.7963 38.0979ZM58.6647 37.6382C58.6647 37.6382 58.6117 37.6382 58.594 37.6206C58.6117 37.6206 58.647 37.6206 58.6647 37.6382ZM56.7198 37.2139C56.7198 37.2139 56.6491 37.2139 56.6137 37.2139C56.6491 37.2139 56.6844 37.2139 56.7198 37.2139ZM57.6392 37.3553C57.6392 37.3553 57.6215 37.3553 57.6038 37.3553C57.6038 37.3553 57.6215 37.3553 57.6392 37.3553ZM55.9064 37.1608C55.9064 37.1608 55.8357 37.1608 55.8004 37.1608C55.818 37.1608 55.8357 37.1608 55.8534 37.1608C55.8534 37.1608 55.8888 37.1608 55.9064 37.1608ZM52.6 28.5854C52.6 28.5854 52.494 28.5324 52.4232 28.5147C52.4763 28.5324 52.5293 28.5501 52.6 28.5854ZM51.5745 28.3556C51.5745 28.3556 51.5922 28.3556 51.6099 28.3556C51.4331 28.3556 51.2563 28.3556 51.0618 28.3733C51.2386 28.3556 51.3977 28.3379 51.5745 28.3379V28.3556ZM44.3606 14.7941C44.1484 14.5289 43.9539 14.2637 43.7241 14.0338C43.9362 14.2637 44.1484 14.5289 44.3606 14.7941ZM45.4745 16.5622C45.227 16.0671 44.9441 15.6074 44.6612 15.1831C44.9441 15.6074 45.227 16.0495 45.4745 16.5622ZM42.6986 13.0967C42.9284 13.2735 43.1406 13.468 43.3528 13.6625C43.1406 13.4503 42.9107 13.2735 42.6986 13.0967ZM38.5788 11.3993C38.3313 11.3816 38.1014 11.3639 37.8539 11.3463C37.9069 11.3463 37.9423 11.3463 37.9954 11.3463C38.1898 11.3463 38.3843 11.3816 38.5788 11.3993ZM40.0641 11.6822C39.6751 11.5584 39.3038 11.4877 38.9325 11.417C39.3038 11.47 39.6928 11.5584 40.0641 11.6822Z" fill="#DADADA"/>
<path d="M62.0947 55.7962C66.2851 51.4289 70.2634 43.7906 66.7802 36.7004C64.959 32.9874 61.8118 30.5297 57.8866 29.6456L57.4092 26.7105C57.0909 24.6949 55.9947 22.9267 54.3503 21.7421C53.2187 20.9288 51.9457 20.4514 50.5842 20.3276C49.9123 17.4456 48.7984 13.8032 47.0833 10.5676C44.5903 5.829 40.17 3 35.2546 3C34.4059 3 33.5572 3.08841 32.7438 3.26522C27.6693 4.37914 24.2038 8.72872 23.9032 14.316C23.6911 18.2943 24.9464 21.5476 26.4493 23.9523L23.7264 24.3943C21.7108 24.7126 19.9426 25.8088 18.7403 27.4708C17.538 29.1329 17.0606 31.1485 17.3965 33.1642L20.3493 51.5527C20.031 51.9947 19.2884 52.7727 17.6971 53.6567C14.0371 55.7254 11.8977 59.191 12.0038 62.9394C12.1099 66.3342 14.0902 69.393 17.2021 70.9136C18.7226 71.6562 20.5615 72.0098 22.7893 72.0098C23.2844 72.0098 23.7795 71.9922 24.2569 71.9568C25.6183 74.1316 28.023 75.5284 30.7282 75.5284C31.1525 75.5284 31.5769 75.493 31.9836 75.4223L56.861 71.4264C61.0161 70.7545 63.8628 66.8292 63.1909 62.6742L62.077 55.7962H62.0947ZM20.8621 65.6269C20.8621 65.6269 20.6853 65.5916 20.6145 65.5739C20.7029 65.5916 20.7737 65.6092 20.8621 65.6269ZM21.4102 65.733C21.5163 65.733 21.6224 65.7507 21.7284 65.7684C21.6224 65.7684 21.5163 65.7507 21.4102 65.733ZM24.858 65.68C24.6282 65.6976 24.416 65.733 24.1685 65.7507C24.3983 65.733 24.6282 65.7153 24.858 65.68ZM23.7618 65.786C23.5319 65.786 23.3021 65.8037 23.0722 65.8037C23.3021 65.8037 23.5319 65.8037 23.7618 65.786ZM35.1485 9.20611C34.7772 9.20611 34.4236 9.24147 34.0876 9.3122C34.4236 9.24147 34.7949 9.20611 35.1485 9.20611ZM39.003 8.35741C39.2682 8.49886 39.5158 8.64031 39.781 8.79944C39.5334 8.64031 39.2682 8.49886 39.003 8.35741ZM36.7575 9.40061C37.1818 9.50669 37.5885 9.63046 38.0129 9.84264C37.6062 9.64814 37.1818 9.50669 36.7575 9.40061ZM35.4668 9.20611C35.7673 9.20611 36.0856 9.25916 36.4039 9.3122C36.0856 9.25916 35.7673 9.22379 35.4668 9.20611ZM61.9002 37.1601C61.9002 37.1601 61.9532 37.2485 61.9886 37.2839C61.9532 37.2485 61.9356 37.1955 61.9002 37.1601ZM59.637 37.2839C59.5132 37.1778 59.3895 37.0894 59.2657 36.9833C59.3895 37.0894 59.5132 37.1601 59.637 37.2839ZM57.3384 35.9401C57.4799 35.9932 57.6213 36.0285 57.7628 36.0993C57.6213 36.0462 57.4799 35.9932 57.3384 35.9401ZM60.2028 37.9028C60.2912 38.0088 60.3973 38.1149 60.5034 38.2387C60.415 38.1149 60.3089 38.0265 60.2028 37.9028ZM55.5703 35.5335C55.6941 35.5335 55.8179 35.5688 55.9416 35.5865C55.8179 35.5688 55.6941 35.5511 55.5703 35.5335ZM56.419 35.6749C56.5605 35.7103 56.6842 35.728 56.8257 35.7633C56.6842 35.728 56.5428 35.6926 56.419 35.6749ZM60.9985 36.1346C60.9985 36.1346 60.8924 36.0462 60.857 35.9932C60.91 36.0462 60.9631 36.0816 60.9985 36.1346ZM59.7254 35.1268C59.7254 35.1268 59.8315 35.1975 59.8845 35.2329C59.8315 35.1975 59.7784 35.1622 59.7254 35.1268ZM58.7176 34.5787C58.7176 34.5787 58.6115 34.5433 58.5584 34.508C58.6115 34.5256 58.6645 34.5433 58.7176 34.5787ZM57.5506 34.1367C57.5506 34.1367 57.4976 34.1367 57.4622 34.119C57.4976 34.119 57.5153 34.119 57.5506 34.1367ZM55.4996 33.7653C55.4996 33.7653 55.4289 33.7653 55.3935 33.7653C55.4289 33.7653 55.4642 33.7653 55.4996 33.7653ZM56.4544 33.8891C56.4544 33.8891 56.4367 33.8891 56.419 33.8891C56.419 33.8891 56.4367 33.8891 56.4544 33.8891ZM54.6509 33.73C54.6509 33.73 54.5802 33.73 54.5448 33.73C54.5625 33.73 54.5802 33.73 54.6155 33.73C54.6155 33.73 54.6509 33.73 54.6686 33.73H54.6509ZM50.9555 24.9247C50.9555 24.9247 50.8317 24.8894 50.7787 24.854C50.8317 24.8717 50.9025 24.8894 50.9555 24.9247ZM49.8946 24.7126C49.8946 24.7126 49.9123 24.7126 49.93 24.7126C49.7355 24.7126 49.5587 24.7126 49.3642 24.7479C49.541 24.7126 49.7178 24.6949 49.8946 24.7126ZM41.9911 10.8328C41.779 10.5676 41.5491 10.3023 41.3016 10.0548C41.5314 10.2847 41.7613 10.5499 41.9911 10.8328ZM40.1876 9.10003C40.4352 9.27684 40.665 9.47133 40.8949 9.66582C40.665 9.45365 40.4352 9.27684 40.1876 9.10003ZM35.8557 7.45567C35.6082 7.43799 35.343 7.42031 35.0955 7.43799C35.1485 7.43799 35.2015 7.43799 35.2546 7.43799C35.4491 7.43799 35.6613 7.45567 35.8557 7.47335V7.45567ZM37.4117 7.72089C37.005 7.6148 36.616 7.54408 36.2271 7.49103C36.616 7.54408 37.0227 7.6148 37.4117 7.72089Z" fill="white"/>
<path d="M38.7203 23.9694L34.3 24.6766C33.8756 24.7474 33.6104 25.1363 33.6635 25.543L34.2646 29.2561L40.1878 28.2482L39.6044 24.5882C39.5336 24.1816 39.1446 23.8987 38.738 23.9517L38.7203 23.9694Z" fill="white"/>
<path d="M49.4973 25.6311L24.5865 29.639C23.3139 29.8438 22.4482 31.0414 22.653 32.3141L28.4387 68.2749C28.6435 69.5476 29.8411 70.4132 31.1137 70.2085L56.0245 66.2006C57.2971 65.9958 58.1628 64.7982 57.9581 63.5256L52.1723 27.5647C51.9675 26.2921 50.7699 25.4264 49.4973 25.6311Z" fill="#EE3923"/>
<path d="M22.275 32.3603L22.275 32.3603L28.0563 68.3035C28.0563 68.3039 28.0564 68.3044 28.0565 68.3049C28.1766 69.0231 28.5648 69.6516 29.1517 70.0882L22.275 32.3603ZM22.275 32.3603L22.2745 32.3575M22.275 32.3603L22.2745 32.3575M22.2745 32.3575C22.1564 31.6487 22.3306 30.9336 22.7526 30.3277C23.1891 29.7437 23.8159 29.3575 24.5321 29.2378C24.5325 29.2377 24.5329 29.2376 24.5334 29.2376L49.4435 25.2244L49.4446 25.2242M22.2745 32.3575L49.4446 25.2242M49.4446 25.2242C50.9044 24.9858 52.3268 26.0027 52.5657 27.4799L49.4446 25.2242ZM58.348 63.4464L58.3475 63.4436L52.5658 27.4804L58.348 63.4464ZM58.348 63.4464C58.4665 64.1574 58.2904 64.8711 57.8716 65.4562C57.435 66.0417 56.8072 66.4288 56.0899 66.5486C56.0896 66.5486 56.0894 66.5487 56.0891 66.5487L31.1789 70.5619L31.1696 70.5634M58.348 63.4464L31.1696 70.5634M31.1696 70.5634L31.1604 70.5653M31.1696 70.5634L31.1604 70.5653M31.1604 70.5653C31.0396 70.5894 30.9113 70.5909 30.7457 70.5909H30.5386M31.1604 70.5653L30.5386 70.5909M30.5386 70.5909L30.5283 70.6011M30.5386 70.5909L30.5283 70.6011M30.5283 70.6011C30.0339 70.5642 29.5586 70.39 29.1521 70.0885L30.5283 70.6011ZM24.6545 30.0188L24.6545 30.0187L24.6446 30.0205C24.1493 30.1106 23.6864 30.3655 23.3862 30.8108C23.0823 31.2357 22.9664 31.7525 23.0368 32.2452L23.0367 32.2452L23.0381 32.2539L28.8198 68.1999L28.8197 68.1999L28.8216 68.2099C28.9122 68.7081 29.1695 69.1735 29.6196 69.4736L29.887 69.0726L29.6196 69.4736C30.0251 69.7439 30.5362 69.8906 31.0462 69.8178L31.0463 69.8178L31.0551 69.8164L55.9679 65.8028L55.9679 65.8029L55.9778 65.8011C56.4731 65.711 56.936 65.4561 57.2363 65.0109C57.5396 64.5868 57.6555 64.0886 57.5861 63.5795L57.5863 63.5795L57.5844 63.5677L51.8026 27.6041L51.8027 27.6041L51.8015 27.5973C51.6362 26.6531 50.8116 25.9635 49.8768 25.9635H49.3768V26.0359L24.6545 30.0188Z" fill="#222222" stroke="#222222"/>
<path d="M40.064 27.5592C40.5591 27.4885 40.8773 27.0288 40.8066 26.5514L40.4707 24.465C40.3999 24.023 40.1701 23.6517 39.8165 23.3864C39.4628 23.1389 39.0208 23.0328 38.5965 23.1035L34.1585 23.8108C33.2744 23.9522 32.6556 24.8009 32.797 25.7027L40.064 27.5592ZM40.064 27.5592C39.5866 27.6299 39.1269 27.3117 39.0562 26.8343L40.064 27.5592ZM33.901 28.067C33.7702 28.0258 33.6687 27.915 33.6444 27.7631L33.6444 27.7631L33.6439 27.7606L33.2907 25.6234C33.1927 24.9922 33.6284 24.4021 34.2373 24.3045C34.2374 24.3045 34.2374 24.3045 34.2375 24.3045L38.6751 23.5973L38.6751 23.5973L38.6787 23.5967C38.9662 23.5488 39.2737 23.6194 39.5231 23.7914C39.7717 23.9803 39.9277 24.236 39.9769 24.544L39.977 24.5445L40.3124 26.6272C40.3431 26.8435 40.1993 27.0348 39.9933 27.0642L39.9933 27.0642L39.9907 27.0646C39.7673 27.0977 39.5782 26.9465 39.5508 26.761L39.5508 26.761L39.5498 26.7548L39.2139 24.6684L39.1321 24.1607L38.6269 24.2567L34.348 25.07L33.8419 25.1662L33.9532 25.6692L34.3907 27.6467C34.4142 27.8526 34.2816 28.0267 34.1131 28.067H34.1128H34.1126H34.1123H34.112H34.1118H34.1115H34.1112H34.111H34.1107H34.1104H34.1102H34.1099H34.1097H34.1094H34.1091H34.1089H34.1086H34.1083H34.1081H34.1078H34.1075H34.1073H34.107H34.1067H34.1065H34.1062H34.106H34.1057H34.1054H34.1052H34.1049H34.1046H34.1044H34.1041H34.1039H34.1036H34.1033H34.1031H34.1028H34.1026H34.1023H34.102H34.1018H34.1015H34.1012H34.101H34.1007H34.1005H34.1002H34.0999H34.0997H34.0994H34.0992H34.0989H34.0986H34.0984H34.0981H34.0979H34.0976H34.0973H34.0971H34.0968H34.0966H34.0963H34.096H34.0958H34.0955H34.0953H34.095H34.0947H34.0945H34.0942H34.094H34.0937H34.0934H34.0932H34.0929H34.0927H34.0924H34.0921H34.0919H34.0916H34.0914H34.0911H34.0908H34.0906H34.0903H34.0901H34.0898H34.0896H34.0893H34.089H34.0888H34.0885H34.0883H34.088H34.0877H34.0875H34.0872H34.087H34.0867H34.0864H34.0862H34.0859H34.0857H34.0854H34.0851H34.0849H34.0846H34.0844H34.0841H34.0839H34.0836H34.0833H34.0831H34.0828H34.0826H34.0823H34.082H34.0818H34.0815H34.0813H34.081H34.0807H34.0805H34.0802H34.08H34.0797H34.0794H34.0792H34.0789H34.0787H34.0784H34.0781H34.0779H34.0776H34.0774H34.0771H34.0768H34.0766H34.0763H34.0761H34.0758H34.0755H34.0753H34.075H34.0748H34.0745H34.0742H34.074H34.0737H34.0735H34.0732H34.0729H34.0727H34.0724H34.0721H34.0719H34.0716H34.0714H34.0711H34.0708H34.0706H34.0703H34.07H34.0698H34.0695H34.0693H34.069H34.0687H34.0685H34.0682H34.0679H34.0677H34.0674H34.0671H34.0669H34.0666H34.0664H34.0661H34.0658H34.0656H34.0653H34.065H34.0648H34.0645H34.0642H34.064H34.0637H34.0634H34.0632H34.0629H34.0626H34.0624H34.0621H34.0618H34.0616H34.0613H34.061H34.0608H34.0605H34.0602H34.06H34.0597H34.0594H34.0592H34.0589H34.0586H34.0584H34.0581H34.0578H34.0576H34.0573H34.057H34.0567H34.0565H34.0562H34.0559H34.0557H34.0554H34.0551H34.0548H34.0546H34.0543H34.054H34.0538H34.0535H34.0532H34.0529H34.0527H34.0524H34.0521H34.0519H34.0516H34.0513H34.051H34.0508H34.0505H34.0502H34.0499H34.0497H34.0494H34.0491H34.0488H34.0486H34.0483H34.048H34.0477H34.0474H34.0472H34.0469H34.0466H34.0463H34.0461H34.0458H34.0455H34.0452H34.0449H34.0447H34.0444H34.0441H34.0438H34.0435H34.0433H34.043H34.0427H34.0424H34.0421H34.0419H34.0416H34.0413H34.041H34.0407H34.0404H34.0402H34.0399H34.0396H34.0393H34.039H34.0387H34.0384H34.0382H34.0379H34.0376H34.0373H34.037H34.0367H34.0364H34.0361H34.0359H34.0356H34.0353H34.035H34.0347H34.0344H34.0341H34.0338H34.0335H34.0332H34.033H34.0327H34.0324H34.0321H34.0318H34.0315H34.0312H34.0309H34.0306H34.0303H34.03H34.0297H34.0294H34.0291H34.0288H34.0285H34.0283H34.028H34.0277H34.0274H34.0271H34.0268H34.0265H34.0262H34.0259H34.0256H34.0253H34.025H34.0247H34.0244H34.0241H34.0238H34.0235H34.0232H34.0228H34.0225H34.0222H34.0219H34.0216H34.0213H34.021H34.0207H34.0204H34.0201H34.0198H34.0195H34.0192H34.0189H34.0186H34.0183H34.0179H34.0176H34.0173H34.017H33.901Z" fill="#222222" stroke="#222222"/>
<path d="M42.0615 13.2153L42.0619 13.216C43.5052 15.9402 44.4541 19.1168 45.0418 21.6056C45.3363 22.8531 45.5417 23.9344 45.6735 24.7093C45.7395 25.0968 45.7871 25.4082 45.8184 25.6258C45.834 25.7346 45.8456 25.8204 45.8534 25.881C45.8573 25.9112 45.8603 25.936 45.8625 25.9546L45.8645 25.9733C45.904 26.1825 46.0769 26.3171 46.2526 26.3171H46.2528H46.253H46.2532H46.2534H46.2536H46.2538H46.254H46.2542H46.2544H46.2546H46.2548H46.255H46.2552H46.2555H46.2557H46.2559H46.2561H46.2563H46.2565H46.2567H46.2569H46.2571H46.2573H46.2575H46.2577H46.2579H46.2581H46.2584H46.2586H46.2588H46.259H46.2592H46.2594H46.2596H46.2598H46.26H46.2602H46.2604H46.2606H46.2608H46.261H46.2613H46.2615H46.2617H46.2619H46.2621H46.2623H46.2625H46.2627H46.2629H46.2631H46.2633H46.2635H46.2637H46.2639H46.2642H46.2644H46.2646H46.2648H46.265H46.2652H46.2654H46.2656H46.2658H46.266H46.2662H46.2664H46.2666H46.2668H46.2671H46.2673H46.2675H46.2677H46.2679H46.2681H46.2683H46.2685H46.2687H46.2689H46.2691H46.2693H46.2695H46.2697H46.27H46.2702H46.2704H46.2706H46.2708H46.271H46.2712H46.2714H46.2716H46.2718H46.272H46.2722H46.2724H46.2726H46.2729H46.2731H46.2733H46.2735H46.2737H46.2739H46.2741H46.2743H46.2745H46.2747H46.2749H46.2751H46.2753H46.2755H46.2758H46.276H46.2762H46.2764H46.2766H46.2768H46.277H46.2772H46.2774H46.2776H46.2778H46.278H46.2782H46.2785H46.2787H46.2789H46.2791H46.2793H46.2795H46.2797H46.2799H46.2801H46.2803H46.2805H46.2807H46.2809H46.2811H46.2814H46.2816H46.2818H46.282H46.2822H46.2824H46.2826H46.2828H46.283H46.2832H46.2834H46.2836H46.2838H46.284H46.2843H46.2845H46.2847H46.2849H46.2851H46.2853H46.2855H46.2857H46.2859H46.2861H46.2863H46.2865H46.2867H46.2869H46.2872H46.2874H46.2876H46.2878H46.288H46.2882H46.2884H46.2886H46.2888H46.289H46.2892H46.2894H46.2896H46.2898H46.2901H46.2903H46.2905H46.2907H46.2909H46.2911H46.2913H46.2915H46.2917H46.2919H46.2921H46.2923H46.2925H46.2927H46.293H46.2932H46.2934H46.2936H46.2938H46.294H46.2942H46.2944H46.2946H46.2948H46.295H46.2952H46.2954H46.2956H46.2959H46.2961H46.2963H46.2965H46.2967H46.2969H46.2971H46.2973H46.2975H46.2977H46.2979H46.2981H46.2983H46.2985H46.2988H46.299H46.2992H46.2994H46.2996H46.2998H46.3H46.3002H46.3004H46.3006H46.3008H46.301H46.3012H46.3014H46.3017H46.3019H46.3021H46.3023H46.3025H46.3027H46.3029H46.3031H46.3033H46.3035H46.3037H46.3039H46.3041H46.3043H46.3046H46.3048H46.305H46.3052H46.3054H46.3056H46.3058H46.306H46.3062H46.3064H46.3066H46.3068H46.307H46.3073H46.3075H46.3077H46.3079H46.3081H46.3083H46.3085H46.3087H46.3089H46.3091H46.3093H46.3095H46.3097H46.3099H46.3102H46.3104H46.3106H46.3108H46.311H46.3112H46.3114H46.3116H46.3118H46.312H46.3122H46.3124H46.3126H46.3128H46.3131H46.3133H46.3135H46.3137H46.3139H46.3141H46.3142C46.5075 26.2733 46.6445 26.0852 46.622 25.8822C46.5878 25.5742 45.6755 18.3877 42.7345 12.8537L42.7342 12.8533C40.5039 8.64606 36.6249 7.44556 33.8067 8.06818L33.8065 8.06824C30.9338 8.7012 29.0077 11.1497 28.8231 14.573C28.4889 20.8911 33.529 24.7423 33.8859 25.015L42.0615 13.2153ZM42.0615 13.2153C40.0544 9.4427 36.5846 8.24206 33.98 8.82449C31.36 9.39642 29.7614 11.6269 29.5927 14.6065L29.5927 14.6065L29.5926 14.6085C29.2776 20.5931 34.3174 24.3767 34.2824 24.3417L34.3102 24.3694L34.3419 24.3925C34.5068 24.5124 34.5471 24.7653 34.4261 24.9317C34.3102 25.091 34.0757 25.1414 33.886 25.0151L42.0615 13.2153Z" fill="#222222" stroke="#222222"/>
<path d="M16.924 62.8007L16.9239 62.799C16.8612 60.9499 17.9848 59.1745 20.1346 57.9651C24.9137 55.2866 25.3984 52.4851 25.4273 52.0673L25.4275 52.0673C25.4434 51.8521 25.6122 51.6862 25.8389 51.6817C26.0505 51.6941 26.2045 51.8634 26.1973 52.0655L26.197 52.0745V52.0834C26.197 52.0832 26.197 52.0834 26.197 52.0838C26.1956 52.1297 26.0966 55.4982 20.5115 58.6314L20.5105 58.6319C18.7536 59.6225 17.6508 61.1107 17.6925 62.7753L17.6926 62.7787C17.7342 64.089 18.4885 65.2047 19.706 65.7938C20.8459 66.3531 22.5497 66.3957 24.0693 66.2805C25.6176 66.1631 27.0969 65.8705 27.8663 65.669C28.0743 65.6154 28.2798 65.7355 28.3347 65.9472C28.3883 66.1536 28.2707 66.3577 28.0623 66.4148C28.0516 66.4172 28.0369 66.4207 28.0183 66.4251C27.599 66.5242 25.2067 67.0898 22.8071 67.0898C21.5082 67.0898 20.29 66.9318 19.3656 66.4859C17.8983 65.7677 16.9711 64.3566 16.924 62.8007Z" fill="#222222" stroke="#222222"/>
<path d="M56.545 54.1269C58.2041 52.9741 60.3924 50.5981 61.7922 47.764C63.1931 44.9276 63.7602 41.7296 62.3531 38.8658L62.3525 38.8646C59.7925 33.6189 54.2634 34.2066 53.4688 34.2921L53.4688 34.2923C53.2461 34.3336 53.1094 34.5458 53.1445 34.7351C53.1857 34.9578 53.3979 35.0945 53.5873 35.0595L53.5961 35.0578L53.5961 35.0579C53.7345 35.0349 55.1237 34.8216 56.7909 35.2337C58.4745 35.6499 60.4491 36.7085 61.6772 39.221L56.545 54.1269ZM56.545 54.1269C56.4664 54.1784 56.3868 54.1999 56.3128 54.1999H56.2202C56.1448 54.1757 56.0705 54.1266 56.0096 54.0512C55.8968 53.8785 55.9379 53.6464 56.121 53.519L55.8354 53.1086M56.545 54.1269L55.8354 53.1086M55.8354 53.1086L56.1203 53.5195C57.5176 52.5507 59.5628 50.3881 60.9363 47.7951C62.3072 45.2071 63.071 42.0662 61.6774 39.2214L55.8354 53.1086Z" fill="#222222" stroke="#222222"/>
<path d="M38.2197 24.1416L38.2163 24.132L38.2126 24.1226C38.0315 23.6655 37.1508 21.3677 36.6179 18.7181C36.3514 17.3933 36.1753 15.997 36.2112 14.7082C36.2472 13.4135 36.496 12.2726 37.0381 11.4202L37.0381 11.4202L37.039 11.4187C37.6668 10.4235 38.6763 9.857 40.023 9.77684L40.023 9.77685L40.0265 9.77661C40.2576 9.76121 40.4141 9.89841 40.4316 10.1444C40.4462 10.3484 40.2996 10.5288 40.0667 10.5469C39.0054 10.6079 38.2059 11.0053 37.679 11.8392C37.1936 12.6037 37.0015 13.6128 36.97 14.6742C36.9382 15.7455 37.0688 16.9271 37.2778 18.0815C37.6956 20.3879 38.439 22.6505 38.9085 23.8341C38.989 24.0462 38.8904 24.2566 38.7083 24.3318C38.6594 24.3481 38.6277 24.3582 38.5989 24.3654C38.5715 24.3722 38.5609 24.3726 38.5609 24.3726C38.4016 24.3725 38.2674 24.2779 38.2197 24.1416Z" fill="#222222" stroke="#222222"/>
<path d="M36.0883 58.2538L36.0883 58.2539L36.0943 58.2529L47.5517 56.4141L47.5593 56.4129L47.5669 56.4114C47.744 56.3774 47.9562 56.5195 47.9857 56.7186L48.4803 56.6453L47.9857 56.7186C48.0188 56.942 47.8675 57.1311 47.6821 57.1586L47.6821 57.1585L47.6761 57.1595L36.2581 58.992H36.2578H36.2575H36.2572H36.2569H36.2566H36.2563H36.2559H36.2556H36.2553H36.255H36.2547H36.2543H36.254H36.2537H36.2534H36.2531H36.2527H36.2524H36.2521H36.2517H36.2514H36.2511H36.2508H36.2504H36.2501H36.2498H36.2494H36.2491H36.2488H36.2484H36.2481H36.2478H36.2474H36.2471H36.2468H36.2464H36.2461H36.2457H36.2454H36.2451H36.2447H36.2444H36.244H36.2437H36.2434H36.243H36.2427H36.2423H36.242H36.2416H36.2413H36.2409H36.2406H36.2402H36.2399H36.2395H36.2392H36.2389H36.2385H36.2382H36.2378H36.2374H36.2371H36.2367H36.2364H36.236H36.2357H36.2353H36.235H36.2346H36.2343H36.2339H36.2336H36.2332H36.2328H36.2325H36.2321H36.2318H36.2314H36.2311H36.2307H36.2303H36.23H36.2296H36.2293H36.2289H36.2285H36.2282H36.2278H36.2274H36.2271H36.2267H36.2264H36.226H36.2256H36.2253H36.2249H36.2245H36.2242H36.2238H36.2234H36.2231H36.2227H36.2224H36.222H36.2216H36.2213H36.2209H36.2205H36.2202H36.2198H36.2194H36.2191H36.2187H36.2183H36.218H36.2176H36.2172H36.2168H36.2165H36.2161H36.2157H36.2154H36.215H36.2146H36.2143H36.2139H36.2135H36.2132H36.2128H36.2124H36.212H36.2117H36.2113H36.2109H36.2106H36.2102H36.2098H36.2095H36.2091H36.2087H36.2084H36.208H36.2076H36.2072H36.2069H36.2065H36.2061H36.2058H36.2054H36.205H36.2047H36.2043H36.2039H36.2035H36.2032H36.2028H36.2024H36.2021H36.2017H36.2013H36.201H36.2006H36.2002H36.1999H36.1995H36.1991H36.1987H36.1984H36.198H36.1976H36.1973H36.1969H36.1965H36.1962H36.1958H36.1954H36.1951H36.1947H36.1943H36.194H36.1936H36.1932H36.1929H36.1925H36.1921H36.1918H36.1914H36.191H36.1907H36.1903H36.19H36.1896H36.1892H36.1889H36.1885H36.1881H36.1878H36.1874H36.1871H36.1867H36.1863H36.186H36.1856H36.1853H36.1849H36.1845H36.1842H36.1838H36.1835H36.1831H36.1827H36.1824H36.182H36.1817H36.1813H36.181H36.1806H36.1803H36.1799H36.1795H36.1792H36.1788H36.1785H36.1781H36.1778H36.1774H36.1771H36.1767H36.1764H36.176H36.1757H36.1753H36.175H36.1746H36.1743H36.1739H36.1736H36.1733H36.1729H36.1726H36.1722H36.1719H36.1715H36.1712H36.1709H36.1705H36.1702H36.1698H36.1695H36.1692H36.1688H36.1685H36.1681H36.1678H36.1675H36.1671H36.1668H36.1665H36.1661H36.1658H36.1655H36.1651H36.1648H36.1645H36.1642H36.1638H36.1635H36.1632H36.1628H36.1625H36.1622H36.1619H36.1616H36.1612H36.1609H36.1606H36.1603H36.1599H36.1596H36.1593H36.159H36.1587H36.1584H36.158H36.1577H36.1574H36.1571H36.1568H36.1565H36.0405C35.9105 58.951 35.8094 58.8414 35.7843 58.6909C35.7529 58.4688 35.9037 58.2812 36.0883 58.2538Z" fill="#222222" stroke="#222222"/>
<path d="M36.6542 61.7723L36.6542 61.7723L36.6602 61.7714L48.1176 59.9325L48.1323 59.9302L48.1468 59.9269C48.3115 59.8903 48.5189 60.016 48.5516 60.237C48.5847 60.4604 48.4335 60.6495 48.248 60.677L48.248 60.677L48.2421 60.6779L36.824 62.5104H36.8238H36.8234H36.8231H36.8228H36.8225H36.8222H36.8219H36.8215H36.8212H36.8209H36.8206H36.8203H36.8199H36.8196H36.8193H36.819H36.8186H36.8183H36.818H36.8177H36.8173H36.817H36.8167H36.8163H36.816H36.8157H36.8154H36.815H36.8147H36.8144H36.814H36.8137H36.8133H36.813H36.8127H36.8123H36.812H36.8117H36.8113H36.811H36.8106H36.8103H36.81H36.8096H36.8093H36.8089H36.8086H36.8082H36.8079H36.8076H36.8072H36.8069H36.8065H36.8062H36.8058H36.8055H36.8051H36.8048H36.8044H36.8041H36.8037H36.8034H36.803H36.8027H36.8023H36.802H36.8016H36.8012H36.8009H36.8005H36.8002H36.7998H36.7995H36.7991H36.7988H36.7984H36.798H36.7977H36.7973H36.797H36.7966H36.7963H36.7959H36.7955H36.7952H36.7948H36.7945H36.7941H36.7937H36.7934H36.793H36.7926H36.7923H36.7919H36.7916H36.7912H36.7908H36.7905H36.7901H36.7897H36.7894H36.789H36.7886H36.7883H36.7879H36.7875H36.7872H36.7868H36.7864H36.7861H36.7857H36.7853H36.785H36.7846H36.7842H36.7839H36.7835H36.7831H36.7828H36.7824H36.782H36.7817H36.7813H36.7809H36.7806H36.7802H36.7798H36.7794H36.7791H36.7787H36.7783H36.778H36.7776H36.7772H36.7769H36.7765H36.7761H36.7757H36.7754H36.775H36.7746H36.7743H36.7739H36.7735H36.7732H36.7728H36.7724H36.772H36.7717H36.7713H36.7709H36.7706H36.7702H36.7698H36.7695H36.7691H36.7687H36.7684H36.768H36.7676H36.7672H36.7669H36.7665H36.7661H36.7658H36.7654H36.765H36.7647H36.7643H36.7639H36.7636H36.7632H36.7628H36.7625H36.7621H36.7617H36.7614H36.761H36.7606H36.7603H36.7599H36.7595H36.7592H36.7588H36.7584H36.7581H36.7577H36.7573H36.757H36.7566H36.7562H36.7559H36.7555H36.7551H36.7548H36.7544H36.7541H36.7537H36.7533H36.753H36.7526H36.7523H36.7519H36.7515H36.7512H36.7508H36.7505H36.7501H36.7497H36.7494H36.749H36.7487H36.7483H36.7479H36.7476H36.7472H36.7469H36.7465H36.7462H36.7458H36.7455H36.7451H36.7448H36.7444H36.7441H36.7437H36.7434H36.743H36.7427H36.7423H36.742H36.7416H36.7413H36.7409H36.7406H36.7402H36.7399H36.7395H36.7392H36.7388H36.7385H36.7381H36.7378H36.7375H36.7371H36.7368H36.7364H36.7361H36.7358H36.7354H36.7351H36.7347H36.7344H36.7341H36.7337H36.7334H36.7331H36.7327H36.7324H36.7321H36.7317H36.7314H36.7311H36.7307H36.7304H36.7301H36.7297H36.7294H36.7291H36.7288H36.7284H36.7281H36.7278H36.7275H36.7271H36.7268H36.7265H36.7262H36.7259H36.7255H36.7252H36.7249H36.7246H36.7243H36.724H36.7236H36.7233H36.723H36.7227H36.7224H36.6064C36.4764 62.4694 36.3753 62.3598 36.3502 62.2094C36.3188 61.9872 36.4696 61.7996 36.6542 61.7723Z" fill="#222222" stroke="#222222"/>
<path d="M42.0441 44.2861C43.2287 43.296 43.9006 41.7224 43.6354 40.078C43.2287 37.585 40.8948 35.9052 38.4017 36.2942C35.9087 36.6832 34.229 39.0348 34.618 41.5279C34.8832 43.1722 35.9971 44.4453 37.447 45.0288C35.6612 46.2134 34.6356 48.3528 34.9893 50.616L35.3429 52.7555L46.4821 50.9696L46.1284 48.8302C45.7571 46.5847 44.1128 44.8696 42.0441 44.3038V44.2861Z" fill="#FFEE8B"/>
<path d="M35.3253 53.1218H35.2204C35.1819 53.1105 35.1501 53.0953 35.1302 53.0803L35.1302 53.0803L35.1243 53.076C35.0416 53.0158 34.9866 52.9239 34.9708 52.8208L34.9708 52.8208L34.9699 52.8153L34.6164 50.6766C34.6164 50.6765 34.6163 50.6764 34.6163 50.6762C34.3069 48.7864 34.9423 46.8763 36.249 45.537L36.6536 45.1222L36.184 44.7827C35.1439 44.0306 34.4545 42.9109 34.2453 41.6077L34.2453 41.6076C33.8119 38.9108 35.6586 36.3728 38.3398 35.9391C39.6436 35.7299 40.9585 36.0361 42.0153 36.8046L42.0153 36.8046L42.0182 36.8067C43.0929 37.5767 43.7991 38.7312 44.0081 40.0334C44.2173 41.3364 43.9119 42.6167 43.1595 43.6572L42.8201 44.1267L43.3342 44.3938C45.0017 45.2603 46.2079 46.8775 46.5008 48.7654L46.5008 48.7654L46.5016 48.7703L46.8547 50.9066C46.8737 51.0329 46.8496 51.108 46.8024 51.1657C46.7066 51.2828 46.6164 51.3285 46.5299 51.3418L46.5299 51.3418L46.5267 51.3423L35.4269 53.1218H35.4269H35.4266H35.4263H35.426H35.4257H35.4254H35.4251H35.4247H35.4244H35.4241H35.4238H35.4235H35.4231H35.4228H35.4225H35.4222H35.4218H35.4215H35.4212H35.4209H35.4205H35.4202H35.4199H35.4196H35.4192H35.4189H35.4186H35.4182H35.4179H35.4176H35.4172H35.4169H35.4166H35.4162H35.4159H35.4155H35.4152H35.4149H35.4145H35.4142H35.4139H35.4135H35.4132H35.4128H35.4125H35.4121H35.4118H35.4115H35.4111H35.4108H35.4104H35.4101H35.4097H35.4094H35.409H35.4087H35.4083H35.408H35.4076H35.4073H35.4069H35.4066H35.4062H35.4059H35.4055H35.4052H35.4048H35.4045H35.4041H35.4038H35.4034H35.4031H35.4027H35.4023H35.402H35.4016H35.4013H35.4009H35.4006H35.4002H35.3998H35.3995H35.3991H35.3988H35.3984H35.398H35.3977H35.3973H35.397H35.3966H35.3962H35.3959H35.3955H35.3952H35.3948H35.3944H35.3941H35.3937H35.3933H35.393H35.3926H35.3922H35.3919H35.3915H35.3911H35.3908H35.3904H35.39H35.3897H35.3893H35.3889H35.3886H35.3882H35.3878H35.3875H35.3871H35.3867H35.3864H35.386H35.3856H35.3853H35.3849H35.3845H35.3842H35.3838H35.3834H35.3831H35.3827H35.3823H35.382H35.3816H35.3812H35.3808H35.3805H35.3801H35.3797H35.3794H35.379H35.3786H35.3783H35.3779H35.3775H35.3771H35.3768H35.3764H35.376H35.3757H35.3753H35.3749H35.3746H35.3742H35.3738H35.3734H35.3731H35.3727H35.3723H35.372H35.3716H35.3712H35.3709H35.3705H35.3701H35.3697H35.3694H35.369H35.3686H35.3683H35.3679H35.3675H35.3672H35.3668H35.3664H35.3661H35.3657H35.3653H35.365H35.3646H35.3642H35.3639H35.3635H35.3631H35.3628H35.3624H35.362H35.3617H35.3613H35.3609H35.3606H35.3602H35.3598H35.3595H35.3591H35.3587H35.3584H35.358H35.3577H35.3573H35.3569H35.3566H35.3562H35.3558H35.3555H35.3551H35.3548H35.3544H35.354H35.3537H35.3533H35.353H35.3526H35.3523H35.3519H35.3515H35.3512H35.3508H35.3505H35.3501H35.3498H35.3494H35.349H35.3487H35.3483H35.348H35.3476H35.3473H35.3469H35.3466H35.3462H35.3459H35.3455H35.3452H35.3448H35.3445H35.3441H35.3438H35.3434H35.3431H35.3427H35.3424H35.3421H35.3417H35.3414H35.341H35.3407H35.3403H35.34H35.3396H35.3393H35.339H35.3386H35.3383H35.338H35.3376H35.3373H35.3369H35.3366H35.3363H35.3359H35.3356H35.3353H35.3349H35.3346H35.3343H35.3339H35.3336H35.3333H35.3329H35.3326H35.3323H35.332H35.3316H35.3313H35.331H35.3307H35.3303H35.33H35.3297H35.3294H35.3291H35.3287H35.3284H35.3281H35.3278H35.3275H35.3271H35.3268H35.3265H35.3262H35.3259H35.3256H35.3253ZM45.9675 50.1448L45.7554 48.8725C45.4232 46.8592 43.9389 45.1998 41.9474 44.6528C41.8002 44.6117 41.6973 44.5037 41.667 44.3599L41.6671 44.3599L41.6659 44.3544C41.6343 44.2127 41.682 44.0739 41.7907 43.987L41.7908 43.9871L41.8004 43.979C42.9393 43.0199 43.486 41.5728 43.245 40.1218C42.9219 38.0704 41.1342 36.6075 39.1267 36.6075C39.1203 36.6075 39.1138 36.6075 39.1072 36.6075C38.9305 36.6074 38.6895 36.6073 38.4394 36.6709C36.1788 37.045 34.6489 39.1887 35.0082 41.4644L35.0082 41.4644L35.0089 41.4686C35.2495 42.9122 36.2133 44.1184 37.5958 44.6614C37.7265 44.7166 37.8191 44.8429 37.8341 44.9778C37.8486 45.1077 37.7768 45.2624 37.6655 45.3371C35.9468 46.4707 35.0472 48.5215 35.3801 50.5383L35.3802 50.539L35.5924 51.8121L35.674 52.3021L36.1646 52.2236L45.5533 50.7207L46.0502 50.6412L45.9675 50.1448Z" fill="#222222" stroke="#222222"/>
</svg>
