<svg width="80" height="80" viewBox="0 0 80 80" fill="none" xmlns="http://www.w3.org/2000/svg">
<path d="M68.238 26.6728L54.1408 13.2354C52.95 12.1089 51.389 11.4973 49.7475 11.5456C48.106 11.5939 46.5772 12.2537 45.4508 13.4446L41.2345 17.8701C39.7217 19.4632 39.239 21.6519 39.7378 23.6313L35.1031 27.6062L34.5399 27.0751C33.349 25.9486 31.788 25.3371 30.1466 25.3854C28.5051 25.4336 26.9763 26.0934 25.8498 27.2843L20.845 32.5305C19.7185 33.7214 19.107 35.2824 19.1553 36.9238C19.2035 38.5653 19.8794 40.0941 21.0703 41.2367L26.4131 46.322L13.6676 62.0446C11.9457 64.1849 12.1871 67.2747 14.247 69.238C15.3252 70.2679 16.7092 70.8151 18.1414 70.7829C19.3645 70.7507 20.5392 70.284 21.4404 69.4794L36.5354 55.9937L41.8782 61.0951C43.069 62.2377 44.63 62.8331 46.2715 62.7848C47.9129 62.7366 49.4417 62.0607 50.5682 60.8859L55.5731 55.6397C57.9065 53.1936 57.826 49.283 55.3639 46.9496L54.8006 46.4185L58.5341 41.6068C58.9847 41.7034 59.4514 41.7356 59.9181 41.7356C61.5596 41.7034 63.0884 41.0275 64.2149 39.8366L68.4311 35.4111C70.7646 32.965 70.6841 29.0545 68.2219 26.7211L68.238 26.6728Z" fill="#DADADA"/>
<path d="M67.6587 25.8513L53.6419 11.8346C52.4672 10.6598 50.8901 10 49.2165 10C47.5428 10 45.9657 10.6437 44.791 11.8346L40.3976 16.2279C38.8206 17.805 38.2734 20.0258 38.724 22.0534L33.9123 25.9801L33.3651 25.4329C32.1904 24.2581 30.6133 23.5983 28.9396 23.5983C27.266 23.5983 25.6889 24.2421 24.5141 25.4329L19.3001 30.647C18.1253 31.8378 17.4655 33.3988 17.4655 35.0725C17.4655 36.7461 18.1253 38.3232 19.3001 39.4979L24.6107 44.8085L11.2537 60.4989C9.43526 62.6232 9.61228 65.7774 11.6721 67.8211C12.7504 68.8993 14.1343 69.4787 15.5988 69.4787C16.8379 69.4787 18.0449 69.0442 18.9943 68.2395L34.6847 54.8826L39.9953 60.1932C41.1862 61.384 42.7472 62.0278 44.4208 62.0278C46.0945 62.0278 47.6716 61.384 48.8463 60.1932L54.0604 54.9791C56.5065 52.533 56.5065 48.5742 54.0604 46.1281L53.5132 45.581L57.4398 40.7693C57.8904 40.8658 58.3732 40.9302 58.8399 40.9302C60.5135 40.9302 62.0906 40.2865 63.2654 39.0956L67.6587 34.7023C70.1048 32.2562 70.1048 28.2974 67.6587 25.8513Z" fill="white"/>
<path d="M48.2507 21.1523L30.0498 35.0725L45.177 49.218L59.419 31.2425L48.2507 21.1523Z" fill="#FF304E"/>
<path d="M50.6635 49.5531L29.9532 28.8428C29.3939 28.2835 28.487 28.2835 27.9277 28.8428L22.716 34.0545C22.1566 34.6139 22.1566 35.5207 22.716 36.08L43.4262 56.7903C43.9856 57.3496 44.8924 57.3496 45.4517 56.7903L50.6635 51.5786C51.2228 51.0193 51.2228 50.1124 50.6635 49.5531Z" fill="#FF3D5C"/>
<path d="M64.2483 29.2683L50.2291 15.2491C49.6697 14.6898 48.7629 14.6898 48.2036 15.2491L43.8112 19.6415C43.2518 20.2008 43.2518 21.1077 43.8112 21.667L57.8304 35.6862C58.3897 36.2456 59.2966 36.2456 59.8559 35.6862L64.2483 31.2939C64.8077 30.7345 64.8077 29.8277 64.2483 29.2683Z" fill="#FF3D5C"/>
<path d="M31.0153 44.729L14.9226 63.6379C14.5364 64.0885 15.4054 64.9575 15.856 64.5713L34.7649 48.4625L31.0153 44.7129V44.729Z" fill="#DADADA"/>
<path d="M22.4793 33.8551L22.4793 33.8552L22.486 33.8485L27.7 28.6344C28.0277 28.3068 28.4649 28.1211 28.9236 28.1211C29.3822 28.1211 29.8195 28.3068 30.1471 28.6344L50.8584 49.3458C51.5322 50.0195 51.5322 51.1191 50.8584 51.7928L45.6444 57.0069C45.3053 57.346 44.8538 57.5202 44.4209 57.5202C43.9737 57.5202 43.5378 57.3473 43.1973 57.0069L22.486 36.2956C22.1584 35.9679 21.9727 35.5307 21.9727 35.072C21.9727 34.6051 22.1478 34.1743 22.4793 33.8551ZM28.1598 29.0311L28.1473 29.0421L28.1355 29.0538L22.9215 34.2679C22.7067 34.4827 22.598 34.7747 22.598 35.072C22.598 35.3832 22.7161 35.6547 22.9215 35.8601L43.6328 56.5714C44.0695 57.0081 44.7884 57.0081 45.225 56.5714L50.4391 51.3574C50.8757 50.9207 50.8757 50.2018 50.4391 49.7652L29.7277 29.0538C29.5175 28.8436 29.2277 28.7304 28.9397 28.7304C28.6461 28.7304 28.3707 28.8466 28.1598 29.0311Z" fill="#222222" stroke="#222222"/>
<path d="M43.5995 21.8768L43.5993 21.8766C43.2717 21.5489 43.0859 21.1117 43.0859 20.6531C43.0859 20.1862 43.2611 19.7553 43.5926 19.4361L43.5926 19.4362L43.5993 19.4295L47.9926 15.0362C48.6521 14.3767 49.7973 14.3816 50.4363 15.0328L50.4397 15.0362L64.4564 29.053C65.1302 29.7267 65.1302 30.8263 64.4564 31.5L60.0631 35.8933C59.724 36.2324 59.2725 36.4067 58.8396 36.4067C58.383 36.4067 57.95 36.2434 57.616 35.9094L43.5995 21.8768ZM43.9959 21.4329L44.0069 21.4454L44.0187 21.4572L58.0354 35.474L58.1819 35.6204H58.2322C58.6679 35.9034 59.2631 35.8546 59.6437 35.474L64.037 31.0806C64.4737 30.644 64.4737 29.9251 64.037 29.4884L50.0042 15.4556C49.5675 15.0189 48.8486 15.0189 48.412 15.4556L44.0187 19.8489C43.8039 20.0637 43.6952 20.3557 43.6952 20.6531C43.6952 20.9689 43.816 21.2273 43.9959 21.4329Z" fill="#222222" stroke="#222222"/>
<path d="M33.7408 32.7354C33.7156 32.7578 33.6586 32.7844 33.5671 32.786C33.4787 32.784 33.3884 32.7439 33.3329 32.679C33.2314 32.5504 33.2565 32.3535 33.3737 32.2586L33.3754 32.2572L44.9605 22.796C44.9607 22.7959 44.9609 22.7957 44.9611 22.7955C45.0897 22.692 45.2883 22.7168 45.3838 22.8347C45.4878 22.9633 45.4632 23.1623 45.3451 23.2579L45.3435 23.2593L33.7567 32.7218L33.7486 32.7284L33.7408 32.7354Z" fill="#222222" stroke="#222222"/>
<path d="M47.2377 46.0989C47.1797 46.1678 47.1022 46.2049 47.0047 46.2071C46.9539 46.2056 46.8833 46.1868 46.7993 46.1315C46.679 46.0232 46.6704 45.8378 46.7635 45.7291L46.7636 45.7292L46.7711 45.72L56.2291 34.1388C56.3476 34.0042 56.5374 33.9951 56.6583 34.0929C56.7898 34.1994 56.802 34.3932 56.7059 34.5054L56.7058 34.5053L56.6983 34.5145L47.2377 46.0989Z" fill="#222222" stroke="#222222"/>
<path d="M16.0777 64.8183C15.9866 64.8964 15.8833 64.9474 15.7706 64.9715H15.5985C15.3705 64.9715 15.0928 64.8702 14.8577 64.6351L14.5051 64.9878L14.8577 64.6351C14.4381 64.2155 14.4448 63.7211 14.6923 63.4293L30.7834 44.5223C30.7835 44.5222 30.7836 44.522 30.7838 44.5219C30.9002 44.3865 31.1002 44.3765 31.221 44.48C31.3567 44.5963 31.3669 44.7967 31.2633 44.9175L31.2622 44.9188L16.296 62.492L17.0007 63.197L34.59 48.2308L34.5914 48.2296C34.7123 48.126 34.9126 48.1362 35.029 48.2719C35.1325 48.3927 35.1224 48.5927 34.9871 48.7091C34.987 48.7092 34.9868 48.7093 34.9866 48.7095L16.0789 64.8173L16.0777 64.8183Z" fill="#222222" stroke="#222222"/>
</svg>
