<svg width="150" height="150" viewBox="0 0 150 150" fill="none" xmlns="http://www.w3.org/2000/svg">
<g clip-path="url(#clip0_389_1442)">
<path d="M64.7659 126.894C95.5646 126.894 120.532 103.86 120.532 75.4469C120.532 47.0336 95.5646 24 64.7659 24C33.9673 24 9 47.0336 9 75.4469C9 103.86 33.9673 126.894 64.7659 126.894Z" fill="url(#paint0_linear_389_1442)"/>
<path d="M121.358 82.2214C109.036 78.4105 95.5706 84.0845 90.1718 95.9617C86.4668 104.134 87.4618 113.238 92.0137 120.33C107.511 112.835 118.732 98.8199 121.358 82.2214Z" fill="url(#paint1_linear_389_1442)"/>
<path d="M64.7661 97.5284C48.6122 97.5284 35.4858 85.3124 35.4858 70.3018H40.4188C40.4188 82.6024 51.3433 92.5954 64.7873 92.5954C78.2312 92.5954 89.1558 82.6024 89.1558 70.3018H94.0887C94.0887 85.3124 80.9412 97.5284 64.8085 97.5284H64.7661Z" fill="white"/>
<path d="M55.5774 71.0855C58.6877 71.0855 61.2091 66.6399 61.2091 61.156C61.2091 55.6721 58.6877 51.2266 55.5774 51.2266C52.4672 51.2266 49.9458 55.6721 49.9458 61.156C49.9458 66.6399 52.4672 71.0855 55.5774 71.0855Z" fill="white"/>
<path d="M73.9334 71.0855C77.0437 71.0855 79.565 66.6399 79.565 61.156C79.565 55.6721 77.0437 51.2266 73.9334 51.2266C70.8231 51.2266 68.3018 55.6721 68.3018 61.156C68.3018 66.6399 70.8231 71.0855 73.9334 71.0855Z" fill="white"/>
<path d="M139.662 111.902C145.523 99.0116 139.652 83.7326 126.549 77.775C113.446 71.8174 98.0732 77.4374 92.2124 90.3274C86.3517 103.218 92.2226 118.497 105.326 124.454C118.429 130.412 133.802 124.792 139.662 111.902Z" fill="url(#paint2_linear_389_1442)"/>
<path d="M111.386 111.121C104.06 107.797 100.609 99.5399 103.7 92.7227L105.944 93.7389C103.404 99.307 106.304 106.103 112.402 108.877C118.499 111.65 125.528 109.364 128.048 103.795L130.292 104.812C127.201 111.629 118.711 114.445 111.386 111.121Z" fill="white"/>
<path d="M117.282 93.9246C118.414 91.4338 118.185 88.8929 116.769 88.2492C115.353 87.6056 113.287 89.1029 112.155 91.5936C111.023 94.0844 111.252 96.6253 112.668 97.269C114.083 97.9127 116.149 96.4153 117.282 93.9246Z" fill="white"/>
<path d="M125.596 97.6912C126.729 95.2004 126.499 92.6595 125.083 92.0158C123.668 91.3722 121.602 92.8695 120.469 95.3602C119.337 97.851 119.567 100.392 120.982 101.036C122.398 101.679 124.464 100.182 125.596 97.6912Z" fill="white"/>
<path d="M111.386 111.121C104.06 107.797 100.609 99.5399 103.7 92.7227L105.944 93.7389C103.404 99.307 106.304 106.103 112.402 108.877C118.499 111.65 125.528 109.364 128.048 103.795L130.292 104.812C127.201 111.629 118.711 114.445 111.386 111.121Z" fill="url(#paint3_linear_389_1442)"/>
<path d="M117.282 93.9246C118.414 91.4338 118.185 88.8929 116.769 88.2492C115.353 87.6056 113.287 89.1029 112.155 91.5936C111.023 94.0844 111.252 96.6253 112.668 97.269C114.083 97.9127 116.149 96.4153 117.282 93.9246Z" fill="url(#paint4_linear_389_1442)"/>
<path d="M125.596 97.6912C126.729 95.2004 126.499 92.6595 125.083 92.0158C123.668 91.3722 121.602 92.8695 120.469 95.3602C119.337 97.851 119.567 100.392 120.982 101.036C122.398 101.679 124.464 100.182 125.596 97.6912Z" fill="url(#paint5_linear_389_1442)"/>
</g>
<defs>
<linearGradient id="paint0_linear_389_1442" x1="51.8936" y1="61.6431" x2="107.257" y2="121.05" gradientUnits="userSpaceOnUse">
<stop stop-color="#FF5650"/>
<stop offset="1" stop-color="#FF3923"/>
</linearGradient>
<linearGradient id="paint1_linear_389_1442" x1="115.133" y1="153.358" x2="106.199" y2="104.028" gradientUnits="userSpaceOnUse">
<stop stop-color="#C93B25"/>
<stop offset="1" stop-color="#FF3923"/>
</linearGradient>
<linearGradient id="paint2_linear_389_1442" x1="102.06" y1="78.8633" x2="135.13" y2="131.919" gradientUnits="userSpaceOnUse">
<stop stop-color="#FFDC50"/>
<stop offset="1" stop-color="#FF8623"/>
</linearGradient>
<linearGradient id="paint3_linear_389_1442" x1="113.778" y1="79.2787" x2="119.918" y2="131.572" gradientUnits="userSpaceOnUse">
<stop stop-color="#FF5650"/>
<stop offset="1" stop-color="#FF3923"/>
</linearGradient>
<linearGradient id="paint4_linear_389_1442" x1="113.153" y1="79.3844" x2="119.293" y2="131.678" gradientUnits="userSpaceOnUse">
<stop stop-color="#FF5650"/>
<stop offset="1" stop-color="#FF3923"/>
</linearGradient>
<linearGradient id="paint5_linear_389_1442" x1="120.92" y1="78.4358" x2="127.081" y2="130.73" gradientUnits="userSpaceOnUse">
<stop stop-color="#FF5650"/>
<stop offset="1" stop-color="#FF3923"/>
</linearGradient>
<clipPath id="clip0_389_1442">
<rect width="132.915" height="102.915" fill="white" transform="translate(9 24)"/>
</clipPath>
</defs>
</svg>
