<svg width="102" height="82" viewBox="0 0 102 82" fill="none" xmlns="http://www.w3.org/2000/svg">
<g id="Group 1669">
<path id="Vector" d="M79.2621 80.9997C91.2682 80.9997 101.001 71.0506 101.001 58.7781C101.001 46.5055 91.2682 36.5566 79.2621 36.5566C67.2562 36.5566 57.5234 46.5055 57.5234 58.7781C57.5234 71.0506 67.2562 80.9997 79.2621 80.9997Z" stroke="#CCCCCC" stroke-width="2" stroke-linecap="round" stroke-linejoin="round"/>
<path id="Vector_2" d="M79.2578 47.6621V69.8835" stroke="#CCCCCC" stroke-width="2" stroke-linecap="round" stroke-linejoin="round"/>
<path id="Vector_3" d="M90.1293 58.7812H68.3906" stroke="#CCCCCC" stroke-width="2" stroke-linecap="round" stroke-linejoin="round"/>
<path id="Vector_4" d="M81.4334 29.8879V1H1V65.4423H50.9991" stroke="#CCCCCC" stroke-width="2" stroke-linecap="round" stroke-linejoin="round"/>
<path id="Vector_5" d="M59.694 36.5448L50.9985 27.6562L35.7812 43.2112" stroke="#CCCCCC" stroke-width="2" stroke-linecap="round" stroke-linejoin="round"/>
<path id="Vector_6" d="M40.1315 47.6674L29.2621 36.5566L9.69727 56.556" stroke="#CCCCCC" stroke-width="2" stroke-linecap="round" stroke-linejoin="round"/>
<path id="Vector_7" d="M20.5665 27.6727C24.1684 27.6727 27.0881 24.688 27.0881 21.0063C27.0881 17.3245 24.1684 14.3398 20.5665 14.3398C16.9647 14.3398 14.0449 17.3245 14.0449 21.0063C14.0449 24.688 16.9647 27.6727 20.5665 27.6727Z" stroke="#CCCCCC" stroke-width="2" stroke-miterlimit="10" stroke-linecap="round"/>
</g>
</svg>
