<svg width="83" height="114" viewBox="0 0 83 114" fill="none" xmlns="http://www.w3.org/2000/svg">
<g clip-path="url(#clip0_546_513)">
<path d="M69.5273 21.4502H13.5635C10.2922 21.4502 8.1406 18.0472 9.52378 15.0832L15.4517 2.5468C16.1982 0.987983 17.757 0 19.4914 0H63.6213C65.3558 0 66.9146 0.987983 67.6611 2.5468L73.567 15.0613C74.9722 18.0252 72.7986 21.4283 69.5273 21.4283V21.4502Z" fill="url(#paint0_linear_546_513)"/>
<path d="M65.9047 113.64H17.1861C15.4297 113.64 13.9587 112.301 13.805 110.567L5.65967 23.7119H77.4531L69.3077 110.567C69.154 112.323 67.683 113.64 65.9266 113.64H65.9047Z" fill="url(#paint1_linear_546_513)"/>
<path d="M78.1335 10.4072H4.9569C2.49542 10.4072 0.5 12.4026 0.5 14.8641V27.4005C0.5 29.862 2.49542 31.8574 4.9569 31.8574H78.1335C80.595 31.8574 82.5904 29.862 82.5904 27.4005V14.8641C82.5904 12.4026 80.595 10.4072 78.1335 10.4072Z" fill="url(#paint2_linear_546_513)"/>
<path d="M71.8984 86.8985H11.0826C10.1824 86.8985 9.43591 86.2179 9.34809 85.3178L5.81331 47.2255C5.72549 46.2156 6.51587 45.3154 7.54777 45.3154H75.5429C76.5748 45.3154 77.3652 46.1936 77.2774 47.2255L73.6328 85.3178C73.545 86.2179 72.7985 86.8985 71.8984 86.8985Z" fill="url(#paint3_linear_546_513)"/>
<path d="M41.5562 58.9932C39.3388 56.7757 35.7601 56.7757 33.5645 58.9932C31.369 61.2107 31.3471 64.7893 33.5645 66.9849L41.5562 74.9766L49.5479 66.9849C51.7654 64.7674 51.7654 61.1887 49.5479 58.9932C47.3304 56.7977 43.7518 56.7757 41.5562 58.9932Z" fill="white" stroke="white" stroke-width="2" stroke-linecap="round" stroke-linejoin="round"/>
</g>
<defs>
<linearGradient id="paint0_linear_546_513" x1="36.5067" y1="0.395193" x2="40.6782" y2="14.1611" gradientUnits="userSpaceOnUse">
<stop stop-color="#FF7160"/>
<stop offset="0.28" stop-color="#FF6553"/>
<stop offset="0.79" stop-color="#FF4732"/>
<stop offset="1" stop-color="#FF3923"/>
</linearGradient>
<linearGradient id="paint1_linear_546_513" x1="17.2959" y1="55.5469" x2="80.7025" y2="83.6495" gradientUnits="userSpaceOnUse">
<stop stop-color="#FFDC50"/>
<stop offset="1" stop-color="#FF8623"/>
</linearGradient>
<linearGradient id="paint2_linear_546_513" x1="26.7145" y1="17.7403" x2="68.583" y2="27.3127" gradientUnits="userSpaceOnUse">
<stop stop-color="#FF7160"/>
<stop offset="0.28" stop-color="#FF6553"/>
<stop offset="0.79" stop-color="#FF4732"/>
<stop offset="1" stop-color="#FF3923"/>
</linearGradient>
<linearGradient id="paint3_linear_546_513" x1="26.9561" y1="46.4791" x2="44.8935" y2="68.0171" gradientUnits="userSpaceOnUse">
<stop stop-color="#FF7160"/>
<stop offset="0.28" stop-color="#FF6553"/>
<stop offset="0.79" stop-color="#FF4732"/>
<stop offset="1" stop-color="#FF3923"/>
</linearGradient>
<clipPath id="clip0_546_513">
<rect width="82.0904" height="113.64" fill="white" transform="translate(0.5)"/>
</clipPath>
</defs>
</svg>
