<svg width="150" height="150" viewBox="0 0 150 150" fill="none" xmlns="http://www.w3.org/2000/svg">
<g clip-path="url(#clip0_389_1431)">
<path d="M104.299 116.358C127.14 100.173 132.537 68.5361 116.352 45.6947C100.168 22.8532 68.5306 17.4568 45.6892 33.6414C22.8477 49.8261 17.4513 81.4629 33.6359 104.304C49.8205 127.146 81.4574 132.542 104.299 116.358Z" fill="url(#paint0_linear_389_1431)"/>
<path d="M74.9999 78.39C74.3995 78.39 73.7797 78.2351 73.2374 77.8864L51.0989 64.3864C49.4913 63.418 48.9877 61.3262 49.9562 59.7186C50.9246 58.111 53.0164 57.6074 54.624 58.5758L76.7625 72.0758C78.3701 73.0443 78.8737 75.1361 77.9052 76.7437C77.2661 77.7896 76.1427 78.3706 74.9999 78.3706V78.39Z" fill="white"/>
<path d="M74.9998 78.3899C73.8183 78.3899 72.6756 77.7894 72.0558 76.6854C71.1067 75.0584 71.6684 72.986 73.2954 72.0369L102.155 55.3605C103.782 54.4114 105.854 54.9731 106.803 56.6001C107.752 58.227 107.191 60.2995 105.564 61.2486L76.7043 77.925C76.1619 78.2349 75.5809 78.3899 74.9998 78.3899Z" fill="white"/>
<path d="M75 21C45.1722 21 21 45.1722 21 75C21 104.828 45.1722 129 75 129C104.828 129 129 104.828 129 75C129 45.1722 104.808 21 75 21ZM75 119.044C50.6729 119.044 30.9362 99.3271 30.9362 74.9806C30.9362 50.6341 50.6729 30.9362 75 30.9362C99.3271 30.9362 119.064 50.6535 119.064 75C119.064 99.3465 99.3465 119.064 75 119.064V119.044Z" fill="url(#paint1_linear_389_1431)"/>
<path d="M75.0002 69.209C71.8044 69.209 69.209 71.8044 69.209 75.0002C69.209 77.8668 71.3008 80.2298 74.0318 80.6946H75.9687C78.6997 80.2298 80.7915 77.8668 80.7915 75.0002C80.7915 71.8044 78.1961 69.209 75.0002 69.209Z" fill="#FF3923"/>
<path d="M75.9686 80.6943H74.0317V113.118H75.9686V80.6943Z" fill="#FF3923"/>
<path d="M75.0002 28.5928C49.3754 28.5928 28.5928 49.3754 28.5928 75.0002C28.5928 100.625 49.356 121.388 74.9809 121.388C100.606 121.388 121.369 100.625 121.369 75.0002C121.369 49.3754 100.625 28.5928 75.0002 28.5928ZM75.0002 119.045C50.6731 119.045 30.9364 99.3274 30.9364 74.9809C30.9364 50.6344 50.6731 30.9364 75.0002 30.9364C99.3274 30.9364 119.064 50.6537 119.064 75.0002C119.064 99.3467 99.3467 119.064 75.0002 119.064V119.045Z" fill="url(#paint2_linear_389_1431)"/>
</g>
<defs>
<linearGradient id="paint0_linear_389_1431" x1="68.3272" y1="57.8343" x2="106.522" y2="156.169" gradientUnits="userSpaceOnUse">
<stop stop-color="#FFDC50"/>
<stop offset="1" stop-color="#FF8623"/>
</linearGradient>
<linearGradient id="paint1_linear_389_1431" x1="67.3687" y1="44.0488" x2="95.8989" y2="159.932" gradientUnits="userSpaceOnUse">
<stop stop-color="#FF5650"/>
<stop offset="1" stop-color="#FF3923"/>
</linearGradient>
<linearGradient id="paint2_linear_389_1431" x1="96.945" y1="133.804" x2="73.2377" y2="70.2936" gradientUnits="userSpaceOnUse">
<stop stop-color="#FF5650"/>
<stop offset="1" stop-color="#FF3923"/>
</linearGradient>
<clipPath id="clip0_389_1431">
<rect width="108" height="108" fill="white" transform="translate(21 21)"/>
</clipPath>
</defs>
</svg>
