<svg width="113" height="106" viewBox="0 0 113 106" fill="none" xmlns="http://www.w3.org/2000/svg">
<g clip-path="url(#clip0_546_865)">
<path d="M59.9008 0.5C30.8672 0.5 7.24023 24.127 7.24023 53.1844C7.24023 82.2418 30.8672 105.869 59.9246 105.869C88.982 105.869 112.609 82.2418 112.609 53.1844C112.609 24.127 88.9582 0.5 59.9008 0.5Z" fill="url(#paint0_linear_546_865)"/>
<path d="M53.1608 105.155C81.863 105.155 105.131 81.8869 105.131 53.1847C105.131 24.4826 81.863 1.21484 53.1608 1.21484C24.4586 1.21484 1.19092 24.4826 1.19092 53.1847C1.19092 81.8869 24.4586 105.155 53.1608 105.155Z" fill="#FFDE5F"/>
<path d="M53.1607 105.821C39.68 105.821 26.1754 100.676 15.91 90.4107C-4.6445 69.8799 -4.6445 36.4639 15.91 15.9332C36.4408 -4.59752 69.8568 -4.59752 90.4113 15.9332C110.942 36.4639 110.942 69.8799 90.4113 90.4345C80.146 100.7 66.6652 105.844 53.1607 105.844V105.821Z" fill="url(#paint1_linear_546_865)"/>
<path d="M88.5058 14.4326C88.5058 14.242 88.4105 14.0515 88.2676 13.9324C85.8144 11.7412 83.1469 9.76434 80.3126 8.04947C80.0268 7.88275 79.6695 7.93039 79.4313 8.14474L8.1216 79.4545C7.88342 79.6927 7.83579 80.0499 8.00251 80.3357C9.71738 83.17 11.6942 85.8376 13.8854 88.2908C14.0045 88.4337 14.1951 88.529 14.3856 88.529C14.5762 88.529 14.7667 88.4575 14.8858 88.3146L88.2915 14.9566C88.4344 14.8137 88.5058 14.6231 88.5058 14.4326Z" fill="url(#paint2_linear_546_865)"/>
<path d="M74.1436 5.21599C74.096 4.97781 73.9293 4.78727 73.7149 4.692C72.0477 3.97747 70.3328 3.35822 68.6418 2.83423C68.3798 2.76278 68.1178 2.83423 67.9272 3.00095L2.9768 67.9752C2.78626 68.1658 2.71481 68.4278 2.81008 68.6898C3.33407 70.3808 3.95332 72.0957 4.66785 73.7629C4.76312 73.9772 4.95366 74.144 5.19184 74.1916C5.23947 74.1916 5.28711 74.1916 5.33474 74.1916C5.52528 74.1916 5.71582 74.1202 5.83491 73.9772L73.9531 5.85906C74.1198 5.69234 74.1913 5.45416 74.1436 5.21599Z" fill="url(#paint3_linear_546_865)"/>
<path d="M102.677 35.2492C102.082 33.6058 101.391 31.9624 100.629 30.3667C100.534 30.1523 100.343 30.0094 100.105 29.9618C99.8667 29.9141 99.6524 29.9856 99.4857 30.1523L30.1528 99.4852C29.9861 99.6519 29.9146 99.8901 29.9622 100.104C30.0099 100.343 30.1528 100.533 30.3671 100.628C31.9629 101.391 33.6063 102.081 35.2497 102.677C35.3212 102.701 35.4165 102.724 35.4879 102.724C35.6785 102.724 35.8452 102.653 35.9881 102.51L102.534 35.9638C102.725 35.7732 102.796 35.4874 102.701 35.2254L102.677 35.2492Z" fill="url(#paint4_linear_546_865)"/>
<path d="M55.4471 91.9832C34.8926 90.84 18.7919 73.7866 18.7919 53.1844C18.7919 32.5823 34.8926 15.5289 55.4471 14.3618C55.8282 14.3618 56.114 14.0284 56.114 13.6473C56.114 13.2662 55.8282 12.9566 55.4471 12.9328C54.6849 12.8851 53.9228 12.8613 53.1606 12.8613C30.9388 12.8613 12.8613 30.9388 12.8613 53.1606C12.8613 75.3824 30.9388 93.4599 53.1606 93.4599C53.9228 93.4599 54.6849 93.4361 55.4471 93.3884C55.8282 93.3884 56.114 93.055 56.114 92.6739C56.114 92.2928 55.8282 91.9832 55.4471 91.9594V91.9832Z" fill="url(#paint5_linear_546_865)"/>
<path d="M55.3517 12.9336C34.035 14.1245 17.3389 31.7971 17.3389 53.1614C17.3389 74.5258 34.035 92.1984 55.4231 93.3893C76.7398 92.1984 93.4359 74.5258 93.4359 53.1614C93.4359 31.7971 76.7398 14.1245 55.3517 12.9336Z" fill="url(#paint6_linear_546_865)"/>
<path d="M79.7649 52.6597H75.0252L76.0494 48.9442H80.2413C81.9085 48.9442 83.2423 47.5866 83.2423 45.9432C83.2423 44.2997 81.8847 42.9421 80.2413 42.9421H77.7166C77.9071 42.2276 78.0501 41.0844 78.0501 40.3937C78.0501 37.7261 76.0494 35.7969 73.2865 35.7969C70.5237 35.7969 68.9994 37.5356 68.2849 40.9415L67.8561 42.966H61.0443L60.5203 40.7986C59.6629 37.345 58.0909 35.7969 55.3996 35.7969C51.9937 35.7969 50.898 38.4644 50.3264 40.7986L49.8024 42.966H42.8239L42.3714 40.9415C41.8712 38.7503 40.8232 35.8207 37.4411 35.8207C34.6068 35.8207 32.63 37.7499 32.63 40.5127C32.63 41.1796 32.7491 42.1085 32.9634 42.9898H31.5106C29.8433 42.9898 28.5096 44.3474 28.5096 45.9908C28.5096 47.6342 29.8672 48.9918 31.5106 48.9918H34.6307L35.6786 52.7073H31.0342C29.367 52.7073 28.0332 54.0649 28.0332 55.7083C28.0332 57.3518 29.3908 58.7094 31.0342 58.7094H37.3697L39.8467 67.498C40.7756 70.7848 42.5619 72.2377 45.5867 72.2377C48.3972 72.2377 50.3979 70.5467 51.2077 67.498L53.518 58.7332H57.3526L59.6153 67.2599C60.4727 70.6181 62.4019 72.2377 65.4506 72.2377C68.2849 72.2377 70.095 70.6896 71.0001 67.498L73.4056 58.7332H79.7887C81.456 58.7332 82.7897 57.3756 82.7897 55.7322C82.7897 54.0888 81.4321 52.7312 79.7887 52.7312L79.7649 52.6597ZM45.0151 52.6597L44.1815 48.9442H48.3496L47.4445 52.6597H45.0151ZM55.3996 51.4212L55.733 52.6597H55.0661L55.3996 51.4212ZM62.4734 48.9442H66.5462L65.7364 52.6597H63.3546L62.4496 48.9442H62.4734Z" fill="url(#paint7_linear_546_865)"/>
<path d="M77.4783 51.4937H72.7386L73.7628 47.7781H77.9546C79.6219 47.7781 80.9557 46.4205 80.9557 44.7771C80.9557 43.1337 79.5981 41.7761 77.9546 41.7761H75.43C75.6205 41.0616 75.7634 39.9184 75.7634 39.2276C75.7634 36.5601 73.7628 34.6309 70.9999 34.6309C68.2371 34.6309 66.7128 36.3695 65.9982 39.7754L65.5695 41.7999H58.7577L58.2337 39.6325C57.3763 36.179 55.8043 34.6309 53.1129 34.6309C49.6832 34.6309 48.6114 37.2984 48.0398 39.6325L47.5158 41.7999H40.5373L40.0847 39.7754C39.5846 37.5842 38.5366 34.6547 35.1545 34.6547C32.3202 34.6547 30.3434 36.5839 30.3434 39.3467C30.3434 40.0136 30.4625 40.9425 30.6768 41.8238H29.2239C27.5567 41.8238 26.2229 43.1814 26.2229 44.8248C26.2229 46.4682 27.5805 47.8258 29.2239 47.8258H32.344L33.392 51.5413H28.7476C27.0804 51.5413 25.7466 52.8989 25.7466 54.5423C25.7466 56.1857 27.1042 57.5433 28.7476 57.5433H35.0831L37.5601 66.332C38.489 69.6188 40.2753 71.0717 43.3001 71.0717C46.1106 71.0717 48.1113 69.3807 48.9211 66.332L51.2314 57.5672H55.066L57.3286 66.0938C58.1861 69.4521 60.1153 71.0717 63.1639 71.0717C65.9982 71.0717 67.8084 69.5236 68.7134 66.332L71.119 57.5672H77.5021C79.1693 57.5672 80.5031 56.2096 80.5031 54.5661C80.5031 52.9227 79.1455 51.5651 77.5021 51.5651L77.4783 51.4937ZM64.2596 47.7781L63.4498 51.4937H61.068L60.1629 47.7781H64.2357H64.2596ZM41.8711 47.7781H46.0391L45.1341 51.4937H42.7047L41.8711 47.7781ZM52.7795 51.4937L53.1129 50.2552L53.4464 51.4937H52.7795Z" fill="url(#paint8_linear_546_865)"/>
</g>
<defs>
<linearGradient id="paint0_linear_546_865" x1="48.3017" y1="165.722" x2="63.0209" y2="22.9599" gradientUnits="userSpaceOnUse">
<stop stop-color="#FFDC50"/>
<stop offset="1" stop-color="#FF8623"/>
</linearGradient>
<linearGradient id="paint1_linear_546_865" x1="51.7555" y1="46.9198" x2="75.9779" y2="155.933" gradientUnits="userSpaceOnUse">
<stop stop-color="#FFDC50"/>
<stop offset="1" stop-color="#FF8623"/>
</linearGradient>
<linearGradient id="paint2_linear_546_865" x1="51.5648" y1="-26.7956" x2="45.5152" y2="106.44" gradientUnits="userSpaceOnUse">
<stop stop-color="white"/>
<stop offset="1" stop-color="#FFDC50"/>
</linearGradient>
<linearGradient id="paint3_linear_546_865" x1="41.3945" y1="-27.2473" x2="35.321" y2="105.988" gradientUnits="userSpaceOnUse">
<stop stop-color="white"/>
<stop offset="1" stop-color="#FFDC50"/>
</linearGradient>
<linearGradient id="paint4_linear_546_865" x1="70.595" y1="-25.938" x2="64.5215" y2="107.321" gradientUnits="userSpaceOnUse">
<stop stop-color="white"/>
<stop offset="1" stop-color="#FFDC50"/>
</linearGradient>
<linearGradient id="paint5_linear_546_865" x1="42.4665" y1="133.521" x2="36.6312" y2="60.8537" gradientUnits="userSpaceOnUse">
<stop stop-color="#FFDC50"/>
<stop offset="1" stop-color="#FF8623"/>
</linearGradient>
<linearGradient id="paint6_linear_546_865" x1="56.5902" y1="75.6928" x2="51.4218" y2="-21.6495" gradientUnits="userSpaceOnUse">
<stop stop-color="#FFDC50"/>
<stop offset="1" stop-color="#FF8623"/>
</linearGradient>
<linearGradient id="paint7_linear_546_865" x1="53.7085" y1="22.6734" x2="55.3281" y2="46.3719" gradientUnits="userSpaceOnUse">
<stop stop-color="#FF7160"/>
<stop offset="0.28" stop-color="#FF6553"/>
<stop offset="0.79" stop-color="#FF4732"/>
<stop offset="1" stop-color="#FF3923"/>
</linearGradient>
<linearGradient id="paint8_linear_546_865" x1="50.5645" y1="38.2273" x2="55.7567" y2="59.6393" gradientUnits="userSpaceOnUse">
<stop stop-color="#FF7160"/>
<stop offset="0.28" stop-color="#FF6553"/>
<stop offset="0.79" stop-color="#FF4732"/>
<stop offset="1" stop-color="#FF3923"/>
</linearGradient>
<clipPath id="clip0_546_865">
<rect width="112.085" height="105.345" fill="white" transform="translate(0.5 0.5)"/>
</clipPath>
</defs>
</svg>
