<svg width="16" height="16" viewBox="0 0 16 16" fill="none" xmlns="http://www.w3.org/2000/svg">
<g id="Icon/24">
<path id="Icon" d="M11.8228 10.4806C11.4259 10.0966 10.7928 10.1071 10.4088 10.504C10.0248 10.901 10.0353 11.5341 10.4322 11.9181L11.8228 10.4806ZM12.6374 14.0514C13.0343 14.4354 13.6674 14.4249 14.0514 14.028C14.4354 13.631 14.4249 12.998 14.028 12.614L12.6374 14.0514ZM11.6216 7.64379C11.6216 9.84066 9.84066 11.6216 7.64379 11.6216V13.6216C10.9452 13.6216 13.6216 10.9452 13.6216 7.64379H11.6216ZM7.64379 11.6216C5.44693 11.6216 3.66602 9.84066 3.66602 7.64379H1.66602C1.66602 10.9452 4.34236 13.6216 7.64379 13.6216V11.6216ZM3.66602 7.64379C3.66602 5.44693 5.44693 3.66602 7.64379 3.66602V1.66602C4.34236 1.66602 1.66602 4.34236 1.66602 7.64379H3.66602ZM7.64379 3.66602C9.84066 3.66602 11.6216 5.44693 11.6216 7.64379H13.6216C13.6216 4.34236 10.9452 1.66602 7.64379 1.66602V3.66602ZM10.4322 11.9181L12.6374 14.0514L14.028 12.614L11.8228 10.4806L10.4322 11.9181Z" fill="#222222"/>
</g>
</svg>
